<?xml version="1.0" encoding="utf-8" standalone="no"?>
<!DOCTYPE svg PUBLIC "-//W3C//DTD SVG 1.1//EN"
  "http://www.w3.org/Graphics/SVG/1.1/DTD/svg11.dtd">
<svg xmlns:xlink="http://www.w3.org/1999/xlink" width="1478.88125pt" height="891.474375pt" viewBox="0 0 1478.88125 891.474375" xmlns="http://www.w3.org/2000/svg" version="1.1">
 <metadata>
  <rdf:RDF xmlns:dc="http://purl.org/dc/elements/1.1/" xmlns:cc="http://creativecommons.org/ns#" xmlns:rdf="http://www.w3.org/1999/02/22-rdf-syntax-ns#">
   <cc:Work>
    <dc:type rdf:resource="http://purl.org/dc/dcmitype/StillImage"/>
    <dc:date>2023-06-15T09:49:38.320725</dc:date>
    <dc:format>image/svg+xml</dc:format>
    <dc:creator>
     <cc:Agent>
      <dc:title>Matplotlib v3.7.1, https://matplotlib.org/</dc:title>
     </cc:Agent>
    </dc:creator>
   </cc:Work>
  </rdf:RDF>
 </metadata>
 <defs>
  <style type="text/css">*{stroke-linejoin: round; stroke-linecap: butt}</style>
 </defs>
 <g id="figure_1">
  <g id="patch_1">
   <path d="M 0 891.474375 
L 1478.88125 891.474375 
L 1478.88125 0 
L 0 0 
z
" style="fill: #ffffff"/>
  </g>
  <g id="axes_1">
   <g id="patch_2">
    <path d="M 53.328125 409.108823 
L 1358.328125 409.108823 
L 1358.328125 22.318125 
L 53.328125 22.318125 
z
" style="fill: #ffffff"/>
   </g>
   <g id="matplotlib.axis_1">
    <g id="xtick_1">
     <g id="line2d_1">
      <defs>
       <path id="m4e1dcb3af9" d="M 0 0 
L 0 3.5 
" style="stroke: #000000; stroke-width: 0.8"/>
      </defs>
      <g>
       <use xlink:href="#m4e1dcb3af9" x="112.646307" y="409.108823" style="stroke: #000000; stroke-width: 0.8"/>
      </g>
     </g>
     <g id="text_1">
      <!-- 0 -->
      <g transform="translate(109.465057 423.70726) scale(0.1 -0.1)">
       <defs>
        <path id="DejaVuSans-30" d="M 2034 4250 
Q 1547 4250 1301 3770 
Q 1056 3291 1056 2328 
Q 1056 1369 1301 889 
Q 1547 409 2034 409 
Q 2525 409 2770 889 
Q 3016 1369 3016 2328 
Q 3016 3291 2770 3770 
Q 2525 4250 2034 4250 
z
M 2034 4750 
Q 2819 4750 3233 4129 
Q 3647 3509 3647 2328 
Q 3647 1150 3233 529 
Q 2819 -91 2034 -91 
Q 1250 -91 836 529 
Q 422 1150 422 2328 
Q 422 3509 836 4129 
Q 1250 4750 2034 4750 
z
" transform="scale(0.015625)"/>
       </defs>
       <use xlink:href="#DejaVuSans-30"/>
      </g>
     </g>
    </g>
    <g id="xtick_2">
     <g id="line2d_2">
      <g>
       <use xlink:href="#m4e1dcb3af9" x="164.227334" y="409.108823" style="stroke: #000000; stroke-width: 0.8"/>
      </g>
     </g>
     <g id="text_2">
      <!-- 1 -->
      <g transform="translate(161.046084 423.70726) scale(0.1 -0.1)">
       <defs>
        <path id="DejaVuSans-31" d="M 794 531 
L 1825 531 
L 1825 4091 
L 703 3866 
L 703 4441 
L 1819 4666 
L 2450 4666 
L 2450 531 
L 3481 531 
L 3481 0 
L 794 0 
L 794 531 
z
" transform="scale(0.015625)"/>
       </defs>
       <use xlink:href="#DejaVuSans-31"/>
      </g>
     </g>
    </g>
    <g id="xtick_3">
     <g id="line2d_3">
      <g>
       <use xlink:href="#m4e1dcb3af9" x="215.808362" y="409.108823" style="stroke: #000000; stroke-width: 0.8"/>
      </g>
     </g>
     <g id="text_3">
      <!-- 2 -->
      <g transform="translate(212.627112 423.70726) scale(0.1 -0.1)">
       <defs>
        <path id="DejaVuSans-32" d="M 1228 531 
L 3431 531 
L 3431 0 
L 469 0 
L 469 531 
Q 828 903 1448 1529 
Q 2069 2156 2228 2338 
Q 2531 2678 2651 2914 
Q 2772 3150 2772 3378 
Q 2772 3750 2511 3984 
Q 2250 4219 1831 4219 
Q 1534 4219 1204 4116 
Q 875 4013 500 3803 
L 500 4441 
Q 881 4594 1212 4672 
Q 1544 4750 1819 4750 
Q 2544 4750 2975 4387 
Q 3406 4025 3406 3419 
Q 3406 3131 3298 2873 
Q 3191 2616 2906 2266 
Q 2828 2175 2409 1742 
Q 1991 1309 1228 531 
z
" transform="scale(0.015625)"/>
       </defs>
       <use xlink:href="#DejaVuSans-32"/>
      </g>
     </g>
    </g>
    <g id="xtick_4">
     <g id="line2d_4">
      <g>
       <use xlink:href="#m4e1dcb3af9" x="267.38939" y="409.108823" style="stroke: #000000; stroke-width: 0.8"/>
      </g>
     </g>
     <g id="text_4">
      <!-- 3 -->
      <g transform="translate(264.20814 423.70726) scale(0.1 -0.1)">
       <defs>
        <path id="DejaVuSans-33" d="M 2597 2516 
Q 3050 2419 3304 2112 
Q 3559 1806 3559 1356 
Q 3559 666 3084 287 
Q 2609 -91 1734 -91 
Q 1441 -91 1130 -33 
Q 819 25 488 141 
L 488 750 
Q 750 597 1062 519 
Q 1375 441 1716 441 
Q 2309 441 2620 675 
Q 2931 909 2931 1356 
Q 2931 1769 2642 2001 
Q 2353 2234 1838 2234 
L 1294 2234 
L 1294 2753 
L 1863 2753 
Q 2328 2753 2575 2939 
Q 2822 3125 2822 3475 
Q 2822 3834 2567 4026 
Q 2313 4219 1838 4219 
Q 1578 4219 1281 4162 
Q 984 4106 628 3988 
L 628 4550 
Q 988 4650 1302 4700 
Q 1616 4750 1894 4750 
Q 2613 4750 3031 4423 
Q 3450 4097 3450 3541 
Q 3450 3153 3228 2886 
Q 3006 2619 2597 2516 
z
" transform="scale(0.015625)"/>
       </defs>
       <use xlink:href="#DejaVuSans-33"/>
      </g>
     </g>
    </g>
    <g id="xtick_5">
     <g id="line2d_5">
      <g>
       <use xlink:href="#m4e1dcb3af9" x="318.970417" y="409.108823" style="stroke: #000000; stroke-width: 0.8"/>
      </g>
     </g>
     <g id="text_5">
      <!-- 4 -->
      <g transform="translate(315.789167 423.70726) scale(0.1 -0.1)">
       <defs>
        <path id="DejaVuSans-34" d="M 2419 4116 
L 825 1625 
L 2419 1625 
L 2419 4116 
z
M 2253 4666 
L 3047 4666 
L 3047 1625 
L 3713 1625 
L 3713 1100 
L 3047 1100 
L 3047 0 
L 2419 0 
L 2419 1100 
L 313 1100 
L 313 1709 
L 2253 4666 
z
" transform="scale(0.015625)"/>
       </defs>
       <use xlink:href="#DejaVuSans-34"/>
      </g>
     </g>
    </g>
    <g id="xtick_6">
     <g id="line2d_6">
      <g>
       <use xlink:href="#m4e1dcb3af9" x="370.551445" y="409.108823" style="stroke: #000000; stroke-width: 0.8"/>
      </g>
     </g>
     <g id="text_6">
      <!-- 5 -->
      <g transform="translate(367.370195 423.70726) scale(0.1 -0.1)">
       <defs>
        <path id="DejaVuSans-35" d="M 691 4666 
L 3169 4666 
L 3169 4134 
L 1269 4134 
L 1269 2991 
Q 1406 3038 1543 3061 
Q 1681 3084 1819 3084 
Q 2600 3084 3056 2656 
Q 3513 2228 3513 1497 
Q 3513 744 3044 326 
Q 2575 -91 1722 -91 
Q 1428 -91 1123 -41 
Q 819 9 494 109 
L 494 744 
Q 775 591 1075 516 
Q 1375 441 1709 441 
Q 2250 441 2565 725 
Q 2881 1009 2881 1497 
Q 2881 1984 2565 2268 
Q 2250 2553 1709 2553 
Q 1456 2553 1204 2497 
Q 953 2441 691 2322 
L 691 4666 
z
" transform="scale(0.015625)"/>
       </defs>
       <use xlink:href="#DejaVuSans-35"/>
      </g>
     </g>
    </g>
    <g id="xtick_7">
     <g id="line2d_7">
      <g>
       <use xlink:href="#m4e1dcb3af9" x="422.132473" y="409.108823" style="stroke: #000000; stroke-width: 0.8"/>
      </g>
     </g>
     <g id="text_7">
      <!-- 6 -->
      <g transform="translate(418.951223 423.70726) scale(0.1 -0.1)">
       <defs>
        <path id="DejaVuSans-36" d="M 2113 2584 
Q 1688 2584 1439 2293 
Q 1191 2003 1191 1497 
Q 1191 994 1439 701 
Q 1688 409 2113 409 
Q 2538 409 2786 701 
Q 3034 994 3034 1497 
Q 3034 2003 2786 2293 
Q 2538 2584 2113 2584 
z
M 3366 4563 
L 3366 3988 
Q 3128 4100 2886 4159 
Q 2644 4219 2406 4219 
Q 1781 4219 1451 3797 
Q 1122 3375 1075 2522 
Q 1259 2794 1537 2939 
Q 1816 3084 2150 3084 
Q 2853 3084 3261 2657 
Q 3669 2231 3669 1497 
Q 3669 778 3244 343 
Q 2819 -91 2113 -91 
Q 1303 -91 875 529 
Q 447 1150 447 2328 
Q 447 3434 972 4092 
Q 1497 4750 2381 4750 
Q 2619 4750 2861 4703 
Q 3103 4656 3366 4563 
z
" transform="scale(0.015625)"/>
       </defs>
       <use xlink:href="#DejaVuSans-36"/>
      </g>
     </g>
    </g>
    <g id="xtick_8">
     <g id="line2d_8">
      <g>
       <use xlink:href="#m4e1dcb3af9" x="473.7135" y="409.108823" style="stroke: #000000; stroke-width: 0.8"/>
      </g>
     </g>
     <g id="text_8">
      <!-- 7 -->
      <g transform="translate(470.53225 423.70726) scale(0.1 -0.1)">
       <defs>
        <path id="DejaVuSans-37" d="M 525 4666 
L 3525 4666 
L 3525 4397 
L 1831 0 
L 1172 0 
L 2766 4134 
L 525 4134 
L 525 4666 
z
" transform="scale(0.015625)"/>
       </defs>
       <use xlink:href="#DejaVuSans-37"/>
      </g>
     </g>
    </g>
    <g id="xtick_9">
     <g id="line2d_9">
      <g>
       <use xlink:href="#m4e1dcb3af9" x="525.294528" y="409.108823" style="stroke: #000000; stroke-width: 0.8"/>
      </g>
     </g>
     <g id="text_9">
      <!-- 8 -->
      <g transform="translate(522.113278 423.70726) scale(0.1 -0.1)">
       <defs>
        <path id="DejaVuSans-38" d="M 2034 2216 
Q 1584 2216 1326 1975 
Q 1069 1734 1069 1313 
Q 1069 891 1326 650 
Q 1584 409 2034 409 
Q 2484 409 2743 651 
Q 3003 894 3003 1313 
Q 3003 1734 2745 1975 
Q 2488 2216 2034 2216 
z
M 1403 2484 
Q 997 2584 770 2862 
Q 544 3141 544 3541 
Q 544 4100 942 4425 
Q 1341 4750 2034 4750 
Q 2731 4750 3128 4425 
Q 3525 4100 3525 3541 
Q 3525 3141 3298 2862 
Q 3072 2584 2669 2484 
Q 3125 2378 3379 2068 
Q 3634 1759 3634 1313 
Q 3634 634 3220 271 
Q 2806 -91 2034 -91 
Q 1263 -91 848 271 
Q 434 634 434 1313 
Q 434 1759 690 2068 
Q 947 2378 1403 2484 
z
M 1172 3481 
Q 1172 3119 1398 2916 
Q 1625 2713 2034 2713 
Q 2441 2713 2670 2916 
Q 2900 3119 2900 3481 
Q 2900 3844 2670 4047 
Q 2441 4250 2034 4250 
Q 1625 4250 1398 4047 
Q 1172 3844 1172 3481 
z
" transform="scale(0.015625)"/>
       </defs>
       <use xlink:href="#DejaVuSans-38"/>
      </g>
     </g>
    </g>
    <g id="xtick_10">
     <g id="line2d_10">
      <g>
       <use xlink:href="#m4e1dcb3af9" x="576.875556" y="409.108823" style="stroke: #000000; stroke-width: 0.8"/>
      </g>
     </g>
     <g id="text_10">
      <!-- 9 -->
      <g transform="translate(573.694306 423.70726) scale(0.1 -0.1)">
       <defs>
        <path id="DejaVuSans-39" d="M 703 97 
L 703 672 
Q 941 559 1184 500 
Q 1428 441 1663 441 
Q 2288 441 2617 861 
Q 2947 1281 2994 2138 
Q 2813 1869 2534 1725 
Q 2256 1581 1919 1581 
Q 1219 1581 811 2004 
Q 403 2428 403 3163 
Q 403 3881 828 4315 
Q 1253 4750 1959 4750 
Q 2769 4750 3195 4129 
Q 3622 3509 3622 2328 
Q 3622 1225 3098 567 
Q 2575 -91 1691 -91 
Q 1453 -91 1209 -44 
Q 966 3 703 97 
z
M 1959 2075 
Q 2384 2075 2632 2365 
Q 2881 2656 2881 3163 
Q 2881 3666 2632 3958 
Q 2384 4250 1959 4250 
Q 1534 4250 1286 3958 
Q 1038 3666 1038 3163 
Q 1038 2656 1286 2365 
Q 1534 2075 1959 2075 
z
" transform="scale(0.015625)"/>
       </defs>
       <use xlink:href="#DejaVuSans-39"/>
      </g>
     </g>
    </g>
    <g id="xtick_11">
     <g id="line2d_11">
      <g>
       <use xlink:href="#m4e1dcb3af9" x="628.456583" y="409.108823" style="stroke: #000000; stroke-width: 0.8"/>
      </g>
     </g>
     <g id="text_11">
      <!-- 10 -->
      <g transform="translate(622.094083 423.70726) scale(0.1 -0.1)">
       <use xlink:href="#DejaVuSans-31"/>
       <use xlink:href="#DejaVuSans-30" x="63.623047"/>
      </g>
     </g>
    </g>
    <g id="xtick_12">
     <g id="line2d_12">
      <g>
       <use xlink:href="#m4e1dcb3af9" x="680.037611" y="409.108823" style="stroke: #000000; stroke-width: 0.8"/>
      </g>
     </g>
     <g id="text_12">
      <!-- 11 -->
      <g transform="translate(673.675111 423.70726) scale(0.1 -0.1)">
       <use xlink:href="#DejaVuSans-31"/>
       <use xlink:href="#DejaVuSans-31" x="63.623047"/>
      </g>
     </g>
    </g>
    <g id="xtick_13">
     <g id="line2d_13">
      <g>
       <use xlink:href="#m4e1dcb3af9" x="731.618639" y="409.108823" style="stroke: #000000; stroke-width: 0.8"/>
      </g>
     </g>
     <g id="text_13">
      <!-- 12 -->
      <g transform="translate(725.256139 423.70726) scale(0.1 -0.1)">
       <use xlink:href="#DejaVuSans-31"/>
       <use xlink:href="#DejaVuSans-32" x="63.623047"/>
      </g>
     </g>
    </g>
    <g id="xtick_14">
     <g id="line2d_14">
      <g>
       <use xlink:href="#m4e1dcb3af9" x="783.199667" y="409.108823" style="stroke: #000000; stroke-width: 0.8"/>
      </g>
     </g>
     <g id="text_14">
      <!-- 13 -->
      <g transform="translate(776.837167 423.70726) scale(0.1 -0.1)">
       <use xlink:href="#DejaVuSans-31"/>
       <use xlink:href="#DejaVuSans-33" x="63.623047"/>
      </g>
     </g>
    </g>
    <g id="xtick_15">
     <g id="line2d_15">
      <g>
       <use xlink:href="#m4e1dcb3af9" x="834.780694" y="409.108823" style="stroke: #000000; stroke-width: 0.8"/>
      </g>
     </g>
     <g id="text_15">
      <!-- 14 -->
      <g transform="translate(828.418194 423.70726) scale(0.1 -0.1)">
       <use xlink:href="#DejaVuSans-31"/>
       <use xlink:href="#DejaVuSans-34" x="63.623047"/>
      </g>
     </g>
    </g>
    <g id="xtick_16">
     <g id="line2d_16">
      <g>
       <use xlink:href="#m4e1dcb3af9" x="886.361722" y="409.108823" style="stroke: #000000; stroke-width: 0.8"/>
      </g>
     </g>
     <g id="text_16">
      <!-- 15 -->
      <g transform="translate(879.999222 423.70726) scale(0.1 -0.1)">
       <use xlink:href="#DejaVuSans-31"/>
       <use xlink:href="#DejaVuSans-35" x="63.623047"/>
      </g>
     </g>
    </g>
    <g id="xtick_17">
     <g id="line2d_17">
      <g>
       <use xlink:href="#m4e1dcb3af9" x="937.94275" y="409.108823" style="stroke: #000000; stroke-width: 0.8"/>
      </g>
     </g>
     <g id="text_17">
      <!-- 16 -->
      <g transform="translate(931.58025 423.70726) scale(0.1 -0.1)">
       <use xlink:href="#DejaVuSans-31"/>
       <use xlink:href="#DejaVuSans-36" x="63.623047"/>
      </g>
     </g>
    </g>
    <g id="xtick_18">
     <g id="line2d_18">
      <g>
       <use xlink:href="#m4e1dcb3af9" x="989.523777" y="409.108823" style="stroke: #000000; stroke-width: 0.8"/>
      </g>
     </g>
     <g id="text_18">
      <!-- 17 -->
      <g transform="translate(983.161277 423.70726) scale(0.1 -0.1)">
       <use xlink:href="#DejaVuSans-31"/>
       <use xlink:href="#DejaVuSans-37" x="63.623047"/>
      </g>
     </g>
    </g>
    <g id="xtick_19">
     <g id="line2d_19">
      <g>
       <use xlink:href="#m4e1dcb3af9" x="1041.104805" y="409.108823" style="stroke: #000000; stroke-width: 0.8"/>
      </g>
     </g>
     <g id="text_19">
      <!-- 18 -->
      <g transform="translate(1034.742305 423.70726) scale(0.1 -0.1)">
       <use xlink:href="#DejaVuSans-31"/>
       <use xlink:href="#DejaVuSans-38" x="63.623047"/>
      </g>
     </g>
    </g>
    <g id="xtick_20">
     <g id="line2d_20">
      <g>
       <use xlink:href="#m4e1dcb3af9" x="1092.685833" y="409.108823" style="stroke: #000000; stroke-width: 0.8"/>
      </g>
     </g>
     <g id="text_20">
      <!-- 19 -->
      <g transform="translate(1086.323333 423.70726) scale(0.1 -0.1)">
       <use xlink:href="#DejaVuSans-31"/>
       <use xlink:href="#DejaVuSans-39" x="63.623047"/>
      </g>
     </g>
    </g>
    <g id="xtick_21">
     <g id="line2d_21">
      <g>
       <use xlink:href="#m4e1dcb3af9" x="1144.26686" y="409.108823" style="stroke: #000000; stroke-width: 0.8"/>
      </g>
     </g>
     <g id="text_21">
      <!-- 20 -->
      <g transform="translate(1137.90436 423.70726) scale(0.1 -0.1)">
       <use xlink:href="#DejaVuSans-32"/>
       <use xlink:href="#DejaVuSans-30" x="63.623047"/>
      </g>
     </g>
    </g>
    <g id="xtick_22">
     <g id="line2d_22">
      <g>
       <use xlink:href="#m4e1dcb3af9" x="1195.847888" y="409.108823" style="stroke: #000000; stroke-width: 0.8"/>
      </g>
     </g>
     <g id="text_22">
      <!-- 21 -->
      <g transform="translate(1189.485388 423.70726) scale(0.1 -0.1)">
       <use xlink:href="#DejaVuSans-32"/>
       <use xlink:href="#DejaVuSans-31" x="63.623047"/>
      </g>
     </g>
    </g>
    <g id="xtick_23">
     <g id="line2d_23">
      <g>
       <use xlink:href="#m4e1dcb3af9" x="1247.428916" y="409.108823" style="stroke: #000000; stroke-width: 0.8"/>
      </g>
     </g>
     <g id="text_23">
      <!-- 22 -->
      <g transform="translate(1241.066416 423.70726) scale(0.1 -0.1)">
       <use xlink:href="#DejaVuSans-32"/>
       <use xlink:href="#DejaVuSans-32" x="63.623047"/>
      </g>
     </g>
    </g>
    <g id="xtick_24">
     <g id="line2d_24">
      <g>
       <use xlink:href="#m4e1dcb3af9" x="1299.009943" y="409.108823" style="stroke: #000000; stroke-width: 0.8"/>
      </g>
     </g>
     <g id="text_24">
      <!-- 23 -->
      <g transform="translate(1292.647443 423.70726) scale(0.1 -0.1)">
       <use xlink:href="#DejaVuSans-32"/>
       <use xlink:href="#DejaVuSans-33" x="63.623047"/>
      </g>
     </g>
    </g>
    <g id="text_25">
     <!-- Time of day (hour) -->
     <g transform="translate(659.45625 437.385385) scale(0.1 -0.1)">
      <defs>
       <path id="DejaVuSans-54" d="M -19 4666 
L 3928 4666 
L 3928 4134 
L 2272 4134 
L 2272 0 
L 1638 0 
L 1638 4134 
L -19 4134 
L -19 4666 
z
" transform="scale(0.015625)"/>
       <path id="DejaVuSans-69" d="M 603 3500 
L 1178 3500 
L 1178 0 
L 603 0 
L 603 3500 
z
M 603 4863 
L 1178 4863 
L 1178 4134 
L 603 4134 
L 603 4863 
z
" transform="scale(0.015625)"/>
       <path id="DejaVuSans-6d" d="M 3328 2828 
Q 3544 3216 3844 3400 
Q 4144 3584 4550 3584 
Q 5097 3584 5394 3201 
Q 5691 2819 5691 2113 
L 5691 0 
L 5113 0 
L 5113 2094 
Q 5113 2597 4934 2840 
Q 4756 3084 4391 3084 
Q 3944 3084 3684 2787 
Q 3425 2491 3425 1978 
L 3425 0 
L 2847 0 
L 2847 2094 
Q 2847 2600 2669 2842 
Q 2491 3084 2119 3084 
Q 1678 3084 1418 2786 
Q 1159 2488 1159 1978 
L 1159 0 
L 581 0 
L 581 3500 
L 1159 3500 
L 1159 2956 
Q 1356 3278 1631 3431 
Q 1906 3584 2284 3584 
Q 2666 3584 2933 3390 
Q 3200 3197 3328 2828 
z
" transform="scale(0.015625)"/>
       <path id="DejaVuSans-65" d="M 3597 1894 
L 3597 1613 
L 953 1613 
Q 991 1019 1311 708 
Q 1631 397 2203 397 
Q 2534 397 2845 478 
Q 3156 559 3463 722 
L 3463 178 
Q 3153 47 2828 -22 
Q 2503 -91 2169 -91 
Q 1331 -91 842 396 
Q 353 884 353 1716 
Q 353 2575 817 3079 
Q 1281 3584 2069 3584 
Q 2775 3584 3186 3129 
Q 3597 2675 3597 1894 
z
M 3022 2063 
Q 3016 2534 2758 2815 
Q 2500 3097 2075 3097 
Q 1594 3097 1305 2825 
Q 1016 2553 972 2059 
L 3022 2063 
z
" transform="scale(0.015625)"/>
       <path id="DejaVuSans-20" transform="scale(0.015625)"/>
       <path id="DejaVuSans-6f" d="M 1959 3097 
Q 1497 3097 1228 2736 
Q 959 2375 959 1747 
Q 959 1119 1226 758 
Q 1494 397 1959 397 
Q 2419 397 2687 759 
Q 2956 1122 2956 1747 
Q 2956 2369 2687 2733 
Q 2419 3097 1959 3097 
z
M 1959 3584 
Q 2709 3584 3137 3096 
Q 3566 2609 3566 1747 
Q 3566 888 3137 398 
Q 2709 -91 1959 -91 
Q 1206 -91 779 398 
Q 353 888 353 1747 
Q 353 2609 779 3096 
Q 1206 3584 1959 3584 
z
" transform="scale(0.015625)"/>
       <path id="DejaVuSans-66" d="M 2375 4863 
L 2375 4384 
L 1825 4384 
Q 1516 4384 1395 4259 
Q 1275 4134 1275 3809 
L 1275 3500 
L 2222 3500 
L 2222 3053 
L 1275 3053 
L 1275 0 
L 697 0 
L 697 3053 
L 147 3053 
L 147 3500 
L 697 3500 
L 697 3744 
Q 697 4328 969 4595 
Q 1241 4863 1831 4863 
L 2375 4863 
z
" transform="scale(0.015625)"/>
       <path id="DejaVuSans-64" d="M 2906 2969 
L 2906 4863 
L 3481 4863 
L 3481 0 
L 2906 0 
L 2906 525 
Q 2725 213 2448 61 
Q 2172 -91 1784 -91 
Q 1150 -91 751 415 
Q 353 922 353 1747 
Q 353 2572 751 3078 
Q 1150 3584 1784 3584 
Q 2172 3584 2448 3432 
Q 2725 3281 2906 2969 
z
M 947 1747 
Q 947 1113 1208 752 
Q 1469 391 1925 391 
Q 2381 391 2643 752 
Q 2906 1113 2906 1747 
Q 2906 2381 2643 2742 
Q 2381 3103 1925 3103 
Q 1469 3103 1208 2742 
Q 947 2381 947 1747 
z
" transform="scale(0.015625)"/>
       <path id="DejaVuSans-61" d="M 2194 1759 
Q 1497 1759 1228 1600 
Q 959 1441 959 1056 
Q 959 750 1161 570 
Q 1363 391 1709 391 
Q 2188 391 2477 730 
Q 2766 1069 2766 1631 
L 2766 1759 
L 2194 1759 
z
M 3341 1997 
L 3341 0 
L 2766 0 
L 2766 531 
Q 2569 213 2275 61 
Q 1981 -91 1556 -91 
Q 1019 -91 701 211 
Q 384 513 384 1019 
Q 384 1609 779 1909 
Q 1175 2209 1959 2209 
L 2766 2209 
L 2766 2266 
Q 2766 2663 2505 2880 
Q 2244 3097 1772 3097 
Q 1472 3097 1187 3025 
Q 903 2953 641 2809 
L 641 3341 
Q 956 3463 1253 3523 
Q 1550 3584 1831 3584 
Q 2591 3584 2966 3190 
Q 3341 2797 3341 1997 
z
" transform="scale(0.015625)"/>
       <path id="DejaVuSans-79" d="M 2059 -325 
Q 1816 -950 1584 -1140 
Q 1353 -1331 966 -1331 
L 506 -1331 
L 506 -850 
L 844 -850 
Q 1081 -850 1212 -737 
Q 1344 -625 1503 -206 
L 1606 56 
L 191 3500 
L 800 3500 
L 1894 763 
L 2988 3500 
L 3597 3500 
L 2059 -325 
z
" transform="scale(0.015625)"/>
       <path id="DejaVuSans-28" d="M 1984 4856 
Q 1566 4138 1362 3434 
Q 1159 2731 1159 2009 
Q 1159 1288 1364 580 
Q 1569 -128 1984 -844 
L 1484 -844 
Q 1016 -109 783 600 
Q 550 1309 550 2009 
Q 550 2706 781 3412 
Q 1013 4119 1484 4856 
L 1984 4856 
z
" transform="scale(0.015625)"/>
       <path id="DejaVuSans-68" d="M 3513 2113 
L 3513 0 
L 2938 0 
L 2938 2094 
Q 2938 2591 2744 2837 
Q 2550 3084 2163 3084 
Q 1697 3084 1428 2787 
Q 1159 2491 1159 1978 
L 1159 0 
L 581 0 
L 581 4863 
L 1159 4863 
L 1159 2956 
Q 1366 3272 1645 3428 
Q 1925 3584 2291 3584 
Q 2894 3584 3203 3211 
Q 3513 2838 3513 2113 
z
" transform="scale(0.015625)"/>
       <path id="DejaVuSans-75" d="M 544 1381 
L 544 3500 
L 1119 3500 
L 1119 1403 
Q 1119 906 1312 657 
Q 1506 409 1894 409 
Q 2359 409 2629 706 
Q 2900 1003 2900 1516 
L 2900 3500 
L 3475 3500 
L 3475 0 
L 2900 0 
L 2900 538 
Q 2691 219 2414 64 
Q 2138 -91 1772 -91 
Q 1169 -91 856 284 
Q 544 659 544 1381 
z
M 1991 3584 
L 1991 3584 
z
" transform="scale(0.015625)"/>
       <path id="DejaVuSans-72" d="M 2631 2963 
Q 2534 3019 2420 3045 
Q 2306 3072 2169 3072 
Q 1681 3072 1420 2755 
Q 1159 2438 1159 1844 
L 1159 0 
L 581 0 
L 581 3500 
L 1159 3500 
L 1159 2956 
Q 1341 3275 1631 3429 
Q 1922 3584 2338 3584 
Q 2397 3584 2469 3576 
Q 2541 3569 2628 3553 
L 2631 2963 
z
" transform="scale(0.015625)"/>
       <path id="DejaVuSans-29" d="M 513 4856 
L 1013 4856 
Q 1481 4119 1714 3412 
Q 1947 2706 1947 2009 
Q 1947 1309 1714 600 
Q 1481 -109 1013 -844 
L 513 -844 
Q 928 -128 1133 580 
Q 1338 1288 1338 2009 
Q 1338 2731 1133 3434 
Q 928 4138 513 4856 
z
" transform="scale(0.015625)"/>
      </defs>
      <use xlink:href="#DejaVuSans-54"/>
      <use xlink:href="#DejaVuSans-69" x="57.958984"/>
      <use xlink:href="#DejaVuSans-6d" x="85.742188"/>
      <use xlink:href="#DejaVuSans-65" x="183.154297"/>
      <use xlink:href="#DejaVuSans-20" x="244.677734"/>
      <use xlink:href="#DejaVuSans-6f" x="276.464844"/>
      <use xlink:href="#DejaVuSans-66" x="337.646484"/>
      <use xlink:href="#DejaVuSans-20" x="372.851562"/>
      <use xlink:href="#DejaVuSans-64" x="404.638672"/>
      <use xlink:href="#DejaVuSans-61" x="468.115234"/>
      <use xlink:href="#DejaVuSans-79" x="529.394531"/>
      <use xlink:href="#DejaVuSans-20" x="588.574219"/>
      <use xlink:href="#DejaVuSans-28" x="620.361328"/>
      <use xlink:href="#DejaVuSans-68" x="659.375"/>
      <use xlink:href="#DejaVuSans-6f" x="722.753906"/>
      <use xlink:href="#DejaVuSans-75" x="783.935547"/>
      <use xlink:href="#DejaVuSans-72" x="847.314453"/>
      <use xlink:href="#DejaVuSans-29" x="888.427734"/>
     </g>
    </g>
   </g>
   <g id="matplotlib.axis_2">
    <g id="ytick_1">
     <g id="line2d_25">
      <defs>
       <path id="mc43e190a45" d="M 0 0 
L -3.5 0 
" style="stroke: #000000; stroke-width: 0.8"/>
      </defs>
      <g>
       <use xlink:href="#mc43e190a45" x="53.328125" y="392.461378" style="stroke: #000000; stroke-width: 0.8"/>
      </g>
     </g>
     <g id="text_26">
      <!-- 0 -->
      <g transform="translate(39.965625 396.260597) scale(0.1 -0.1)">
       <use xlink:href="#DejaVuSans-30"/>
      </g>
     </g>
    </g>
    <g id="ytick_2">
     <g id="line2d_26">
      <g>
       <use xlink:href="#mc43e190a45" x="53.328125" y="329.978771" style="stroke: #000000; stroke-width: 0.8"/>
      </g>
     </g>
     <g id="text_27">
      <!-- 500 -->
      <g transform="translate(27.240625 333.77799) scale(0.1 -0.1)">
       <use xlink:href="#DejaVuSans-35"/>
       <use xlink:href="#DejaVuSans-30" x="63.623047"/>
       <use xlink:href="#DejaVuSans-30" x="127.246094"/>
      </g>
     </g>
    </g>
    <g id="ytick_3">
     <g id="line2d_27">
      <g>
       <use xlink:href="#mc43e190a45" x="53.328125" y="267.496164" style="stroke: #000000; stroke-width: 0.8"/>
      </g>
     </g>
     <g id="text_28">
      <!-- 1000 -->
      <g transform="translate(20.878125 271.295383) scale(0.1 -0.1)">
       <use xlink:href="#DejaVuSans-31"/>
       <use xlink:href="#DejaVuSans-30" x="63.623047"/>
       <use xlink:href="#DejaVuSans-30" x="127.246094"/>
       <use xlink:href="#DejaVuSans-30" x="190.869141"/>
      </g>
     </g>
    </g>
    <g id="ytick_4">
     <g id="line2d_28">
      <g>
       <use xlink:href="#mc43e190a45" x="53.328125" y="205.013558" style="stroke: #000000; stroke-width: 0.8"/>
      </g>
     </g>
     <g id="text_29">
      <!-- 1500 -->
      <g transform="translate(20.878125 208.812776) scale(0.1 -0.1)">
       <use xlink:href="#DejaVuSans-31"/>
       <use xlink:href="#DejaVuSans-35" x="63.623047"/>
       <use xlink:href="#DejaVuSans-30" x="127.246094"/>
       <use xlink:href="#DejaVuSans-30" x="190.869141"/>
      </g>
     </g>
    </g>
    <g id="ytick_5">
     <g id="line2d_29">
      <g>
       <use xlink:href="#mc43e190a45" x="53.328125" y="142.530951" style="stroke: #000000; stroke-width: 0.8"/>
      </g>
     </g>
     <g id="text_30">
      <!-- 2000 -->
      <g transform="translate(20.878125 146.33017) scale(0.1 -0.1)">
       <use xlink:href="#DejaVuSans-32"/>
       <use xlink:href="#DejaVuSans-30" x="63.623047"/>
       <use xlink:href="#DejaVuSans-30" x="127.246094"/>
       <use xlink:href="#DejaVuSans-30" x="190.869141"/>
      </g>
     </g>
    </g>
    <g id="ytick_6">
     <g id="line2d_30">
      <g>
       <use xlink:href="#mc43e190a45" x="53.328125" y="80.048344" style="stroke: #000000; stroke-width: 0.8"/>
      </g>
     </g>
     <g id="text_31">
      <!-- 2500 -->
      <g transform="translate(20.878125 83.847563) scale(0.1 -0.1)">
       <use xlink:href="#DejaVuSans-32"/>
       <use xlink:href="#DejaVuSans-35" x="63.623047"/>
       <use xlink:href="#DejaVuSans-30" x="127.246094"/>
       <use xlink:href="#DejaVuSans-30" x="190.869141"/>
      </g>
     </g>
    </g>
    <g id="text_32">
     <!-- Pedestrian flow (hourly sum) -->
     <g transform="translate(14.798437 287.527536) rotate(-90) scale(0.1 -0.1)">
      <defs>
       <path id="DejaVuSans-50" d="M 1259 4147 
L 1259 2394 
L 2053 2394 
Q 2494 2394 2734 2622 
Q 2975 2850 2975 3272 
Q 2975 3691 2734 3919 
Q 2494 4147 2053 4147 
L 1259 4147 
z
M 628 4666 
L 2053 4666 
Q 2838 4666 3239 4311 
Q 3641 3956 3641 3272 
Q 3641 2581 3239 2228 
Q 2838 1875 2053 1875 
L 1259 1875 
L 1259 0 
L 628 0 
L 628 4666 
z
" transform="scale(0.015625)"/>
       <path id="DejaVuSans-73" d="M 2834 3397 
L 2834 2853 
Q 2591 2978 2328 3040 
Q 2066 3103 1784 3103 
Q 1356 3103 1142 2972 
Q 928 2841 928 2578 
Q 928 2378 1081 2264 
Q 1234 2150 1697 2047 
L 1894 2003 
Q 2506 1872 2764 1633 
Q 3022 1394 3022 966 
Q 3022 478 2636 193 
Q 2250 -91 1575 -91 
Q 1294 -91 989 -36 
Q 684 19 347 128 
L 347 722 
Q 666 556 975 473 
Q 1284 391 1588 391 
Q 1994 391 2212 530 
Q 2431 669 2431 922 
Q 2431 1156 2273 1281 
Q 2116 1406 1581 1522 
L 1381 1569 
Q 847 1681 609 1914 
Q 372 2147 372 2553 
Q 372 3047 722 3315 
Q 1072 3584 1716 3584 
Q 2034 3584 2315 3537 
Q 2597 3491 2834 3397 
z
" transform="scale(0.015625)"/>
       <path id="DejaVuSans-74" d="M 1172 4494 
L 1172 3500 
L 2356 3500 
L 2356 3053 
L 1172 3053 
L 1172 1153 
Q 1172 725 1289 603 
Q 1406 481 1766 481 
L 2356 481 
L 2356 0 
L 1766 0 
Q 1100 0 847 248 
Q 594 497 594 1153 
L 594 3053 
L 172 3053 
L 172 3500 
L 594 3500 
L 594 4494 
L 1172 4494 
z
" transform="scale(0.015625)"/>
       <path id="DejaVuSans-6e" d="M 3513 2113 
L 3513 0 
L 2938 0 
L 2938 2094 
Q 2938 2591 2744 2837 
Q 2550 3084 2163 3084 
Q 1697 3084 1428 2787 
Q 1159 2491 1159 1978 
L 1159 0 
L 581 0 
L 581 3500 
L 1159 3500 
L 1159 2956 
Q 1366 3272 1645 3428 
Q 1925 3584 2291 3584 
Q 2894 3584 3203 3211 
Q 3513 2838 3513 2113 
z
" transform="scale(0.015625)"/>
       <path id="DejaVuSans-6c" d="M 603 4863 
L 1178 4863 
L 1178 0 
L 603 0 
L 603 4863 
z
" transform="scale(0.015625)"/>
       <path id="DejaVuSans-77" d="M 269 3500 
L 844 3500 
L 1563 769 
L 2278 3500 
L 2956 3500 
L 3675 769 
L 4391 3500 
L 4966 3500 
L 4050 0 
L 3372 0 
L 2619 2869 
L 1863 0 
L 1184 0 
L 269 3500 
z
" transform="scale(0.015625)"/>
      </defs>
      <use xlink:href="#DejaVuSans-50"/>
      <use xlink:href="#DejaVuSans-65" x="56.677734"/>
      <use xlink:href="#DejaVuSans-64" x="118.201172"/>
      <use xlink:href="#DejaVuSans-65" x="181.677734"/>
      <use xlink:href="#DejaVuSans-73" x="243.201172"/>
      <use xlink:href="#DejaVuSans-74" x="295.300781"/>
      <use xlink:href="#DejaVuSans-72" x="334.509766"/>
      <use xlink:href="#DejaVuSans-69" x="375.623047"/>
      <use xlink:href="#DejaVuSans-61" x="403.40625"/>
      <use xlink:href="#DejaVuSans-6e" x="464.685547"/>
      <use xlink:href="#DejaVuSans-20" x="528.064453"/>
      <use xlink:href="#DejaVuSans-66" x="559.851562"/>
      <use xlink:href="#DejaVuSans-6c" x="595.056641"/>
      <use xlink:href="#DejaVuSans-6f" x="622.839844"/>
      <use xlink:href="#DejaVuSans-77" x="684.021484"/>
      <use xlink:href="#DejaVuSans-20" x="765.808594"/>
      <use xlink:href="#DejaVuSans-28" x="797.595703"/>
      <use xlink:href="#DejaVuSans-68" x="836.609375"/>
      <use xlink:href="#DejaVuSans-6f" x="899.988281"/>
      <use xlink:href="#DejaVuSans-75" x="961.169922"/>
      <use xlink:href="#DejaVuSans-72" x="1024.548828"/>
      <use xlink:href="#DejaVuSans-6c" x="1065.662109"/>
      <use xlink:href="#DejaVuSans-79" x="1093.445312"/>
      <use xlink:href="#DejaVuSans-20" x="1152.625"/>
      <use xlink:href="#DejaVuSans-73" x="1184.412109"/>
      <use xlink:href="#DejaVuSans-75" x="1236.511719"/>
      <use xlink:href="#DejaVuSans-6d" x="1299.890625"/>
      <use xlink:href="#DejaVuSans-29" x="1397.302734"/>
     </g>
    </g>
   </g>
   <g id="line2d_31">
    <path d="M 112.646307 382.220376 
L 164.227334 383.207905 
L 215.808362 382.769404 
L 267.38939 383.816243 
L 318.970417 390.097282 
L 370.551445 389.695754 
L 422.132473 384.717566 
L 473.7135 377.92649 
L 525.294528 348.717407 
L 576.875556 336.710768 
L 628.456583 294.625709 
L 680.037611 254.487491 
L 731.618639 193.461446 
L 783.199667 180.686313 
L 834.780694 192.162296 
L 886.361722 190.370456 
L 937.94275 202.02447 
L 989.523777 246.04649 
L 1041.104805 295.133632 
L 1092.685833 337.307376 
L 1144.26686 360.053061 
L 1195.847888 367.958118 
L 1247.428916 368.528524 
L 1299.009943 378.459227 
" clip-path="url(#p346ad607ea)" style="fill: none; stroke: #22335c; stroke-width: 1.5; stroke-linecap: square"/>
   </g>
   <g id="line2d_32">
    <path d="M 112.646307 378.759835 
L 164.227334 379.993866 
L 215.808362 377.266947 
L 267.38939 378.139472 
L 318.970417 389.623531 
L 370.551445 389.662157 
L 422.132473 384.517161 
L 473.7135 376.2159 
L 525.294528 342.709318 
L 576.875556 323.430594 
L 628.456583 276.089227 
L 680.037611 216.685309 
L 731.618639 167.503545 
L 783.199667 140.808216 
L 834.780694 161.302998 
L 886.361722 167.361093 
L 937.94275 184.612987 
L 989.523777 219.248231 
L 1041.104805 282.401106 
L 1092.685833 324.598451 
L 1144.26686 354.02435 
L 1195.847888 362.31068 
L 1247.428916 363.837649 
L 1299.009943 371.520779 
" clip-path="url(#p346ad607ea)" style="fill: none; stroke: #22335c; stroke-width: 1.5; stroke-linecap: square"/>
   </g>
   <g id="line2d_33">
    <path d="M 112.646307 380.259417 
L 164.227334 380.758495 
L 215.808362 379.315037 
L 267.38939 380.408929 
L 318.970417 389.450852 
L 370.551445 388.964544 
L 422.132473 381.149795 
L 473.7135 372.316985 
L 525.294528 342.528556 
L 576.875556 322.822976 
L 628.456583 274.932619 
L 680.037611 218.660968 
L 731.618639 184.112118 
L 783.199667 184.448718 
L 834.780694 189.392906 
L 886.361722 197.670844 
L 937.94275 210.792191 
L 989.523777 243.234168 
L 1041.104805 283.054333 
L 1092.685833 332.491003 
L 1144.26686 356.624371 
L 1195.847888 365.580224 
L 1247.428916 361.737788 
L 1299.009943 372.692758 
" clip-path="url(#p346ad607ea)" style="fill: none; stroke: #1c4a6a; stroke-width: 1.5; stroke-linecap: square"/>
   </g>
   <g id="line2d_34">
    <path d="M 112.646307 387.770376 
L 164.227334 388.243802 
L 215.808362 388.597069 
L 267.38939 390.890387 
L 318.970417 390.931804 
L 370.551445 388.001412 
L 422.132473 385.74773 
L 473.7135 376.295045 
L 525.294528 364.249404 
L 576.875556 347.262753 
L 628.456583 330.728562 
L 680.037611 305.314803 
L 731.618639 305.804466 
L 783.199667 318.120003 
L 834.780694 324.850888 
L 886.361722 324.725923 
L 937.94275 340.001843 
L 989.523777 351.166839 
L 1041.104805 369.548113 
L 1092.685833 379.664014 
L 1144.26686 384.512698 
L 1195.847888 385.405009 
L 1247.428916 385.102315 
L 1299.009943 386.842942 
" clip-path="url(#p346ad607ea)" style="fill: none; stroke: #166178; stroke-width: 1.5; stroke-linecap: square"/>
   </g>
   <g id="line2d_35">
    <path d="M 112.646307 389.139934 
L 164.227334 388.976237 
L 215.808362 389.163685 
L 267.38939 391.369577 
L 318.970417 391.527427 
L 370.551445 390.444082 
L 422.132473 389.1498 
L 473.7135 383.457932 
L 525.294528 379.375021 
L 576.875556 370.027808 
L 628.456583 359.403616 
L 680.037611 350.464735 
L 731.618639 347.542847 
L 783.199667 349.327552 
L 834.780694 353.213683 
L 886.361722 349.741788 
L 937.94275 356.556194 
L 989.523777 366.602505 
L 1041.104805 375.189012 
L 1092.685833 382.013199 
L 1144.26686 383.813785 
L 1195.847888 385.675767 
L 1247.428916 386.732709 
L 1299.009943 389.074163 
" clip-path="url(#p346ad607ea)" style="fill: none; stroke: #107886; stroke-width: 1.5; stroke-linecap: square"/>
   </g>
   <g id="line2d_36">
    <path d="M 112.646307 388.466657 
L 164.227334 387.346422 
L 215.808362 387.523097 
L 267.38939 390.729717 
L 318.970417 391.164325 
L 370.551445 388.404174 
L 422.132473 386.937915 
L 473.7135 377.328091 
L 525.294528 367.076778 
L 576.875556 352.168428 
L 628.456583 333.79021 
L 680.037611 312.404497 
L 731.618639 307.564177 
L 783.199667 311.821326 
L 834.780694 321.035427 
L 886.361722 324.901018 
L 937.94275 334.110954 
L 989.523777 346.919889 
L 1041.104805 364.326968 
L 1092.685833 377.047565 
L 1144.26686 381.243667 
L 1195.847888 382.77426 
L 1247.428916 385.480562 
L 1299.009943 388.324598 
" clip-path="url(#p346ad607ea)" style="fill: none; stroke: #099094; stroke-width: 1.5; stroke-linecap: square"/>
   </g>
   <g id="line2d_37">
    <path d="M 112.646307 388.5782 
L 164.227334 388.563424 
L 215.808362 389.471139 
L 267.38939 390.351965 
L 318.970417 390.009474 
L 370.551445 387.837665 
L 422.132473 384.842809 
L 473.7135 370.747595 
L 525.294528 364.085943 
L 576.875556 337.645992 
L 628.456583 321.759285 
L 680.037611 308.385644 
L 731.618639 303.798559 
L 783.199667 290.593183 
L 834.780694 300.170402 
L 886.361722 298.854102 
L 937.94275 307.787368 
L 989.523777 328.455002 
L 1041.104805 351.039575 
L 1092.685833 371.48805 
L 1144.26686 375.677257 
L 1195.847888 380.375457 
L 1247.428916 380.794983 
L 1299.009943 387.243003 
" clip-path="url(#p346ad607ea)" style="fill: none; stroke: #03a7a2; stroke-width: 1.5; stroke-linecap: square"/>
   </g>
   <g id="line2d_38">
    <path d="M 112.646307 385.858377 
L 164.227334 385.818066 
L 215.808362 386.894379 
L 267.38939 390.23216 
L 318.970417 389.288874 
L 370.551445 383.020458 
L 422.132473 376.445675 
L 473.7135 348.99767 
L 525.294528 342.555915 
L 576.875556 300.80544 
L 628.456583 261.018129 
L 680.037611 220.432653 
L 731.618639 204.130739 
L 783.199667 221.972546 
L 834.780694 247.751661 
L 886.361722 244.841181 
L 937.94275 257.228861 
L 989.523777 296.205914 
L 1041.104805 321.505323 
L 1092.685833 351.372009 
L 1144.26686 364.977093 
L 1195.847888 372.781372 
L 1247.428916 379.021571 
L 1299.009943 384.245923 
" clip-path="url(#p346ad607ea)" style="fill: none; stroke: #17b49e; stroke-width: 1.5; stroke-linecap: square"/>
   </g>
   <g id="line2d_39">
    <path d="M 112.646307 375.378633 
L 164.227334 372.471109 
L 215.808362 377.794627 
L 267.38939 389.324751 
L 318.970417 389.68715 
L 370.551445 382.972353 
L 422.132473 372.945977 
L 473.7135 334.731615 
L 525.294528 341.621364 
L 576.875556 302.290645 
L 628.456583 271.03268 
L 680.037611 244.919116 
L 731.618639 244.898288 
L 783.199667 238.195987 
L 834.780694 240.470354 
L 886.361722 243.052969 
L 937.94275 256.095171 
L 989.523777 301.595006 
L 1041.104805 327.75439 
L 1092.685833 354.713552 
L 1144.26686 367.164253 
L 1195.847888 368.638843 
L 1247.428916 370.255059 
L 1299.009943 377.665497 
" clip-path="url(#p346ad607ea)" style="fill: none; stroke: #44b888; stroke-width: 1.5; stroke-linecap: square"/>
   </g>
   <g id="line2d_40">
    <path d="M 112.646307 375.079853 
L 164.227334 371.637629 
L 215.808362 376.670319 
L 267.38939 388.212561 
L 318.970417 389.553097 
L 370.551445 383.463882 
L 422.132473 375.375225 
L 473.7135 336.170229 
L 525.294528 343.179642 
L 576.875556 295.67014 
L 628.456583 265.212709 
L 680.037611 216.260427 
L 731.618639 227.913433 
L 783.199667 178.509572 
L 834.780694 183.860355 
L 886.361722 198.640332 
L 937.94275 214.965333 
L 989.523777 288.194948 
L 1041.104805 335.289793 
L 1092.685833 361.207578 
L 1144.26686 365.831291 
L 1195.847888 366.293662 
L 1247.428916 369.705212 
L 1299.009943 376.257555 
" clip-path="url(#p346ad607ea)" style="fill: none; stroke: #74bc71; stroke-width: 1.5; stroke-linecap: square"/>
   </g>
   <g id="line2d_41">
    <path d="M 112.646307 373.771581 
L 164.227334 375.39113 
L 215.808362 374.341422 
L 267.38939 377.475549 
L 318.970417 388.962352 
L 370.551445 388.617448 
L 422.132473 381.049555 
L 473.7135 372.641895 
L 525.294528 328.109292 
L 576.875556 308.344169 
L 628.456583 246.052134 
L 680.037611 169.658399 
L 731.618639 67.726774 
L 783.199667 39.89952 
L 834.780694 80.798135 
L 886.361722 86.6715 
L 937.94275 123.896715 
L 989.523777 174.618173 
L 1041.104805 228.579113 
L 1092.685833 291.566387 
L 1144.26686 341.009354 
L 1195.847888 355.053522 
L 1247.428916 350.021269 
L 1299.009943 367.165535 
" clip-path="url(#p346ad607ea)" style="fill: none; stroke: #a2c05b; stroke-width: 1.5; stroke-linecap: square"/>
   </g>
   <g id="line2d_42">
    <path d="M 112.646307 380.874981 
L 164.227334 383.516752 
L 215.808362 383.066934 
L 267.38939 382.508266 
L 318.970417 389.957445 
L 370.551445 389.485354 
L 422.132473 383.677058 
L 473.7135 376.956603 
L 525.294528 339.596464 
L 576.875556 298.573877 
L 628.456583 217.144615 
L 680.037611 146.593499 
L 731.618639 77.196865 
L 783.199667 42.183884 
L 834.780694 72.418772 
L 886.361722 71.168604 
L 937.94275 131.345385 
L 989.523777 186.622043 
L 1041.104805 242.037565 
L 1092.685833 294.175101 
L 1144.26686 342.482502 
L 1195.847888 361.683181 
L 1247.428916 364.045677 
L 1299.009943 374.302081 
" clip-path="url(#p346ad607ea)" style="fill: none; stroke: #cfc445; stroke-width: 1.5; stroke-linecap: square"/>
   </g>
   <g id="patch_3">
    <path d="M 53.328125 409.108823 
L 53.328125 22.318125 
" style="fill: none; stroke: #000000; stroke-width: 0.8; stroke-linejoin: miter; stroke-linecap: square"/>
   </g>
   <g id="patch_4">
    <path d="M 1358.328125 409.108823 
L 1358.328125 22.318125 
" style="fill: none; stroke: #000000; stroke-width: 0.8; stroke-linejoin: miter; stroke-linecap: square"/>
   </g>
   <g id="patch_5">
    <path d="M 53.328125 409.108823 
L 1358.328125 409.108823 
" style="fill: none; stroke: #000000; stroke-width: 0.8; stroke-linejoin: miter; stroke-linecap: square"/>
   </g>
   <g id="patch_6">
    <path d="M 53.328125 22.318125 
L 1358.328125 22.318125 
" style="fill: none; stroke: #000000; stroke-width: 0.8; stroke-linejoin: miter; stroke-linecap: square"/>
   </g>
   <g id="text_33">
    <!-- East -->
    <g transform="translate(692.882187 16.318125) scale(0.12 -0.12)">
     <defs>
      <path id="DejaVuSans-45" d="M 628 4666 
L 3578 4666 
L 3578 4134 
L 1259 4134 
L 1259 2753 
L 3481 2753 
L 3481 2222 
L 1259 2222 
L 1259 531 
L 3634 531 
L 3634 0 
L 628 0 
L 628 4666 
z
" transform="scale(0.015625)"/>
     </defs>
     <use xlink:href="#DejaVuSans-45"/>
     <use xlink:href="#DejaVuSans-61" x="63.183594"/>
     <use xlink:href="#DejaVuSans-73" x="124.462891"/>
     <use xlink:href="#DejaVuSans-74" x="176.5625"/>
    </g>
   </g>
  </g>
  <g id="axes_2">
   <g id="patch_7">
    <path d="M 53.328125 853.918125 
L 1358.328125 853.918125 
L 1358.328125 467.127427 
L 53.328125 467.127427 
z
" style="fill: #ffffff"/>
   </g>
   <g id="matplotlib.axis_3">
    <g id="xtick_25">
     <g id="line2d_43">
      <g>
       <use xlink:href="#m4e1dcb3af9" x="112.646307" y="853.918125" style="stroke: #000000; stroke-width: 0.8"/>
      </g>
     </g>
     <g id="text_34">
      <!-- 0 -->
      <g transform="translate(109.465057 868.516562) scale(0.1 -0.1)">
       <use xlink:href="#DejaVuSans-30"/>
      </g>
     </g>
    </g>
    <g id="xtick_26">
     <g id="line2d_44">
      <g>
       <use xlink:href="#m4e1dcb3af9" x="164.227334" y="853.918125" style="stroke: #000000; stroke-width: 0.8"/>
      </g>
     </g>
     <g id="text_35">
      <!-- 1 -->
      <g transform="translate(161.046084 868.516562) scale(0.1 -0.1)">
       <use xlink:href="#DejaVuSans-31"/>
      </g>
     </g>
    </g>
    <g id="xtick_27">
     <g id="line2d_45">
      <g>
       <use xlink:href="#m4e1dcb3af9" x="215.808362" y="853.918125" style="stroke: #000000; stroke-width: 0.8"/>
      </g>
     </g>
     <g id="text_36">
      <!-- 2 -->
      <g transform="translate(212.627112 868.516562) scale(0.1 -0.1)">
       <use xlink:href="#DejaVuSans-32"/>
      </g>
     </g>
    </g>
    <g id="xtick_28">
     <g id="line2d_46">
      <g>
       <use xlink:href="#m4e1dcb3af9" x="267.38939" y="853.918125" style="stroke: #000000; stroke-width: 0.8"/>
      </g>
     </g>
     <g id="text_37">
      <!-- 3 -->
      <g transform="translate(264.20814 868.516562) scale(0.1 -0.1)">
       <use xlink:href="#DejaVuSans-33"/>
      </g>
     </g>
    </g>
    <g id="xtick_29">
     <g id="line2d_47">
      <g>
       <use xlink:href="#m4e1dcb3af9" x="318.970417" y="853.918125" style="stroke: #000000; stroke-width: 0.8"/>
      </g>
     </g>
     <g id="text_38">
      <!-- 4 -->
      <g transform="translate(315.789167 868.516562) scale(0.1 -0.1)">
       <use xlink:href="#DejaVuSans-34"/>
      </g>
     </g>
    </g>
    <g id="xtick_30">
     <g id="line2d_48">
      <g>
       <use xlink:href="#m4e1dcb3af9" x="370.551445" y="853.918125" style="stroke: #000000; stroke-width: 0.8"/>
      </g>
     </g>
     <g id="text_39">
      <!-- 5 -->
      <g transform="translate(367.370195 868.516562) scale(0.1 -0.1)">
       <use xlink:href="#DejaVuSans-35"/>
      </g>
     </g>
    </g>
    <g id="xtick_31">
     <g id="line2d_49">
      <g>
       <use xlink:href="#m4e1dcb3af9" x="422.132473" y="853.918125" style="stroke: #000000; stroke-width: 0.8"/>
      </g>
     </g>
     <g id="text_40">
      <!-- 6 -->
      <g transform="translate(418.951223 868.516562) scale(0.1 -0.1)">
       <use xlink:href="#DejaVuSans-36"/>
      </g>
     </g>
    </g>
    <g id="xtick_32">
     <g id="line2d_50">
      <g>
       <use xlink:href="#m4e1dcb3af9" x="473.7135" y="853.918125" style="stroke: #000000; stroke-width: 0.8"/>
      </g>
     </g>
     <g id="text_41">
      <!-- 7 -->
      <g transform="translate(470.53225 868.516562) scale(0.1 -0.1)">
       <use xlink:href="#DejaVuSans-37"/>
      </g>
     </g>
    </g>
    <g id="xtick_33">
     <g id="line2d_51">
      <g>
       <use xlink:href="#m4e1dcb3af9" x="525.294528" y="853.918125" style="stroke: #000000; stroke-width: 0.8"/>
      </g>
     </g>
     <g id="text_42">
      <!-- 8 -->
      <g transform="translate(522.113278 868.516562) scale(0.1 -0.1)">
       <use xlink:href="#DejaVuSans-38"/>
      </g>
     </g>
    </g>
    <g id="xtick_34">
     <g id="line2d_52">
      <g>
       <use xlink:href="#m4e1dcb3af9" x="576.875556" y="853.918125" style="stroke: #000000; stroke-width: 0.8"/>
      </g>
     </g>
     <g id="text_43">
      <!-- 9 -->
      <g transform="translate(573.694306 868.516562) scale(0.1 -0.1)">
       <use xlink:href="#DejaVuSans-39"/>
      </g>
     </g>
    </g>
    <g id="xtick_35">
     <g id="line2d_53">
      <g>
       <use xlink:href="#m4e1dcb3af9" x="628.456583" y="853.918125" style="stroke: #000000; stroke-width: 0.8"/>
      </g>
     </g>
     <g id="text_44">
      <!-- 10 -->
      <g transform="translate(622.094083 868.516562) scale(0.1 -0.1)">
       <use xlink:href="#DejaVuSans-31"/>
       <use xlink:href="#DejaVuSans-30" x="63.623047"/>
      </g>
     </g>
    </g>
    <g id="xtick_36">
     <g id="line2d_54">
      <g>
       <use xlink:href="#m4e1dcb3af9" x="680.037611" y="853.918125" style="stroke: #000000; stroke-width: 0.8"/>
      </g>
     </g>
     <g id="text_45">
      <!-- 11 -->
      <g transform="translate(673.675111 868.516562) scale(0.1 -0.1)">
       <use xlink:href="#DejaVuSans-31"/>
       <use xlink:href="#DejaVuSans-31" x="63.623047"/>
      </g>
     </g>
    </g>
    <g id="xtick_37">
     <g id="line2d_55">
      <g>
       <use xlink:href="#m4e1dcb3af9" x="731.618639" y="853.918125" style="stroke: #000000; stroke-width: 0.8"/>
      </g>
     </g>
     <g id="text_46">
      <!-- 12 -->
      <g transform="translate(725.256139 868.516562) scale(0.1 -0.1)">
       <use xlink:href="#DejaVuSans-31"/>
       <use xlink:href="#DejaVuSans-32" x="63.623047"/>
      </g>
     </g>
    </g>
    <g id="xtick_38">
     <g id="line2d_56">
      <g>
       <use xlink:href="#m4e1dcb3af9" x="783.199667" y="853.918125" style="stroke: #000000; stroke-width: 0.8"/>
      </g>
     </g>
     <g id="text_47">
      <!-- 13 -->
      <g transform="translate(776.837167 868.516562) scale(0.1 -0.1)">
       <use xlink:href="#DejaVuSans-31"/>
       <use xlink:href="#DejaVuSans-33" x="63.623047"/>
      </g>
     </g>
    </g>
    <g id="xtick_39">
     <g id="line2d_57">
      <g>
       <use xlink:href="#m4e1dcb3af9" x="834.780694" y="853.918125" style="stroke: #000000; stroke-width: 0.8"/>
      </g>
     </g>
     <g id="text_48">
      <!-- 14 -->
      <g transform="translate(828.418194 868.516562) scale(0.1 -0.1)">
       <use xlink:href="#DejaVuSans-31"/>
       <use xlink:href="#DejaVuSans-34" x="63.623047"/>
      </g>
     </g>
    </g>
    <g id="xtick_40">
     <g id="line2d_58">
      <g>
       <use xlink:href="#m4e1dcb3af9" x="886.361722" y="853.918125" style="stroke: #000000; stroke-width: 0.8"/>
      </g>
     </g>
     <g id="text_49">
      <!-- 15 -->
      <g transform="translate(879.999222 868.516562) scale(0.1 -0.1)">
       <use xlink:href="#DejaVuSans-31"/>
       <use xlink:href="#DejaVuSans-35" x="63.623047"/>
      </g>
     </g>
    </g>
    <g id="xtick_41">
     <g id="line2d_59">
      <g>
       <use xlink:href="#m4e1dcb3af9" x="937.94275" y="853.918125" style="stroke: #000000; stroke-width: 0.8"/>
      </g>
     </g>
     <g id="text_50">
      <!-- 16 -->
      <g transform="translate(931.58025 868.516562) scale(0.1 -0.1)">
       <use xlink:href="#DejaVuSans-31"/>
       <use xlink:href="#DejaVuSans-36" x="63.623047"/>
      </g>
     </g>
    </g>
    <g id="xtick_42">
     <g id="line2d_60">
      <g>
       <use xlink:href="#m4e1dcb3af9" x="989.523777" y="853.918125" style="stroke: #000000; stroke-width: 0.8"/>
      </g>
     </g>
     <g id="text_51">
      <!-- 17 -->
      <g transform="translate(983.161277 868.516562) scale(0.1 -0.1)">
       <use xlink:href="#DejaVuSans-31"/>
       <use xlink:href="#DejaVuSans-37" x="63.623047"/>
      </g>
     </g>
    </g>
    <g id="xtick_43">
     <g id="line2d_61">
      <g>
       <use xlink:href="#m4e1dcb3af9" x="1041.104805" y="853.918125" style="stroke: #000000; stroke-width: 0.8"/>
      </g>
     </g>
     <g id="text_52">
      <!-- 18 -->
      <g transform="translate(1034.742305 868.516562) scale(0.1 -0.1)">
       <use xlink:href="#DejaVuSans-31"/>
       <use xlink:href="#DejaVuSans-38" x="63.623047"/>
      </g>
     </g>
    </g>
    <g id="xtick_44">
     <g id="line2d_62">
      <g>
       <use xlink:href="#m4e1dcb3af9" x="1092.685833" y="853.918125" style="stroke: #000000; stroke-width: 0.8"/>
      </g>
     </g>
     <g id="text_53">
      <!-- 19 -->
      <g transform="translate(1086.323333 868.516562) scale(0.1 -0.1)">
       <use xlink:href="#DejaVuSans-31"/>
       <use xlink:href="#DejaVuSans-39" x="63.623047"/>
      </g>
     </g>
    </g>
    <g id="xtick_45">
     <g id="line2d_63">
      <g>
       <use xlink:href="#m4e1dcb3af9" x="1144.26686" y="853.918125" style="stroke: #000000; stroke-width: 0.8"/>
      </g>
     </g>
     <g id="text_54">
      <!-- 20 -->
      <g transform="translate(1137.90436 868.516562) scale(0.1 -0.1)">
       <use xlink:href="#DejaVuSans-32"/>
       <use xlink:href="#DejaVuSans-30" x="63.623047"/>
      </g>
     </g>
    </g>
    <g id="xtick_46">
     <g id="line2d_64">
      <g>
       <use xlink:href="#m4e1dcb3af9" x="1195.847888" y="853.918125" style="stroke: #000000; stroke-width: 0.8"/>
      </g>
     </g>
     <g id="text_55">
      <!-- 21 -->
      <g transform="translate(1189.485388 868.516562) scale(0.1 -0.1)">
       <use xlink:href="#DejaVuSans-32"/>
       <use xlink:href="#DejaVuSans-31" x="63.623047"/>
      </g>
     </g>
    </g>
    <g id="xtick_47">
     <g id="line2d_65">
      <g>
       <use xlink:href="#m4e1dcb3af9" x="1247.428916" y="853.918125" style="stroke: #000000; stroke-width: 0.8"/>
      </g>
     </g>
     <g id="text_56">
      <!-- 22 -->
      <g transform="translate(1241.066416 868.516562) scale(0.1 -0.1)">
       <use xlink:href="#DejaVuSans-32"/>
       <use xlink:href="#DejaVuSans-32" x="63.623047"/>
      </g>
     </g>
    </g>
    <g id="xtick_48">
     <g id="line2d_66">
      <g>
       <use xlink:href="#m4e1dcb3af9" x="1299.009943" y="853.918125" style="stroke: #000000; stroke-width: 0.8"/>
      </g>
     </g>
     <g id="text_57">
      <!-- 23 -->
      <g transform="translate(1292.647443 868.516562) scale(0.1 -0.1)">
       <use xlink:href="#DejaVuSans-32"/>
       <use xlink:href="#DejaVuSans-33" x="63.623047"/>
      </g>
     </g>
    </g>
    <g id="text_58">
     <!-- Time of day (hour) -->
     <g transform="translate(659.45625 882.194687) scale(0.1 -0.1)">
      <use xlink:href="#DejaVuSans-54"/>
      <use xlink:href="#DejaVuSans-69" x="57.958984"/>
      <use xlink:href="#DejaVuSans-6d" x="85.742188"/>
      <use xlink:href="#DejaVuSans-65" x="183.154297"/>
      <use xlink:href="#DejaVuSans-20" x="244.677734"/>
      <use xlink:href="#DejaVuSans-6f" x="276.464844"/>
      <use xlink:href="#DejaVuSans-66" x="337.646484"/>
      <use xlink:href="#DejaVuSans-20" x="372.851562"/>
      <use xlink:href="#DejaVuSans-64" x="404.638672"/>
      <use xlink:href="#DejaVuSans-61" x="468.115234"/>
      <use xlink:href="#DejaVuSans-79" x="529.394531"/>
      <use xlink:href="#DejaVuSans-20" x="588.574219"/>
      <use xlink:href="#DejaVuSans-28" x="620.361328"/>
      <use xlink:href="#DejaVuSans-68" x="659.375"/>
      <use xlink:href="#DejaVuSans-6f" x="722.753906"/>
      <use xlink:href="#DejaVuSans-75" x="783.935547"/>
      <use xlink:href="#DejaVuSans-72" x="847.314453"/>
      <use xlink:href="#DejaVuSans-29" x="888.427734"/>
     </g>
    </g>
   </g>
   <g id="matplotlib.axis_4">
    <g id="ytick_7">
     <g id="line2d_67">
      <g>
       <use xlink:href="#mc43e190a45" x="53.328125" y="836.931326" style="stroke: #000000; stroke-width: 0.8"/>
      </g>
     </g>
     <g id="text_59">
      <!-- 0 -->
      <g transform="translate(39.965625 840.730544) scale(0.1 -0.1)">
       <use xlink:href="#DejaVuSans-30"/>
      </g>
     </g>
    </g>
    <g id="ytick_8">
     <g id="line2d_68">
      <g>
       <use xlink:href="#mc43e190a45" x="53.328125" y="790.248175" style="stroke: #000000; stroke-width: 0.8"/>
      </g>
     </g>
     <g id="text_60">
      <!-- 500 -->
      <g transform="translate(27.240625 794.047394) scale(0.1 -0.1)">
       <use xlink:href="#DejaVuSans-35"/>
       <use xlink:href="#DejaVuSans-30" x="63.623047"/>
       <use xlink:href="#DejaVuSans-30" x="127.246094"/>
      </g>
     </g>
    </g>
    <g id="ytick_9">
     <g id="line2d_69">
      <g>
       <use xlink:href="#mc43e190a45" x="53.328125" y="743.565025" style="stroke: #000000; stroke-width: 0.8"/>
      </g>
     </g>
     <g id="text_61">
      <!-- 1000 -->
      <g transform="translate(20.878125 747.364243) scale(0.1 -0.1)">
       <use xlink:href="#DejaVuSans-31"/>
       <use xlink:href="#DejaVuSans-30" x="63.623047"/>
       <use xlink:href="#DejaVuSans-30" x="127.246094"/>
       <use xlink:href="#DejaVuSans-30" x="190.869141"/>
      </g>
     </g>
    </g>
    <g id="ytick_10">
     <g id="line2d_70">
      <g>
       <use xlink:href="#mc43e190a45" x="53.328125" y="696.881874" style="stroke: #000000; stroke-width: 0.8"/>
      </g>
     </g>
     <g id="text_62">
      <!-- 1500 -->
      <g transform="translate(20.878125 700.681093) scale(0.1 -0.1)">
       <use xlink:href="#DejaVuSans-31"/>
       <use xlink:href="#DejaVuSans-35" x="63.623047"/>
       <use xlink:href="#DejaVuSans-30" x="127.246094"/>
       <use xlink:href="#DejaVuSans-30" x="190.869141"/>
      </g>
     </g>
    </g>
    <g id="ytick_11">
     <g id="line2d_71">
      <g>
       <use xlink:href="#mc43e190a45" x="53.328125" y="650.198724" style="stroke: #000000; stroke-width: 0.8"/>
      </g>
     </g>
     <g id="text_63">
      <!-- 2000 -->
      <g transform="translate(20.878125 653.997942) scale(0.1 -0.1)">
       <use xlink:href="#DejaVuSans-32"/>
       <use xlink:href="#DejaVuSans-30" x="63.623047"/>
       <use xlink:href="#DejaVuSans-30" x="127.246094"/>
       <use xlink:href="#DejaVuSans-30" x="190.869141"/>
      </g>
     </g>
    </g>
    <g id="ytick_12">
     <g id="line2d_72">
      <g>
       <use xlink:href="#mc43e190a45" x="53.328125" y="603.515573" style="stroke: #000000; stroke-width: 0.8"/>
      </g>
     </g>
     <g id="text_64">
      <!-- 2500 -->
      <g transform="translate(20.878125 607.314792) scale(0.1 -0.1)">
       <use xlink:href="#DejaVuSans-32"/>
       <use xlink:href="#DejaVuSans-35" x="63.623047"/>
       <use xlink:href="#DejaVuSans-30" x="127.246094"/>
       <use xlink:href="#DejaVuSans-30" x="190.869141"/>
      </g>
     </g>
    </g>
    <g id="ytick_13">
     <g id="line2d_73">
      <g>
       <use xlink:href="#mc43e190a45" x="53.328125" y="556.832423" style="stroke: #000000; stroke-width: 0.8"/>
      </g>
     </g>
     <g id="text_65">
      <!-- 3000 -->
      <g transform="translate(20.878125 560.631642) scale(0.1 -0.1)">
       <use xlink:href="#DejaVuSans-33"/>
       <use xlink:href="#DejaVuSans-30" x="63.623047"/>
       <use xlink:href="#DejaVuSans-30" x="127.246094"/>
       <use xlink:href="#DejaVuSans-30" x="190.869141"/>
      </g>
     </g>
    </g>
    <g id="ytick_14">
     <g id="line2d_74">
      <g>
       <use xlink:href="#mc43e190a45" x="53.328125" y="510.149272" style="stroke: #000000; stroke-width: 0.8"/>
      </g>
     </g>
     <g id="text_66">
      <!-- 3500 -->
      <g transform="translate(20.878125 513.948491) scale(0.1 -0.1)">
       <use xlink:href="#DejaVuSans-33"/>
       <use xlink:href="#DejaVuSans-35" x="63.623047"/>
       <use xlink:href="#DejaVuSans-30" x="127.246094"/>
       <use xlink:href="#DejaVuSans-30" x="190.869141"/>
      </g>
     </g>
    </g>
    <g id="text_67">
     <!-- Pedestrian flow (hourly sum) -->
     <g transform="translate(14.798437 732.336839) rotate(-90) scale(0.1 -0.1)">
      <use xlink:href="#DejaVuSans-50"/>
      <use xlink:href="#DejaVuSans-65" x="56.677734"/>
      <use xlink:href="#DejaVuSans-64" x="118.201172"/>
      <use xlink:href="#DejaVuSans-65" x="181.677734"/>
      <use xlink:href="#DejaVuSans-73" x="243.201172"/>
      <use xlink:href="#DejaVuSans-74" x="295.300781"/>
      <use xlink:href="#DejaVuSans-72" x="334.509766"/>
      <use xlink:href="#DejaVuSans-69" x="375.623047"/>
      <use xlink:href="#DejaVuSans-61" x="403.40625"/>
      <use xlink:href="#DejaVuSans-6e" x="464.685547"/>
      <use xlink:href="#DejaVuSans-20" x="528.064453"/>
      <use xlink:href="#DejaVuSans-66" x="559.851562"/>
      <use xlink:href="#DejaVuSans-6c" x="595.056641"/>
      <use xlink:href="#DejaVuSans-6f" x="622.839844"/>
      <use xlink:href="#DejaVuSans-77" x="684.021484"/>
      <use xlink:href="#DejaVuSans-20" x="765.808594"/>
      <use xlink:href="#DejaVuSans-28" x="797.595703"/>
      <use xlink:href="#DejaVuSans-68" x="836.609375"/>
      <use xlink:href="#DejaVuSans-6f" x="899.988281"/>
      <use xlink:href="#DejaVuSans-75" x="961.169922"/>
      <use xlink:href="#DejaVuSans-72" x="1024.548828"/>
      <use xlink:href="#DejaVuSans-6c" x="1065.662109"/>
      <use xlink:href="#DejaVuSans-79" x="1093.445312"/>
      <use xlink:href="#DejaVuSans-20" x="1152.625"/>
      <use xlink:href="#DejaVuSans-73" x="1184.412109"/>
      <use xlink:href="#DejaVuSans-75" x="1236.511719"/>
      <use xlink:href="#DejaVuSans-6d" x="1299.890625"/>
      <use xlink:href="#DejaVuSans-29" x="1397.302734"/>
     </g>
    </g>
   </g>
   <g id="line2d_75">
    <path d="M 112.646307 828.150301 
L 164.227334 831.148639 
L 215.808362 831.48029 
L 267.38939 831.909443 
L 318.970417 835.117804 
L 370.551445 834.482373 
L 422.132473 829.162346 
L 473.7135 817.244811 
L 525.294528 794.934857 
L 576.875556 786.736397 
L 628.456583 743.801452 
L 680.037611 678.562181 
L 731.618639 634.608082 
L 783.199667 632.955039 
L 834.780694 647.519713 
L 886.361722 656.351864 
L 937.94275 664.060608 
L 989.523777 698.862143 
L 1041.104805 741.223338 
L 1092.685833 779.989929 
L 1144.26686 803.411318 
L 1195.847888 812.276598 
L 1247.428916 814.680028 
L 1299.009943 824.394641 
" clip-path="url(#p53a79a104a)" style="fill: none; stroke: #22335c; stroke-width: 1.5; stroke-linecap: square"/>
   </g>
   <g id="line2d_76">
    <path d="M 112.646307 825.888639 
L 164.227334 828.770111 
L 215.808362 827.686333 
L 267.38939 828.878058 
L 318.970417 834.868779 
L 370.551445 834.593773 
L 422.132473 829.473904 
L 473.7135 816.674233 
L 525.294528 788.694899 
L 576.875556 777.799901 
L 628.456583 725.187141 
L 680.037611 662.504056 
L 731.618639 614.190454 
L 783.199667 600.9132 
L 834.780694 622.50945 
L 886.361722 632.510054 
L 937.94275 644.358143 
L 989.523777 675.083485 
L 1041.104805 726.01216 
L 1092.685833 768.460356 
L 1144.26686 794.687318 
L 1195.847888 804.575498 
L 1247.428916 806.476621 
L 1299.009943 817.952503 
" clip-path="url(#p53a79a104a)" style="fill: none; stroke: #22335c; stroke-width: 1.5; stroke-linecap: square"/>
   </g>
   <g id="line2d_77">
    <path d="M 112.646307 826.789411 
L 164.227334 829.245805 
L 215.808362 829.511162 
L 267.38939 830.353096 
L 318.970417 834.452289 
L 370.551445 833.573304 
L 422.132473 825.182996 
L 473.7135 811.176231 
L 525.294528 786.260531 
L 576.875556 770.364265 
L 628.456583 709.481733 
L 680.037611 661.80024 
L 731.618639 632.302512 
L 783.199667 632.07512 
L 834.780694 644.708183 
L 886.361722 654.174321 
L 937.94275 669.873413 
L 989.523777 699.869596 
L 1041.104805 732.642724 
L 1092.685833 776.804984 
L 1144.26686 799.100857 
L 1195.847888 808.026407 
L 1247.428916 806.060312 
L 1299.009943 817.727352 
" clip-path="url(#p53a79a104a)" style="fill: none; stroke: #1c4a6a; stroke-width: 1.5; stroke-linecap: square"/>
   </g>
   <g id="line2d_78">
    <path d="M 112.646307 834.287059 
L 164.227334 834.372397 
L 215.808362 834.444047 
L 267.38939 835.893523 
L 318.970417 835.910521 
L 370.551445 833.187337 
L 422.132473 828.747286 
L 473.7135 820.585998 
L 525.294528 810.341247 
L 576.875556 788.900588 
L 628.456583 768.590306 
L 680.037611 749.664956 
L 731.618639 751.754583 
L 783.199667 761.468818 
L 834.780694 770.161542 
L 886.361722 774.797662 
L 937.94275 789.491586 
L 989.523777 797.490732 
L 1041.104805 815.440404 
L 1092.685833 824.858097 
L 1144.26686 827.623671 
L 1195.847888 825.694024 
L 1247.428916 830.386348 
L 1299.009943 833.508968 
" clip-path="url(#p53a79a104a)" style="fill: none; stroke: #166178; stroke-width: 1.5; stroke-linecap: square"/>
   </g>
   <g id="line2d_79">
    <path d="M 112.646307 834.385865 
L 164.227334 834.356381 
L 215.808362 834.788815 
L 267.38939 836.189887 
L 318.970417 836.33673 
L 370.551445 834.946063 
L 422.132473 832.800978 
L 473.7135 827.866676 
L 525.294528 825.087637 
L 576.875556 814.619999 
L 628.456583 806.409581 
L 680.037611 797.202459 
L 731.618639 793.995705 
L 783.199667 795.208636 
L 834.780694 797.666278 
L 886.361722 798.267673 
L 937.94275 807.256403 
L 989.523777 814.162826 
L 1041.104805 821.525886 
L 1092.685833 828.057792 
L 1144.26686 827.72246 
L 1195.847888 828.24826 
L 1247.428916 831.067033 
L 1299.009943 832.965715 
" clip-path="url(#p53a79a104a)" style="fill: none; stroke: #107886; stroke-width: 1.5; stroke-linecap: square"/>
   </g>
   <g id="line2d_80">
    <path d="M 112.646307 833.548353 
L 164.227334 833.240244 
L 215.808362 832.887599 
L 267.38939 835.984325 
L 318.970417 835.94615 
L 370.551445 833.420753 
L 422.132473 829.340645 
L 473.7135 820.312124 
L 525.294528 813.210061 
L 576.875556 791.082033 
L 628.456583 776.221444 
L 680.037611 758.830415 
L 731.618639 758.48496 
L 783.199667 760.759985 
L 834.780694 766.729204 
L 886.361722 772.085317 
L 937.94275 783.858808 
L 989.523777 795.959081 
L 1041.104805 812.562721 
L 1092.685833 822.881307 
L 1144.26686 826.107059 
L 1195.847888 826.359148 
L 1247.428916 830.112366 
L 1299.009943 832.596017 
" clip-path="url(#p53a79a104a)" style="fill: none; stroke: #099094; stroke-width: 1.5; stroke-linecap: square"/>
   </g>
   <g id="line2d_81">
    <path d="M 112.646307 834.469222 
L 164.227334 835.053996 
L 215.808362 835.430549 
L 267.38939 835.9143 
L 318.970417 834.657189 
L 370.551445 832.417548 
L 422.132473 825.946297 
L 473.7135 815.131904 
L 525.294528 810.455755 
L 576.875556 782.504796 
L 628.456583 764.720021 
L 680.037611 758.148841 
L 731.618639 751.943094 
L 783.199667 743.565025 
L 834.780694 745.497707 
L 886.361722 748.385838 
L 937.94275 757.865128 
L 989.523777 777.893705 
L 1041.104805 799.398073 
L 1092.685833 816.561911 
L 1144.26686 820.914176 
L 1195.847888 818.861612 
L 1247.428916 825.04046 
L 1299.009943 832.379718 
" clip-path="url(#p53a79a104a)" style="fill: none; stroke: #03a7a2; stroke-width: 1.5; stroke-linecap: square"/>
   </g>
   <g id="line2d_82">
    <path d="M 112.646307 832.729842 
L 164.227334 833.136437 
L 215.808362 833.497855 
L 267.38939 835.374217 
L 318.970417 834.196596 
L 370.551445 828.841587 
L 422.132473 816.381704 
L 473.7135 795.286944 
L 525.294528 791.564339 
L 576.875556 748.082749 
L 628.456583 705.655295 
L 680.037611 671.365768 
L 731.618639 657.300586 
L 783.199667 657.378893 
L 834.780694 677.729735 
L 886.361722 700.896625 
L 937.94275 713.609501 
L 989.523777 748.41706 
L 1041.104805 771.966451 
L 1092.685833 797.310884 
L 1144.26686 808.334131 
L 1195.847888 813.481325 
L 1247.428916 824.073882 
L 1299.009943 830.823362 
" clip-path="url(#p53a79a104a)" style="fill: none; stroke: #17b49e; stroke-width: 1.5; stroke-linecap: square"/>
   </g>
   <g id="line2d_83">
    <path d="M 112.646307 826.069713 
L 164.227334 824.84039 
L 215.808362 828.274016 
L 267.38939 834.783901 
L 318.970417 834.33263 
L 370.551445 828.665296 
L 422.132473 812.652975 
L 473.7135 780.556753 
L 525.294528 789.36742 
L 576.875556 748.911801 
L 628.456583 712.744809 
L 680.037611 697.684824 
L 731.618639 693.047631 
L 783.199667 684.787826 
L 834.780694 700.999328 
L 886.361722 702.72038 
L 937.94275 710.933502 
L 989.523777 752.565536 
L 1041.104805 771.039615 
L 1092.685833 790.920412 
L 1144.26686 803.742718 
L 1195.847888 802.712576 
L 1247.428916 812.432008 
L 1299.009943 824.638096 
" clip-path="url(#p53a79a104a)" style="fill: none; stroke: #44b888; stroke-width: 1.5; stroke-linecap: square"/>
   </g>
   <g id="line2d_84">
    <path d="M 112.646307 825.37088 
L 164.227334 823.4017 
L 215.808362 825.37088 
L 267.38939 833.773847 
L 318.970417 834.240679 
L 370.551445 828.536846 
L 422.132473 813.759507 
L 473.7135 789.509733 
L 525.294528 795.196589 
L 576.875556 754.675614 
L 628.456583 712.847512 
L 680.037611 660.710213 
L 731.618639 682.557928 
L 783.199667 646.990318 
L 834.780694 652.923322 
L 886.361722 666.486899 
L 937.94275 684.201033 
L 989.523777 742.427653 
L 1041.104805 770.631915 
L 1092.685833 799.855567 
L 1144.26686 804.514546 
L 1195.847888 808.249198 
L 1247.428916 816.670838 
L 1299.009943 824.243883 
" clip-path="url(#p53a79a104a)" style="fill: none; stroke: #74bc71; stroke-width: 1.5; stroke-linecap: square"/>
   </g>
   <g id="line2d_85">
    <path d="M 112.646307 822.874095 
L 164.227334 825.798328 
L 215.808362 826.982213 
L 267.38939 828.576909 
L 318.970417 834.3096 
L 370.551445 833.719525 
L 422.132473 827.112925 
L 473.7135 811.965177 
L 525.294528 779.018076 
L 576.875556 760.464325 
L 628.456583 685.020619 
L 680.037611 592.22572 
L 731.618639 509.913989 
L 783.199667 484.708823 
L 834.780694 532.531042 
L 886.361722 548.26786 
L 937.94275 559.791416 
L 989.523777 599.662418 
L 1041.104805 654.949632 
L 1092.685833 721.878906 
L 1144.26686 776.641832 
L 1195.847888 791.289568 
L 1247.428916 791.372162 
L 1299.009943 811.70806 
" clip-path="url(#p53a79a104a)" style="fill: none; stroke: #a2c05b; stroke-width: 1.5; stroke-linecap: square"/>
   </g>
   <g id="line2d_86">
    <path d="M 112.646307 827.955829 
L 164.227334 831.106705 
L 215.808362 831.250627 
L 267.38939 831.341679 
L 318.970417 834.99311 
L 370.551445 834.439829 
L 422.132473 828.903654 
L 473.7135 817.010352 
L 525.294528 785.752761 
L 576.875556 743.239091 
L 628.456583 652.976812 
L 680.037611 554.87173 
L 731.618639 515.98891 
L 783.199667 491.27312 
L 834.780694 531.003303 
L 886.361722 539.552475 
L 937.94275 565.37632 
L 989.523777 615.112745 
L 1041.104805 675.671247 
L 1092.685833 733.866812 
L 1144.26686 785.233327 
L 1195.847888 801.331304 
L 1247.428916 808.577363 
L 1299.009943 821.311489 
" clip-path="url(#p53a79a104a)" style="fill: none; stroke: #cfc445; stroke-width: 1.5; stroke-linecap: square"/>
   </g>
   <g id="patch_8">
    <path d="M 53.328125 853.918125 
L 53.328125 467.127427 
" style="fill: none; stroke: #000000; stroke-width: 0.8; stroke-linejoin: miter; stroke-linecap: square"/>
   </g>
   <g id="patch_9">
    <path d="M 1358.328125 853.918125 
L 1358.328125 467.127427 
" style="fill: none; stroke: #000000; stroke-width: 0.8; stroke-linejoin: miter; stroke-linecap: square"/>
   </g>
   <g id="patch_10">
    <path d="M 53.328125 853.918125 
L 1358.328125 853.918125 
" style="fill: none; stroke: #000000; stroke-width: 0.8; stroke-linejoin: miter; stroke-linecap: square"/>
   </g>
   <g id="patch_11">
    <path d="M 53.328125 467.127427 
L 1358.328125 467.127427 
" style="fill: none; stroke: #000000; stroke-width: 0.8; stroke-linejoin: miter; stroke-linecap: square"/>
   </g>
   <g id="text_68">
    <!-- West -->
    <g transform="translate(691.078437 461.127427) scale(0.12 -0.12)">
     <defs>
      <path id="DejaVuSans-57" d="M 213 4666 
L 850 4666 
L 1831 722 
L 2809 4666 
L 3519 4666 
L 4500 722 
L 5478 4666 
L 6119 4666 
L 4947 0 
L 4153 0 
L 3169 4050 
L 2175 0 
L 1381 0 
L 213 4666 
z
" transform="scale(0.015625)"/>
     </defs>
     <use xlink:href="#DejaVuSans-57"/>
     <use xlink:href="#DejaVuSans-65" x="93.001953"/>
     <use xlink:href="#DejaVuSans-73" x="154.525391"/>
     <use xlink:href="#DejaVuSans-74" x="206.625"/>
    </g>
   </g>
  </g>
  <g id="axes_3">
   <g id="patch_12">
    <path d="M 1412.328125 810.718125 
L 1430.328125 810.718125 
L 1430.328125 54.718125 
L 1412.328125 54.718125 
z
" style="fill: #ffffff"/>
   </g>
   <g id="QuadMesh_1">
    <path d="M 1412.328125 810.718125 
L 1430.328125 810.718125 
L 1430.328125 747.718125 
L 1412.328125 747.718125 
L 1412.328125 810.718125 
" clip-path="url(#p699bb315aa)" style="fill: #22335c"/>
    <path d="M 1412.328125 747.718125 
L 1430.328125 747.718125 
L 1430.328125 684.718125 
L 1412.328125 684.718125 
L 1412.328125 747.718125 
" clip-path="url(#p699bb315aa)" style="fill: #1c4a6a"/>
    <path d="M 1412.328125 684.718125 
L 1430.328125 684.718125 
L 1430.328125 621.718125 
L 1412.328125 621.718125 
L 1412.328125 684.718125 
" clip-path="url(#p699bb315aa)" style="fill: #166178"/>
    <path d="M 1412.328125 621.718125 
L 1430.328125 621.718125 
L 1430.328125 558.718125 
L 1412.328125 558.718125 
L 1412.328125 621.718125 
" clip-path="url(#p699bb315aa)" style="fill: #107886"/>
    <path d="M 1412.328125 558.718125 
L 1430.328125 558.718125 
L 1430.328125 495.718125 
L 1412.328125 495.718125 
L 1412.328125 558.718125 
" clip-path="url(#p699bb315aa)" style="fill: #099094"/>
    <path d="M 1412.328125 495.718125 
L 1430.328125 495.718125 
L 1430.328125 432.718125 
L 1412.328125 432.718125 
L 1412.328125 495.718125 
" clip-path="url(#p699bb315aa)" style="fill: #03a7a2"/>
    <path d="M 1412.328125 432.718125 
L 1430.328125 432.718125 
L 1430.328125 369.718125 
L 1412.328125 369.718125 
L 1412.328125 432.718125 
" clip-path="url(#p699bb315aa)" style="fill: #17b49e"/>
    <path d="M 1412.328125 369.718125 
L 1430.328125 369.718125 
L 1430.328125 306.718125 
L 1412.328125 306.718125 
L 1412.328125 369.718125 
" clip-path="url(#p699bb315aa)" style="fill: #44b888"/>
    <path d="M 1412.328125 306.718125 
L 1430.328125 306.718125 
L 1430.328125 243.718125 
L 1412.328125 243.718125 
L 1412.328125 306.718125 
" clip-path="url(#p699bb315aa)" style="fill: #74bc71"/>
    <path d="M 1412.328125 243.718125 
L 1430.328125 243.718125 
L 1430.328125 180.718125 
L 1412.328125 180.718125 
L 1412.328125 243.718125 
" clip-path="url(#p699bb315aa)" style="fill: #a2c05b"/>
    <path d="M 1412.328125 180.718125 
L 1430.328125 180.718125 
L 1430.328125 117.718125 
L 1412.328125 117.718125 
L 1412.328125 180.718125 
" clip-path="url(#p699bb315aa)" style="fill: #cfc445"/>
    <path d="M 1412.328125 117.718125 
L 1430.328125 117.718125 
L 1430.328125 54.718125 
L 1412.328125 54.718125 
L 1412.328125 117.718125 
" clip-path="url(#p699bb315aa)" style="fill: #fdc82f"/>
   </g>
   <g id="matplotlib.axis_5"/>
   <g id="matplotlib.axis_6">
    <g id="ytick_15">
     <g id="line2d_87">
      <defs>
       <path id="mb1c066a447" d="M 0 0 
L 3.5 0 
" style="stroke: #000000; stroke-width: 0.8"/>
      </defs>
      <g>
       <use xlink:href="#mb1c066a447" x="1430.328125" y="810.718125" style="stroke: #000000; stroke-width: 0.8"/>
      </g>
     </g>
     <g id="text_69">
      <!-- Jan -->
      <g transform="translate(1437.328125 814.517344) scale(0.1 -0.1)">
       <defs>
        <path id="DejaVuSans-4a" d="M 628 4666 
L 1259 4666 
L 1259 325 
Q 1259 -519 939 -900 
Q 619 -1281 -91 -1281 
L -331 -1281 
L -331 -750 
L -134 -750 
Q 284 -750 456 -515 
Q 628 -281 628 325 
L 628 4666 
z
" transform="scale(0.015625)"/>
       </defs>
       <use xlink:href="#DejaVuSans-4a"/>
       <use xlink:href="#DejaVuSans-61" x="29.492188"/>
       <use xlink:href="#DejaVuSans-6e" x="90.771484"/>
      </g>
     </g>
    </g>
    <g id="ytick_16">
     <g id="line2d_88">
      <g>
       <use xlink:href="#mb1c066a447" x="1430.328125" y="741.990852" style="stroke: #000000; stroke-width: 0.8"/>
      </g>
     </g>
     <g id="text_70">
      <!-- Feb -->
      <g transform="translate(1437.328125 745.790071) scale(0.1 -0.1)">
       <defs>
        <path id="DejaVuSans-46" d="M 628 4666 
L 3309 4666 
L 3309 4134 
L 1259 4134 
L 1259 2759 
L 3109 2759 
L 3109 2228 
L 1259 2228 
L 1259 0 
L 628 0 
L 628 4666 
z
" transform="scale(0.015625)"/>
        <path id="DejaVuSans-62" d="M 3116 1747 
Q 3116 2381 2855 2742 
Q 2594 3103 2138 3103 
Q 1681 3103 1420 2742 
Q 1159 2381 1159 1747 
Q 1159 1113 1420 752 
Q 1681 391 2138 391 
Q 2594 391 2855 752 
Q 3116 1113 3116 1747 
z
M 1159 2969 
Q 1341 3281 1617 3432 
Q 1894 3584 2278 3584 
Q 2916 3584 3314 3078 
Q 3713 2572 3713 1747 
Q 3713 922 3314 415 
Q 2916 -91 2278 -91 
Q 1894 -91 1617 61 
Q 1341 213 1159 525 
L 1159 0 
L 581 0 
L 581 4863 
L 1159 4863 
L 1159 2969 
z
" transform="scale(0.015625)"/>
       </defs>
       <use xlink:href="#DejaVuSans-46"/>
       <use xlink:href="#DejaVuSans-65" x="52.019531"/>
       <use xlink:href="#DejaVuSans-62" x="113.542969"/>
      </g>
     </g>
    </g>
    <g id="ytick_17">
     <g id="line2d_89">
      <g>
       <use xlink:href="#mb1c066a447" x="1430.328125" y="673.26358" style="stroke: #000000; stroke-width: 0.8"/>
      </g>
     </g>
     <g id="text_71">
      <!-- Mar -->
      <g transform="translate(1437.328125 677.062798) scale(0.1 -0.1)">
       <defs>
        <path id="DejaVuSans-4d" d="M 628 4666 
L 1569 4666 
L 2759 1491 
L 3956 4666 
L 4897 4666 
L 4897 0 
L 4281 0 
L 4281 4097 
L 3078 897 
L 2444 897 
L 1241 4097 
L 1241 0 
L 628 0 
L 628 4666 
z
" transform="scale(0.015625)"/>
       </defs>
       <use xlink:href="#DejaVuSans-4d"/>
       <use xlink:href="#DejaVuSans-61" x="86.279297"/>
       <use xlink:href="#DejaVuSans-72" x="147.558594"/>
      </g>
     </g>
    </g>
    <g id="ytick_18">
     <g id="line2d_90">
      <g>
       <use xlink:href="#mb1c066a447" x="1430.328125" y="604.536307" style="stroke: #000000; stroke-width: 0.8"/>
      </g>
     </g>
     <g id="text_72">
      <!-- Apr -->
      <g transform="translate(1437.328125 608.335526) scale(0.1 -0.1)">
       <defs>
        <path id="DejaVuSans-41" d="M 2188 4044 
L 1331 1722 
L 3047 1722 
L 2188 4044 
z
M 1831 4666 
L 2547 4666 
L 4325 0 
L 3669 0 
L 3244 1197 
L 1141 1197 
L 716 0 
L 50 0 
L 1831 4666 
z
" transform="scale(0.015625)"/>
        <path id="DejaVuSans-70" d="M 1159 525 
L 1159 -1331 
L 581 -1331 
L 581 3500 
L 1159 3500 
L 1159 2969 
Q 1341 3281 1617 3432 
Q 1894 3584 2278 3584 
Q 2916 3584 3314 3078 
Q 3713 2572 3713 1747 
Q 3713 922 3314 415 
Q 2916 -91 2278 -91 
Q 1894 -91 1617 61 
Q 1341 213 1159 525 
z
M 3116 1747 
Q 3116 2381 2855 2742 
Q 2594 3103 2138 3103 
Q 1681 3103 1420 2742 
Q 1159 2381 1159 1747 
Q 1159 1113 1420 752 
Q 1681 391 2138 391 
Q 2594 391 2855 752 
Q 3116 1113 3116 1747 
z
" transform="scale(0.015625)"/>
       </defs>
       <use xlink:href="#DejaVuSans-41"/>
       <use xlink:href="#DejaVuSans-70" x="68.408203"/>
       <use xlink:href="#DejaVuSans-72" x="131.884766"/>
      </g>
     </g>
    </g>
    <g id="ytick_19">
     <g id="line2d_91">
      <g>
       <use xlink:href="#mb1c066a447" x="1430.328125" y="535.809034" style="stroke: #000000; stroke-width: 0.8"/>
      </g>
     </g>
     <g id="text_73">
      <!-- May -->
      <g transform="translate(1437.328125 539.608253) scale(0.1 -0.1)">
       <use xlink:href="#DejaVuSans-4d"/>
       <use xlink:href="#DejaVuSans-61" x="86.279297"/>
       <use xlink:href="#DejaVuSans-79" x="147.558594"/>
      </g>
     </g>
    </g>
    <g id="ytick_20">
     <g id="line2d_92">
      <g>
       <use xlink:href="#mb1c066a447" x="1430.328125" y="467.081761" style="stroke: #000000; stroke-width: 0.8"/>
      </g>
     </g>
     <g id="text_74">
      <!-- Jun -->
      <g transform="translate(1437.328125 470.88098) scale(0.1 -0.1)">
       <use xlink:href="#DejaVuSans-4a"/>
       <use xlink:href="#DejaVuSans-75" x="29.492188"/>
       <use xlink:href="#DejaVuSans-6e" x="92.871094"/>
      </g>
     </g>
    </g>
    <g id="ytick_21">
     <g id="line2d_93">
      <g>
       <use xlink:href="#mb1c066a447" x="1430.328125" y="398.354489" style="stroke: #000000; stroke-width: 0.8"/>
      </g>
     </g>
     <g id="text_75">
      <!-- Jul -->
      <g transform="translate(1437.328125 402.153707) scale(0.1 -0.1)">
       <use xlink:href="#DejaVuSans-4a"/>
       <use xlink:href="#DejaVuSans-75" x="29.492188"/>
       <use xlink:href="#DejaVuSans-6c" x="92.871094"/>
      </g>
     </g>
    </g>
    <g id="ytick_22">
     <g id="line2d_94">
      <g>
       <use xlink:href="#mb1c066a447" x="1430.328125" y="329.627216" style="stroke: #000000; stroke-width: 0.8"/>
      </g>
     </g>
     <g id="text_76">
      <!-- Aug -->
      <g transform="translate(1437.328125 333.426435) scale(0.1 -0.1)">
       <defs>
        <path id="DejaVuSans-67" d="M 2906 1791 
Q 2906 2416 2648 2759 
Q 2391 3103 1925 3103 
Q 1463 3103 1205 2759 
Q 947 2416 947 1791 
Q 947 1169 1205 825 
Q 1463 481 1925 481 
Q 2391 481 2648 825 
Q 2906 1169 2906 1791 
z
M 3481 434 
Q 3481 -459 3084 -895 
Q 2688 -1331 1869 -1331 
Q 1566 -1331 1297 -1286 
Q 1028 -1241 775 -1147 
L 775 -588 
Q 1028 -725 1275 -790 
Q 1522 -856 1778 -856 
Q 2344 -856 2625 -561 
Q 2906 -266 2906 331 
L 2906 616 
Q 2728 306 2450 153 
Q 2172 0 1784 0 
Q 1141 0 747 490 
Q 353 981 353 1791 
Q 353 2603 747 3093 
Q 1141 3584 1784 3584 
Q 2172 3584 2450 3431 
Q 2728 3278 2906 2969 
L 2906 3500 
L 3481 3500 
L 3481 434 
z
" transform="scale(0.015625)"/>
       </defs>
       <use xlink:href="#DejaVuSans-41"/>
       <use xlink:href="#DejaVuSans-75" x="68.408203"/>
       <use xlink:href="#DejaVuSans-67" x="131.787109"/>
      </g>
     </g>
    </g>
    <g id="ytick_23">
     <g id="line2d_95">
      <g>
       <use xlink:href="#mb1c066a447" x="1430.328125" y="260.899943" style="stroke: #000000; stroke-width: 0.8"/>
      </g>
     </g>
     <g id="text_77">
      <!-- Sep -->
      <g transform="translate(1437.328125 264.699162) scale(0.1 -0.1)">
       <defs>
        <path id="DejaVuSans-53" d="M 3425 4513 
L 3425 3897 
Q 3066 4069 2747 4153 
Q 2428 4238 2131 4238 
Q 1616 4238 1336 4038 
Q 1056 3838 1056 3469 
Q 1056 3159 1242 3001 
Q 1428 2844 1947 2747 
L 2328 2669 
Q 3034 2534 3370 2195 
Q 3706 1856 3706 1288 
Q 3706 609 3251 259 
Q 2797 -91 1919 -91 
Q 1588 -91 1214 -16 
Q 841 59 441 206 
L 441 856 
Q 825 641 1194 531 
Q 1563 422 1919 422 
Q 2459 422 2753 634 
Q 3047 847 3047 1241 
Q 3047 1584 2836 1778 
Q 2625 1972 2144 2069 
L 1759 2144 
Q 1053 2284 737 2584 
Q 422 2884 422 3419 
Q 422 4038 858 4394 
Q 1294 4750 2059 4750 
Q 2388 4750 2728 4690 
Q 3069 4631 3425 4513 
z
" transform="scale(0.015625)"/>
       </defs>
       <use xlink:href="#DejaVuSans-53"/>
       <use xlink:href="#DejaVuSans-65" x="63.476562"/>
       <use xlink:href="#DejaVuSans-70" x="125"/>
      </g>
     </g>
    </g>
    <g id="ytick_24">
     <g id="line2d_96">
      <g>
       <use xlink:href="#mb1c066a447" x="1430.328125" y="192.17267" style="stroke: #000000; stroke-width: 0.8"/>
      </g>
     </g>
     <g id="text_78">
      <!-- Oct -->
      <g transform="translate(1437.328125 195.971889) scale(0.1 -0.1)">
       <defs>
        <path id="DejaVuSans-4f" d="M 2522 4238 
Q 1834 4238 1429 3725 
Q 1025 3213 1025 2328 
Q 1025 1447 1429 934 
Q 1834 422 2522 422 
Q 3209 422 3611 934 
Q 4013 1447 4013 2328 
Q 4013 3213 3611 3725 
Q 3209 4238 2522 4238 
z
M 2522 4750 
Q 3503 4750 4090 4092 
Q 4678 3434 4678 2328 
Q 4678 1225 4090 567 
Q 3503 -91 2522 -91 
Q 1538 -91 948 565 
Q 359 1222 359 2328 
Q 359 3434 948 4092 
Q 1538 4750 2522 4750 
z
" transform="scale(0.015625)"/>
        <path id="DejaVuSans-63" d="M 3122 3366 
L 3122 2828 
Q 2878 2963 2633 3030 
Q 2388 3097 2138 3097 
Q 1578 3097 1268 2742 
Q 959 2388 959 1747 
Q 959 1106 1268 751 
Q 1578 397 2138 397 
Q 2388 397 2633 464 
Q 2878 531 3122 666 
L 3122 134 
Q 2881 22 2623 -34 
Q 2366 -91 2075 -91 
Q 1284 -91 818 406 
Q 353 903 353 1747 
Q 353 2603 823 3093 
Q 1294 3584 2113 3584 
Q 2378 3584 2631 3529 
Q 2884 3475 3122 3366 
z
" transform="scale(0.015625)"/>
       </defs>
       <use xlink:href="#DejaVuSans-4f"/>
       <use xlink:href="#DejaVuSans-63" x="78.710938"/>
       <use xlink:href="#DejaVuSans-74" x="133.691406"/>
      </g>
     </g>
    </g>
    <g id="ytick_25">
     <g id="line2d_97">
      <g>
       <use xlink:href="#mb1c066a447" x="1430.328125" y="123.445398" style="stroke: #000000; stroke-width: 0.8"/>
      </g>
     </g>
     <g id="text_79">
      <!-- Nov -->
      <g transform="translate(1437.328125 127.244616) scale(0.1 -0.1)">
       <defs>
        <path id="DejaVuSans-4e" d="M 628 4666 
L 1478 4666 
L 3547 763 
L 3547 4666 
L 4159 4666 
L 4159 0 
L 3309 0 
L 1241 3903 
L 1241 0 
L 628 0 
L 628 4666 
z
" transform="scale(0.015625)"/>
        <path id="DejaVuSans-76" d="M 191 3500 
L 800 3500 
L 1894 563 
L 2988 3500 
L 3597 3500 
L 2284 0 
L 1503 0 
L 191 3500 
z
" transform="scale(0.015625)"/>
       </defs>
       <use xlink:href="#DejaVuSans-4e"/>
       <use xlink:href="#DejaVuSans-6f" x="74.804688"/>
       <use xlink:href="#DejaVuSans-76" x="135.986328"/>
      </g>
     </g>
    </g>
    <g id="ytick_26">
     <g id="line2d_98">
      <g>
       <use xlink:href="#mb1c066a447" x="1430.328125" y="54.718125" style="stroke: #000000; stroke-width: 0.8"/>
      </g>
     </g>
     <g id="text_80">
      <!-- Dec -->
      <g transform="translate(1437.328125 58.517344) scale(0.1 -0.1)">
       <defs>
        <path id="DejaVuSans-44" d="M 1259 4147 
L 1259 519 
L 2022 519 
Q 2988 519 3436 956 
Q 3884 1394 3884 2338 
Q 3884 3275 3436 3711 
Q 2988 4147 2022 4147 
L 1259 4147 
z
M 628 4666 
L 1925 4666 
Q 3281 4666 3915 4102 
Q 4550 3538 4550 2338 
Q 4550 1131 3912 565 
Q 3275 0 1925 0 
L 628 0 
L 628 4666 
z
" transform="scale(0.015625)"/>
       </defs>
       <use xlink:href="#DejaVuSans-44"/>
       <use xlink:href="#DejaVuSans-65" x="77.001953"/>
       <use xlink:href="#DejaVuSans-63" x="138.525391"/>
      </g>
     </g>
    </g>
    <g id="text_81">
     <!-- Month -->
     <g transform="translate(1469.601562 448.389219) rotate(-90) scale(0.1 -0.1)">
      <use xlink:href="#DejaVuSans-4d"/>
      <use xlink:href="#DejaVuSans-6f" x="86.279297"/>
      <use xlink:href="#DejaVuSans-6e" x="147.460938"/>
      <use xlink:href="#DejaVuSans-74" x="210.839844"/>
      <use xlink:href="#DejaVuSans-68" x="250.048828"/>
     </g>
    </g>
   </g>
   <g id="LineCollection_1"/>
   <g id="patch_13">
    <path d="M 1412.328125 810.718125 
L 1421.328125 810.718125 
L 1430.328125 810.718125 
L 1430.328125 54.718125 
L 1421.328125 54.718125 
L 1412.328125 54.718125 
L 1412.328125 810.718125 
z
" style="fill: none; stroke: #000000; stroke-width: 0.8; stroke-linejoin: miter; stroke-linecap: square"/>
   </g>
  </g>
 </g>
 <defs>
  <clipPath id="p346ad607ea">
   <rect x="53.328125" y="22.318125" width="1305" height="386.790698"/>
  </clipPath>
  <clipPath id="p53a79a104a">
   <rect x="53.328125" y="467.127427" width="1305" height="386.790698"/>
  </clipPath>
  <clipPath id="p699bb315aa">
   <rect x="1412.328125" y="54.718125" width="18" height="756"/>
  </clipPath>
 </defs>
</svg>
