<?xml version="1.0" encoding="utf-8" standalone="no"?>
<!DOCTYPE svg PUBLIC "-//W3C//DTD SVG 1.1//EN"
  "http://www.w3.org/Graphics/SVG/1.1/DTD/svg11.dtd">
<svg xmlns:xlink="http://www.w3.org/1999/xlink" width="1522.04125pt" height="943.905625pt" viewBox="0 0 1522.04125 943.905625" xmlns="http://www.w3.org/2000/svg" version="1.1">
 <metadata>
  <rdf:RDF xmlns:dc="http://purl.org/dc/elements/1.1/" xmlns:cc="http://creativecommons.org/ns#" xmlns:rdf="http://www.w3.org/1999/02/22-rdf-syntax-ns#">
   <cc:Work>
    <dc:type rdf:resource="http://purl.org/dc/dcmitype/StillImage"/>
    <dc:date>2023-08-07T10:54:00.045801</dc:date>
    <dc:format>image/svg+xml</dc:format>
    <dc:creator>
     <cc:Agent>
      <dc:title>Matplotlib v3.7.1, https://matplotlib.org/</dc:title>
     </cc:Agent>
    </dc:creator>
   </cc:Work>
  </rdf:RDF>
 </metadata>
 <defs>
  <style type="text/css">*{stroke-linejoin: round; stroke-linecap: butt}</style>
 </defs>
 <g id="figure_1">
  <g id="patch_1">
   <path d="M 0 943.905625 
L 1522.04125 943.905625 
L 1522.04125 0 
L 0 0 
z
" style="fill: #ffffff"/>
  </g>
  <g id="axes_1">
   <g id="patch_2">
    <path d="M 76.340625 439.2 
L 1381.340625 439.2 
L 1381.340625 61.2 
L 76.340625 61.2 
z
" style="fill: #ffffff"/>
   </g>
   <g id="matplotlib.axis_1">
    <g id="xtick_1">
     <g id="line2d_1">
      <path d="M 135.658807 439.2 
L 135.658807 61.2 
" clip-path="url(#p9837eda5b7)" style="fill: none; stroke: #b0b0b0; stroke-width: 0.8; stroke-linecap: square"/>
     </g>
     <g id="line2d_2">
      <defs>
       <path id="m5c97b0923d" d="M 0 0 
L 0 3.5 
" style="stroke: #000000; stroke-width: 0.8"/>
      </defs>
      <g>
       <use xlink:href="#m5c97b0923d" x="135.658807" y="439.2" style="stroke: #000000; stroke-width: 0.8"/>
      </g>
     </g>
     <g id="text_1">
      <!-- 0 -->
      <g transform="translate(130.568807 458.3575) scale(0.16 -0.16)">
       <defs>
        <path id="DejaVuSans-30" d="M 2034 4250 
Q 1547 4250 1301 3770 
Q 1056 3291 1056 2328 
Q 1056 1369 1301 889 
Q 1547 409 2034 409 
Q 2525 409 2770 889 
Q 3016 1369 3016 2328 
Q 3016 3291 2770 3770 
Q 2525 4250 2034 4250 
z
M 2034 4750 
Q 2819 4750 3233 4129 
Q 3647 3509 3647 2328 
Q 3647 1150 3233 529 
Q 2819 -91 2034 -91 
Q 1250 -91 836 529 
Q 422 1150 422 2328 
Q 422 3509 836 4129 
Q 1250 4750 2034 4750 
z
" transform="scale(0.015625)"/>
       </defs>
       <use xlink:href="#DejaVuSans-30"/>
      </g>
     </g>
    </g>
    <g id="xtick_2">
     <g id="line2d_3">
      <path d="M 187.239834 439.2 
L 187.239834 61.2 
" clip-path="url(#p9837eda5b7)" style="fill: none; stroke: #b0b0b0; stroke-width: 0.8; stroke-linecap: square"/>
     </g>
     <g id="line2d_4">
      <g>
       <use xlink:href="#m5c97b0923d" x="187.239834" y="439.2" style="stroke: #000000; stroke-width: 0.8"/>
      </g>
     </g>
     <g id="text_2">
      <!-- 1 -->
      <g transform="translate(182.149834 458.3575) scale(0.16 -0.16)">
       <defs>
        <path id="DejaVuSans-31" d="M 794 531 
L 1825 531 
L 1825 4091 
L 703 3866 
L 703 4441 
L 1819 4666 
L 2450 4666 
L 2450 531 
L 3481 531 
L 3481 0 
L 794 0 
L 794 531 
z
" transform="scale(0.015625)"/>
       </defs>
       <use xlink:href="#DejaVuSans-31"/>
      </g>
     </g>
    </g>
    <g id="xtick_3">
     <g id="line2d_5">
      <path d="M 238.820862 439.2 
L 238.820862 61.2 
" clip-path="url(#p9837eda5b7)" style="fill: none; stroke: #b0b0b0; stroke-width: 0.8; stroke-linecap: square"/>
     </g>
     <g id="line2d_6">
      <g>
       <use xlink:href="#m5c97b0923d" x="238.820862" y="439.2" style="stroke: #000000; stroke-width: 0.8"/>
      </g>
     </g>
     <g id="text_3">
      <!-- 2 -->
      <g transform="translate(233.730862 458.3575) scale(0.16 -0.16)">
       <defs>
        <path id="DejaVuSans-32" d="M 1228 531 
L 3431 531 
L 3431 0 
L 469 0 
L 469 531 
Q 828 903 1448 1529 
Q 2069 2156 2228 2338 
Q 2531 2678 2651 2914 
Q 2772 3150 2772 3378 
Q 2772 3750 2511 3984 
Q 2250 4219 1831 4219 
Q 1534 4219 1204 4116 
Q 875 4013 500 3803 
L 500 4441 
Q 881 4594 1212 4672 
Q 1544 4750 1819 4750 
Q 2544 4750 2975 4387 
Q 3406 4025 3406 3419 
Q 3406 3131 3298 2873 
Q 3191 2616 2906 2266 
Q 2828 2175 2409 1742 
Q 1991 1309 1228 531 
z
" transform="scale(0.015625)"/>
       </defs>
       <use xlink:href="#DejaVuSans-32"/>
      </g>
     </g>
    </g>
    <g id="xtick_4">
     <g id="line2d_7">
      <path d="M 290.40189 439.2 
L 290.40189 61.2 
" clip-path="url(#p9837eda5b7)" style="fill: none; stroke: #b0b0b0; stroke-width: 0.8; stroke-linecap: square"/>
     </g>
     <g id="line2d_8">
      <g>
       <use xlink:href="#m5c97b0923d" x="290.40189" y="439.2" style="stroke: #000000; stroke-width: 0.8"/>
      </g>
     </g>
     <g id="text_4">
      <!-- 3 -->
      <g transform="translate(285.31189 458.3575) scale(0.16 -0.16)">
       <defs>
        <path id="DejaVuSans-33" d="M 2597 2516 
Q 3050 2419 3304 2112 
Q 3559 1806 3559 1356 
Q 3559 666 3084 287 
Q 2609 -91 1734 -91 
Q 1441 -91 1130 -33 
Q 819 25 488 141 
L 488 750 
Q 750 597 1062 519 
Q 1375 441 1716 441 
Q 2309 441 2620 675 
Q 2931 909 2931 1356 
Q 2931 1769 2642 2001 
Q 2353 2234 1838 2234 
L 1294 2234 
L 1294 2753 
L 1863 2753 
Q 2328 2753 2575 2939 
Q 2822 3125 2822 3475 
Q 2822 3834 2567 4026 
Q 2313 4219 1838 4219 
Q 1578 4219 1281 4162 
Q 984 4106 628 3988 
L 628 4550 
Q 988 4650 1302 4700 
Q 1616 4750 1894 4750 
Q 2613 4750 3031 4423 
Q 3450 4097 3450 3541 
Q 3450 3153 3228 2886 
Q 3006 2619 2597 2516 
z
" transform="scale(0.015625)"/>
       </defs>
       <use xlink:href="#DejaVuSans-33"/>
      </g>
     </g>
    </g>
    <g id="xtick_5">
     <g id="line2d_9">
      <path d="M 341.982917 439.2 
L 341.982917 61.2 
" clip-path="url(#p9837eda5b7)" style="fill: none; stroke: #b0b0b0; stroke-width: 0.8; stroke-linecap: square"/>
     </g>
     <g id="line2d_10">
      <g>
       <use xlink:href="#m5c97b0923d" x="341.982917" y="439.2" style="stroke: #000000; stroke-width: 0.8"/>
      </g>
     </g>
     <g id="text_5">
      <!-- 4 -->
      <g transform="translate(336.892917 458.3575) scale(0.16 -0.16)">
       <defs>
        <path id="DejaVuSans-34" d="M 2419 4116 
L 825 1625 
L 2419 1625 
L 2419 4116 
z
M 2253 4666 
L 3047 4666 
L 3047 1625 
L 3713 1625 
L 3713 1100 
L 3047 1100 
L 3047 0 
L 2419 0 
L 2419 1100 
L 313 1100 
L 313 1709 
L 2253 4666 
z
" transform="scale(0.015625)"/>
       </defs>
       <use xlink:href="#DejaVuSans-34"/>
      </g>
     </g>
    </g>
    <g id="xtick_6">
     <g id="line2d_11">
      <path d="M 393.563945 439.2 
L 393.563945 61.2 
" clip-path="url(#p9837eda5b7)" style="fill: none; stroke: #b0b0b0; stroke-width: 0.8; stroke-linecap: square"/>
     </g>
     <g id="line2d_12">
      <g>
       <use xlink:href="#m5c97b0923d" x="393.563945" y="439.2" style="stroke: #000000; stroke-width: 0.8"/>
      </g>
     </g>
     <g id="text_6">
      <!-- 5 -->
      <g transform="translate(388.473945 458.3575) scale(0.16 -0.16)">
       <defs>
        <path id="DejaVuSans-35" d="M 691 4666 
L 3169 4666 
L 3169 4134 
L 1269 4134 
L 1269 2991 
Q 1406 3038 1543 3061 
Q 1681 3084 1819 3084 
Q 2600 3084 3056 2656 
Q 3513 2228 3513 1497 
Q 3513 744 3044 326 
Q 2575 -91 1722 -91 
Q 1428 -91 1123 -41 
Q 819 9 494 109 
L 494 744 
Q 775 591 1075 516 
Q 1375 441 1709 441 
Q 2250 441 2565 725 
Q 2881 1009 2881 1497 
Q 2881 1984 2565 2268 
Q 2250 2553 1709 2553 
Q 1456 2553 1204 2497 
Q 953 2441 691 2322 
L 691 4666 
z
" transform="scale(0.015625)"/>
       </defs>
       <use xlink:href="#DejaVuSans-35"/>
      </g>
     </g>
    </g>
    <g id="xtick_7">
     <g id="line2d_13">
      <path d="M 445.144973 439.2 
L 445.144973 61.2 
" clip-path="url(#p9837eda5b7)" style="fill: none; stroke: #b0b0b0; stroke-width: 0.8; stroke-linecap: square"/>
     </g>
     <g id="line2d_14">
      <g>
       <use xlink:href="#m5c97b0923d" x="445.144973" y="439.2" style="stroke: #000000; stroke-width: 0.8"/>
      </g>
     </g>
     <g id="text_7">
      <!-- 6 -->
      <g transform="translate(440.054973 458.3575) scale(0.16 -0.16)">
       <defs>
        <path id="DejaVuSans-36" d="M 2113 2584 
Q 1688 2584 1439 2293 
Q 1191 2003 1191 1497 
Q 1191 994 1439 701 
Q 1688 409 2113 409 
Q 2538 409 2786 701 
Q 3034 994 3034 1497 
Q 3034 2003 2786 2293 
Q 2538 2584 2113 2584 
z
M 3366 4563 
L 3366 3988 
Q 3128 4100 2886 4159 
Q 2644 4219 2406 4219 
Q 1781 4219 1451 3797 
Q 1122 3375 1075 2522 
Q 1259 2794 1537 2939 
Q 1816 3084 2150 3084 
Q 2853 3084 3261 2657 
Q 3669 2231 3669 1497 
Q 3669 778 3244 343 
Q 2819 -91 2113 -91 
Q 1303 -91 875 529 
Q 447 1150 447 2328 
Q 447 3434 972 4092 
Q 1497 4750 2381 4750 
Q 2619 4750 2861 4703 
Q 3103 4656 3366 4563 
z
" transform="scale(0.015625)"/>
       </defs>
       <use xlink:href="#DejaVuSans-36"/>
      </g>
     </g>
    </g>
    <g id="xtick_8">
     <g id="line2d_15">
      <path d="M 496.726 439.2 
L 496.726 61.2 
" clip-path="url(#p9837eda5b7)" style="fill: none; stroke: #b0b0b0; stroke-width: 0.8; stroke-linecap: square"/>
     </g>
     <g id="line2d_16">
      <g>
       <use xlink:href="#m5c97b0923d" x="496.726" y="439.2" style="stroke: #000000; stroke-width: 0.8"/>
      </g>
     </g>
     <g id="text_8">
      <!-- 7 -->
      <g transform="translate(491.636 458.3575) scale(0.16 -0.16)">
       <defs>
        <path id="DejaVuSans-37" d="M 525 4666 
L 3525 4666 
L 3525 4397 
L 1831 0 
L 1172 0 
L 2766 4134 
L 525 4134 
L 525 4666 
z
" transform="scale(0.015625)"/>
       </defs>
       <use xlink:href="#DejaVuSans-37"/>
      </g>
     </g>
    </g>
    <g id="xtick_9">
     <g id="line2d_17">
      <path d="M 548.307028 439.2 
L 548.307028 61.2 
" clip-path="url(#p9837eda5b7)" style="fill: none; stroke: #b0b0b0; stroke-width: 0.8; stroke-linecap: square"/>
     </g>
     <g id="line2d_18">
      <g>
       <use xlink:href="#m5c97b0923d" x="548.307028" y="439.2" style="stroke: #000000; stroke-width: 0.8"/>
      </g>
     </g>
     <g id="text_9">
      <!-- 8 -->
      <g transform="translate(543.217028 458.3575) scale(0.16 -0.16)">
       <defs>
        <path id="DejaVuSans-38" d="M 2034 2216 
Q 1584 2216 1326 1975 
Q 1069 1734 1069 1313 
Q 1069 891 1326 650 
Q 1584 409 2034 409 
Q 2484 409 2743 651 
Q 3003 894 3003 1313 
Q 3003 1734 2745 1975 
Q 2488 2216 2034 2216 
z
M 1403 2484 
Q 997 2584 770 2862 
Q 544 3141 544 3541 
Q 544 4100 942 4425 
Q 1341 4750 2034 4750 
Q 2731 4750 3128 4425 
Q 3525 4100 3525 3541 
Q 3525 3141 3298 2862 
Q 3072 2584 2669 2484 
Q 3125 2378 3379 2068 
Q 3634 1759 3634 1313 
Q 3634 634 3220 271 
Q 2806 -91 2034 -91 
Q 1263 -91 848 271 
Q 434 634 434 1313 
Q 434 1759 690 2068 
Q 947 2378 1403 2484 
z
M 1172 3481 
Q 1172 3119 1398 2916 
Q 1625 2713 2034 2713 
Q 2441 2713 2670 2916 
Q 2900 3119 2900 3481 
Q 2900 3844 2670 4047 
Q 2441 4250 2034 4250 
Q 1625 4250 1398 4047 
Q 1172 3844 1172 3481 
z
" transform="scale(0.015625)"/>
       </defs>
       <use xlink:href="#DejaVuSans-38"/>
      </g>
     </g>
    </g>
    <g id="xtick_10">
     <g id="line2d_19">
      <path d="M 599.888056 439.2 
L 599.888056 61.2 
" clip-path="url(#p9837eda5b7)" style="fill: none; stroke: #b0b0b0; stroke-width: 0.8; stroke-linecap: square"/>
     </g>
     <g id="line2d_20">
      <g>
       <use xlink:href="#m5c97b0923d" x="599.888056" y="439.2" style="stroke: #000000; stroke-width: 0.8"/>
      </g>
     </g>
     <g id="text_10">
      <!-- 9 -->
      <g transform="translate(594.798056 458.3575) scale(0.16 -0.16)">
       <defs>
        <path id="DejaVuSans-39" d="M 703 97 
L 703 672 
Q 941 559 1184 500 
Q 1428 441 1663 441 
Q 2288 441 2617 861 
Q 2947 1281 2994 2138 
Q 2813 1869 2534 1725 
Q 2256 1581 1919 1581 
Q 1219 1581 811 2004 
Q 403 2428 403 3163 
Q 403 3881 828 4315 
Q 1253 4750 1959 4750 
Q 2769 4750 3195 4129 
Q 3622 3509 3622 2328 
Q 3622 1225 3098 567 
Q 2575 -91 1691 -91 
Q 1453 -91 1209 -44 
Q 966 3 703 97 
z
M 1959 2075 
Q 2384 2075 2632 2365 
Q 2881 2656 2881 3163 
Q 2881 3666 2632 3958 
Q 2384 4250 1959 4250 
Q 1534 4250 1286 3958 
Q 1038 3666 1038 3163 
Q 1038 2656 1286 2365 
Q 1534 2075 1959 2075 
z
" transform="scale(0.015625)"/>
       </defs>
       <use xlink:href="#DejaVuSans-39"/>
      </g>
     </g>
    </g>
    <g id="xtick_11">
     <g id="line2d_21">
      <path d="M 651.469083 439.2 
L 651.469083 61.2 
" clip-path="url(#p9837eda5b7)" style="fill: none; stroke: #b0b0b0; stroke-width: 0.8; stroke-linecap: square"/>
     </g>
     <g id="line2d_22">
      <g>
       <use xlink:href="#m5c97b0923d" x="651.469083" y="439.2" style="stroke: #000000; stroke-width: 0.8"/>
      </g>
     </g>
     <g id="text_11">
      <!-- 10 -->
      <g transform="translate(641.289083 458.3575) scale(0.16 -0.16)">
       <use xlink:href="#DejaVuSans-31"/>
       <use xlink:href="#DejaVuSans-30" x="63.623047"/>
      </g>
     </g>
    </g>
    <g id="xtick_12">
     <g id="line2d_23">
      <path d="M 703.050111 439.2 
L 703.050111 61.2 
" clip-path="url(#p9837eda5b7)" style="fill: none; stroke: #b0b0b0; stroke-width: 0.8; stroke-linecap: square"/>
     </g>
     <g id="line2d_24">
      <g>
       <use xlink:href="#m5c97b0923d" x="703.050111" y="439.2" style="stroke: #000000; stroke-width: 0.8"/>
      </g>
     </g>
     <g id="text_12">
      <!-- 11 -->
      <g transform="translate(692.870111 458.3575) scale(0.16 -0.16)">
       <use xlink:href="#DejaVuSans-31"/>
       <use xlink:href="#DejaVuSans-31" x="63.623047"/>
      </g>
     </g>
    </g>
    <g id="xtick_13">
     <g id="line2d_25">
      <path d="M 754.631139 439.2 
L 754.631139 61.2 
" clip-path="url(#p9837eda5b7)" style="fill: none; stroke: #b0b0b0; stroke-width: 0.8; stroke-linecap: square"/>
     </g>
     <g id="line2d_26">
      <g>
       <use xlink:href="#m5c97b0923d" x="754.631139" y="439.2" style="stroke: #000000; stroke-width: 0.8"/>
      </g>
     </g>
     <g id="text_13">
      <!-- 12 -->
      <g transform="translate(744.451139 458.3575) scale(0.16 -0.16)">
       <use xlink:href="#DejaVuSans-31"/>
       <use xlink:href="#DejaVuSans-32" x="63.623047"/>
      </g>
     </g>
    </g>
    <g id="xtick_14">
     <g id="line2d_27">
      <path d="M 806.212167 439.2 
L 806.212167 61.2 
" clip-path="url(#p9837eda5b7)" style="fill: none; stroke: #b0b0b0; stroke-width: 0.8; stroke-linecap: square"/>
     </g>
     <g id="line2d_28">
      <g>
       <use xlink:href="#m5c97b0923d" x="806.212167" y="439.2" style="stroke: #000000; stroke-width: 0.8"/>
      </g>
     </g>
     <g id="text_14">
      <!-- 13 -->
      <g transform="translate(796.032167 458.3575) scale(0.16 -0.16)">
       <use xlink:href="#DejaVuSans-31"/>
       <use xlink:href="#DejaVuSans-33" x="63.623047"/>
      </g>
     </g>
    </g>
    <g id="xtick_15">
     <g id="line2d_29">
      <path d="M 857.793194 439.2 
L 857.793194 61.2 
" clip-path="url(#p9837eda5b7)" style="fill: none; stroke: #b0b0b0; stroke-width: 0.8; stroke-linecap: square"/>
     </g>
     <g id="line2d_30">
      <g>
       <use xlink:href="#m5c97b0923d" x="857.793194" y="439.2" style="stroke: #000000; stroke-width: 0.8"/>
      </g>
     </g>
     <g id="text_15">
      <!-- 14 -->
      <g transform="translate(847.613194 458.3575) scale(0.16 -0.16)">
       <use xlink:href="#DejaVuSans-31"/>
       <use xlink:href="#DejaVuSans-34" x="63.623047"/>
      </g>
     </g>
    </g>
    <g id="xtick_16">
     <g id="line2d_31">
      <path d="M 909.374222 439.2 
L 909.374222 61.2 
" clip-path="url(#p9837eda5b7)" style="fill: none; stroke: #b0b0b0; stroke-width: 0.8; stroke-linecap: square"/>
     </g>
     <g id="line2d_32">
      <g>
       <use xlink:href="#m5c97b0923d" x="909.374222" y="439.2" style="stroke: #000000; stroke-width: 0.8"/>
      </g>
     </g>
     <g id="text_16">
      <!-- 15 -->
      <g transform="translate(899.194222 458.3575) scale(0.16 -0.16)">
       <use xlink:href="#DejaVuSans-31"/>
       <use xlink:href="#DejaVuSans-35" x="63.623047"/>
      </g>
     </g>
    </g>
    <g id="xtick_17">
     <g id="line2d_33">
      <path d="M 960.95525 439.2 
L 960.95525 61.2 
" clip-path="url(#p9837eda5b7)" style="fill: none; stroke: #b0b0b0; stroke-width: 0.8; stroke-linecap: square"/>
     </g>
     <g id="line2d_34">
      <g>
       <use xlink:href="#m5c97b0923d" x="960.95525" y="439.2" style="stroke: #000000; stroke-width: 0.8"/>
      </g>
     </g>
     <g id="text_17">
      <!-- 16 -->
      <g transform="translate(950.77525 458.3575) scale(0.16 -0.16)">
       <use xlink:href="#DejaVuSans-31"/>
       <use xlink:href="#DejaVuSans-36" x="63.623047"/>
      </g>
     </g>
    </g>
    <g id="xtick_18">
     <g id="line2d_35">
      <path d="M 1012.536277 439.2 
L 1012.536277 61.2 
" clip-path="url(#p9837eda5b7)" style="fill: none; stroke: #b0b0b0; stroke-width: 0.8; stroke-linecap: square"/>
     </g>
     <g id="line2d_36">
      <g>
       <use xlink:href="#m5c97b0923d" x="1012.536277" y="439.2" style="stroke: #000000; stroke-width: 0.8"/>
      </g>
     </g>
     <g id="text_18">
      <!-- 17 -->
      <g transform="translate(1002.356277 458.3575) scale(0.16 -0.16)">
       <use xlink:href="#DejaVuSans-31"/>
       <use xlink:href="#DejaVuSans-37" x="63.623047"/>
      </g>
     </g>
    </g>
    <g id="xtick_19">
     <g id="line2d_37">
      <path d="M 1064.117305 439.2 
L 1064.117305 61.2 
" clip-path="url(#p9837eda5b7)" style="fill: none; stroke: #b0b0b0; stroke-width: 0.8; stroke-linecap: square"/>
     </g>
     <g id="line2d_38">
      <g>
       <use xlink:href="#m5c97b0923d" x="1064.117305" y="439.2" style="stroke: #000000; stroke-width: 0.8"/>
      </g>
     </g>
     <g id="text_19">
      <!-- 18 -->
      <g transform="translate(1053.937305 458.3575) scale(0.16 -0.16)">
       <use xlink:href="#DejaVuSans-31"/>
       <use xlink:href="#DejaVuSans-38" x="63.623047"/>
      </g>
     </g>
    </g>
    <g id="xtick_20">
     <g id="line2d_39">
      <path d="M 1115.698333 439.2 
L 1115.698333 61.2 
" clip-path="url(#p9837eda5b7)" style="fill: none; stroke: #b0b0b0; stroke-width: 0.8; stroke-linecap: square"/>
     </g>
     <g id="line2d_40">
      <g>
       <use xlink:href="#m5c97b0923d" x="1115.698333" y="439.2" style="stroke: #000000; stroke-width: 0.8"/>
      </g>
     </g>
     <g id="text_20">
      <!-- 19 -->
      <g transform="translate(1105.518333 458.3575) scale(0.16 -0.16)">
       <use xlink:href="#DejaVuSans-31"/>
       <use xlink:href="#DejaVuSans-39" x="63.623047"/>
      </g>
     </g>
    </g>
    <g id="xtick_21">
     <g id="line2d_41">
      <path d="M 1167.27936 439.2 
L 1167.27936 61.2 
" clip-path="url(#p9837eda5b7)" style="fill: none; stroke: #b0b0b0; stroke-width: 0.8; stroke-linecap: square"/>
     </g>
     <g id="line2d_42">
      <g>
       <use xlink:href="#m5c97b0923d" x="1167.27936" y="439.2" style="stroke: #000000; stroke-width: 0.8"/>
      </g>
     </g>
     <g id="text_21">
      <!-- 20 -->
      <g transform="translate(1157.09936 458.3575) scale(0.16 -0.16)">
       <use xlink:href="#DejaVuSans-32"/>
       <use xlink:href="#DejaVuSans-30" x="63.623047"/>
      </g>
     </g>
    </g>
    <g id="xtick_22">
     <g id="line2d_43">
      <path d="M 1218.860388 439.2 
L 1218.860388 61.2 
" clip-path="url(#p9837eda5b7)" style="fill: none; stroke: #b0b0b0; stroke-width: 0.8; stroke-linecap: square"/>
     </g>
     <g id="line2d_44">
      <g>
       <use xlink:href="#m5c97b0923d" x="1218.860388" y="439.2" style="stroke: #000000; stroke-width: 0.8"/>
      </g>
     </g>
     <g id="text_22">
      <!-- 21 -->
      <g transform="translate(1208.680388 458.3575) scale(0.16 -0.16)">
       <use xlink:href="#DejaVuSans-32"/>
       <use xlink:href="#DejaVuSans-31" x="63.623047"/>
      </g>
     </g>
    </g>
    <g id="xtick_23">
     <g id="line2d_45">
      <path d="M 1270.441416 439.2 
L 1270.441416 61.2 
" clip-path="url(#p9837eda5b7)" style="fill: none; stroke: #b0b0b0; stroke-width: 0.8; stroke-linecap: square"/>
     </g>
     <g id="line2d_46">
      <g>
       <use xlink:href="#m5c97b0923d" x="1270.441416" y="439.2" style="stroke: #000000; stroke-width: 0.8"/>
      </g>
     </g>
     <g id="text_23">
      <!-- 22 -->
      <g transform="translate(1260.261416 458.3575) scale(0.16 -0.16)">
       <use xlink:href="#DejaVuSans-32"/>
       <use xlink:href="#DejaVuSans-32" x="63.623047"/>
      </g>
     </g>
    </g>
    <g id="xtick_24">
     <g id="line2d_47">
      <path d="M 1322.022443 439.2 
L 1322.022443 61.2 
" clip-path="url(#p9837eda5b7)" style="fill: none; stroke: #b0b0b0; stroke-width: 0.8; stroke-linecap: square"/>
     </g>
     <g id="line2d_48">
      <g>
       <use xlink:href="#m5c97b0923d" x="1322.022443" y="439.2" style="stroke: #000000; stroke-width: 0.8"/>
      </g>
     </g>
     <g id="text_24">
      <!-- 23 -->
      <g transform="translate(1311.842443 458.3575) scale(0.16 -0.16)">
       <use xlink:href="#DejaVuSans-32"/>
       <use xlink:href="#DejaVuSans-33" x="63.623047"/>
      </g>
     </g>
    </g>
    <g id="text_25">
     <!-- Time of day (hour) -->
     <g transform="translate(645.37125 479.362188) scale(0.18 -0.18)">
      <defs>
       <path id="DejaVuSans-54" d="M -19 4666 
L 3928 4666 
L 3928 4134 
L 2272 4134 
L 2272 0 
L 1638 0 
L 1638 4134 
L -19 4134 
L -19 4666 
z
" transform="scale(0.015625)"/>
       <path id="DejaVuSans-69" d="M 603 3500 
L 1178 3500 
L 1178 0 
L 603 0 
L 603 3500 
z
M 603 4863 
L 1178 4863 
L 1178 4134 
L 603 4134 
L 603 4863 
z
" transform="scale(0.015625)"/>
       <path id="DejaVuSans-6d" d="M 3328 2828 
Q 3544 3216 3844 3400 
Q 4144 3584 4550 3584 
Q 5097 3584 5394 3201 
Q 5691 2819 5691 2113 
L 5691 0 
L 5113 0 
L 5113 2094 
Q 5113 2597 4934 2840 
Q 4756 3084 4391 3084 
Q 3944 3084 3684 2787 
Q 3425 2491 3425 1978 
L 3425 0 
L 2847 0 
L 2847 2094 
Q 2847 2600 2669 2842 
Q 2491 3084 2119 3084 
Q 1678 3084 1418 2786 
Q 1159 2488 1159 1978 
L 1159 0 
L 581 0 
L 581 3500 
L 1159 3500 
L 1159 2956 
Q 1356 3278 1631 3431 
Q 1906 3584 2284 3584 
Q 2666 3584 2933 3390 
Q 3200 3197 3328 2828 
z
" transform="scale(0.015625)"/>
       <path id="DejaVuSans-65" d="M 3597 1894 
L 3597 1613 
L 953 1613 
Q 991 1019 1311 708 
Q 1631 397 2203 397 
Q 2534 397 2845 478 
Q 3156 559 3463 722 
L 3463 178 
Q 3153 47 2828 -22 
Q 2503 -91 2169 -91 
Q 1331 -91 842 396 
Q 353 884 353 1716 
Q 353 2575 817 3079 
Q 1281 3584 2069 3584 
Q 2775 3584 3186 3129 
Q 3597 2675 3597 1894 
z
M 3022 2063 
Q 3016 2534 2758 2815 
Q 2500 3097 2075 3097 
Q 1594 3097 1305 2825 
Q 1016 2553 972 2059 
L 3022 2063 
z
" transform="scale(0.015625)"/>
       <path id="DejaVuSans-20" transform="scale(0.015625)"/>
       <path id="DejaVuSans-6f" d="M 1959 3097 
Q 1497 3097 1228 2736 
Q 959 2375 959 1747 
Q 959 1119 1226 758 
Q 1494 397 1959 397 
Q 2419 397 2687 759 
Q 2956 1122 2956 1747 
Q 2956 2369 2687 2733 
Q 2419 3097 1959 3097 
z
M 1959 3584 
Q 2709 3584 3137 3096 
Q 3566 2609 3566 1747 
Q 3566 888 3137 398 
Q 2709 -91 1959 -91 
Q 1206 -91 779 398 
Q 353 888 353 1747 
Q 353 2609 779 3096 
Q 1206 3584 1959 3584 
z
" transform="scale(0.015625)"/>
       <path id="DejaVuSans-66" d="M 2375 4863 
L 2375 4384 
L 1825 4384 
Q 1516 4384 1395 4259 
Q 1275 4134 1275 3809 
L 1275 3500 
L 2222 3500 
L 2222 3053 
L 1275 3053 
L 1275 0 
L 697 0 
L 697 3053 
L 147 3053 
L 147 3500 
L 697 3500 
L 697 3744 
Q 697 4328 969 4595 
Q 1241 4863 1831 4863 
L 2375 4863 
z
" transform="scale(0.015625)"/>
       <path id="DejaVuSans-64" d="M 2906 2969 
L 2906 4863 
L 3481 4863 
L 3481 0 
L 2906 0 
L 2906 525 
Q 2725 213 2448 61 
Q 2172 -91 1784 -91 
Q 1150 -91 751 415 
Q 353 922 353 1747 
Q 353 2572 751 3078 
Q 1150 3584 1784 3584 
Q 2172 3584 2448 3432 
Q 2725 3281 2906 2969 
z
M 947 1747 
Q 947 1113 1208 752 
Q 1469 391 1925 391 
Q 2381 391 2643 752 
Q 2906 1113 2906 1747 
Q 2906 2381 2643 2742 
Q 2381 3103 1925 3103 
Q 1469 3103 1208 2742 
Q 947 2381 947 1747 
z
" transform="scale(0.015625)"/>
       <path id="DejaVuSans-61" d="M 2194 1759 
Q 1497 1759 1228 1600 
Q 959 1441 959 1056 
Q 959 750 1161 570 
Q 1363 391 1709 391 
Q 2188 391 2477 730 
Q 2766 1069 2766 1631 
L 2766 1759 
L 2194 1759 
z
M 3341 1997 
L 3341 0 
L 2766 0 
L 2766 531 
Q 2569 213 2275 61 
Q 1981 -91 1556 -91 
Q 1019 -91 701 211 
Q 384 513 384 1019 
Q 384 1609 779 1909 
Q 1175 2209 1959 2209 
L 2766 2209 
L 2766 2266 
Q 2766 2663 2505 2880 
Q 2244 3097 1772 3097 
Q 1472 3097 1187 3025 
Q 903 2953 641 2809 
L 641 3341 
Q 956 3463 1253 3523 
Q 1550 3584 1831 3584 
Q 2591 3584 2966 3190 
Q 3341 2797 3341 1997 
z
" transform="scale(0.015625)"/>
       <path id="DejaVuSans-79" d="M 2059 -325 
Q 1816 -950 1584 -1140 
Q 1353 -1331 966 -1331 
L 506 -1331 
L 506 -850 
L 844 -850 
Q 1081 -850 1212 -737 
Q 1344 -625 1503 -206 
L 1606 56 
L 191 3500 
L 800 3500 
L 1894 763 
L 2988 3500 
L 3597 3500 
L 2059 -325 
z
" transform="scale(0.015625)"/>
       <path id="DejaVuSans-28" d="M 1984 4856 
Q 1566 4138 1362 3434 
Q 1159 2731 1159 2009 
Q 1159 1288 1364 580 
Q 1569 -128 1984 -844 
L 1484 -844 
Q 1016 -109 783 600 
Q 550 1309 550 2009 
Q 550 2706 781 3412 
Q 1013 4119 1484 4856 
L 1984 4856 
z
" transform="scale(0.015625)"/>
       <path id="DejaVuSans-68" d="M 3513 2113 
L 3513 0 
L 2938 0 
L 2938 2094 
Q 2938 2591 2744 2837 
Q 2550 3084 2163 3084 
Q 1697 3084 1428 2787 
Q 1159 2491 1159 1978 
L 1159 0 
L 581 0 
L 581 4863 
L 1159 4863 
L 1159 2956 
Q 1366 3272 1645 3428 
Q 1925 3584 2291 3584 
Q 2894 3584 3203 3211 
Q 3513 2838 3513 2113 
z
" transform="scale(0.015625)"/>
       <path id="DejaVuSans-75" d="M 544 1381 
L 544 3500 
L 1119 3500 
L 1119 1403 
Q 1119 906 1312 657 
Q 1506 409 1894 409 
Q 2359 409 2629 706 
Q 2900 1003 2900 1516 
L 2900 3500 
L 3475 3500 
L 3475 0 
L 2900 0 
L 2900 538 
Q 2691 219 2414 64 
Q 2138 -91 1772 -91 
Q 1169 -91 856 284 
Q 544 659 544 1381 
z
M 1991 3584 
L 1991 3584 
z
" transform="scale(0.015625)"/>
       <path id="DejaVuSans-72" d="M 2631 2963 
Q 2534 3019 2420 3045 
Q 2306 3072 2169 3072 
Q 1681 3072 1420 2755 
Q 1159 2438 1159 1844 
L 1159 0 
L 581 0 
L 581 3500 
L 1159 3500 
L 1159 2956 
Q 1341 3275 1631 3429 
Q 1922 3584 2338 3584 
Q 2397 3584 2469 3576 
Q 2541 3569 2628 3553 
L 2631 2963 
z
" transform="scale(0.015625)"/>
       <path id="DejaVuSans-29" d="M 513 4856 
L 1013 4856 
Q 1481 4119 1714 3412 
Q 1947 2706 1947 2009 
Q 1947 1309 1714 600 
Q 1481 -109 1013 -844 
L 513 -844 
Q 928 -128 1133 580 
Q 1338 1288 1338 2009 
Q 1338 2731 1133 3434 
Q 928 4138 513 4856 
z
" transform="scale(0.015625)"/>
      </defs>
      <use xlink:href="#DejaVuSans-54"/>
      <use xlink:href="#DejaVuSans-69" x="57.958984"/>
      <use xlink:href="#DejaVuSans-6d" x="85.742188"/>
      <use xlink:href="#DejaVuSans-65" x="183.154297"/>
      <use xlink:href="#DejaVuSans-20" x="244.677734"/>
      <use xlink:href="#DejaVuSans-6f" x="276.464844"/>
      <use xlink:href="#DejaVuSans-66" x="337.646484"/>
      <use xlink:href="#DejaVuSans-20" x="372.851562"/>
      <use xlink:href="#DejaVuSans-64" x="404.638672"/>
      <use xlink:href="#DejaVuSans-61" x="468.115234"/>
      <use xlink:href="#DejaVuSans-79" x="529.394531"/>
      <use xlink:href="#DejaVuSans-20" x="588.574219"/>
      <use xlink:href="#DejaVuSans-28" x="620.361328"/>
      <use xlink:href="#DejaVuSans-68" x="659.375"/>
      <use xlink:href="#DejaVuSans-6f" x="722.753906"/>
      <use xlink:href="#DejaVuSans-75" x="783.935547"/>
      <use xlink:href="#DejaVuSans-72" x="847.314453"/>
      <use xlink:href="#DejaVuSans-29" x="888.427734"/>
     </g>
    </g>
   </g>
   <g id="matplotlib.axis_2">
    <g id="ytick_1">
     <g id="line2d_49">
      <path d="M 76.340625 439.2 
L 1381.340625 439.2 
" clip-path="url(#p9837eda5b7)" style="fill: none; stroke: #b0b0b0; stroke-width: 0.8; stroke-linecap: square"/>
     </g>
     <g id="line2d_50">
      <defs>
       <path id="mcede6ab587" d="M 0 0 
L -3.5 0 
" style="stroke: #000000; stroke-width: 0.8"/>
      </defs>
      <g>
       <use xlink:href="#mcede6ab587" x="76.340625" y="439.2" style="stroke: #000000; stroke-width: 0.8"/>
      </g>
     </g>
     <g id="text_26">
      <!-- 0 -->
      <g transform="translate(59.160625 445.27875) scale(0.16 -0.16)">
       <use xlink:href="#DejaVuSans-30"/>
      </g>
     </g>
    </g>
    <g id="ytick_2">
     <g id="line2d_51">
      <path d="M 76.340625 391.95 
L 1381.340625 391.95 
" clip-path="url(#p9837eda5b7)" style="fill: none; stroke: #b0b0b0; stroke-width: 0.8; stroke-linecap: square"/>
     </g>
     <g id="line2d_52">
      <g>
       <use xlink:href="#mcede6ab587" x="76.340625" y="391.95" style="stroke: #000000; stroke-width: 0.8"/>
      </g>
     </g>
     <g id="text_27">
      <!-- 500 -->
      <g transform="translate(38.800625 398.02875) scale(0.16 -0.16)">
       <use xlink:href="#DejaVuSans-35"/>
       <use xlink:href="#DejaVuSans-30" x="63.623047"/>
       <use xlink:href="#DejaVuSans-30" x="127.246094"/>
      </g>
     </g>
    </g>
    <g id="ytick_3">
     <g id="line2d_53">
      <path d="M 76.340625 344.7 
L 1381.340625 344.7 
" clip-path="url(#p9837eda5b7)" style="fill: none; stroke: #b0b0b0; stroke-width: 0.8; stroke-linecap: square"/>
     </g>
     <g id="line2d_54">
      <g>
       <use xlink:href="#mcede6ab587" x="76.340625" y="344.7" style="stroke: #000000; stroke-width: 0.8"/>
      </g>
     </g>
     <g id="text_28">
      <!-- 1000 -->
      <g transform="translate(28.620625 350.77875) scale(0.16 -0.16)">
       <use xlink:href="#DejaVuSans-31"/>
       <use xlink:href="#DejaVuSans-30" x="63.623047"/>
       <use xlink:href="#DejaVuSans-30" x="127.246094"/>
       <use xlink:href="#DejaVuSans-30" x="190.869141"/>
      </g>
     </g>
    </g>
    <g id="ytick_4">
     <g id="line2d_55">
      <path d="M 76.340625 297.45 
L 1381.340625 297.45 
" clip-path="url(#p9837eda5b7)" style="fill: none; stroke: #b0b0b0; stroke-width: 0.8; stroke-linecap: square"/>
     </g>
     <g id="line2d_56">
      <g>
       <use xlink:href="#mcede6ab587" x="76.340625" y="297.45" style="stroke: #000000; stroke-width: 0.8"/>
      </g>
     </g>
     <g id="text_29">
      <!-- 1500 -->
      <g transform="translate(28.620625 303.52875) scale(0.16 -0.16)">
       <use xlink:href="#DejaVuSans-31"/>
       <use xlink:href="#DejaVuSans-35" x="63.623047"/>
       <use xlink:href="#DejaVuSans-30" x="127.246094"/>
       <use xlink:href="#DejaVuSans-30" x="190.869141"/>
      </g>
     </g>
    </g>
    <g id="ytick_5">
     <g id="line2d_57">
      <path d="M 76.340625 250.2 
L 1381.340625 250.2 
" clip-path="url(#p9837eda5b7)" style="fill: none; stroke: #b0b0b0; stroke-width: 0.8; stroke-linecap: square"/>
     </g>
     <g id="line2d_58">
      <g>
       <use xlink:href="#mcede6ab587" x="76.340625" y="250.2" style="stroke: #000000; stroke-width: 0.8"/>
      </g>
     </g>
     <g id="text_30">
      <!-- 2000 -->
      <g transform="translate(28.620625 256.27875) scale(0.16 -0.16)">
       <use xlink:href="#DejaVuSans-32"/>
       <use xlink:href="#DejaVuSans-30" x="63.623047"/>
       <use xlink:href="#DejaVuSans-30" x="127.246094"/>
       <use xlink:href="#DejaVuSans-30" x="190.869141"/>
      </g>
     </g>
    </g>
    <g id="ytick_6">
     <g id="line2d_59">
      <path d="M 76.340625 202.95 
L 1381.340625 202.95 
" clip-path="url(#p9837eda5b7)" style="fill: none; stroke: #b0b0b0; stroke-width: 0.8; stroke-linecap: square"/>
     </g>
     <g id="line2d_60">
      <g>
       <use xlink:href="#mcede6ab587" x="76.340625" y="202.95" style="stroke: #000000; stroke-width: 0.8"/>
      </g>
     </g>
     <g id="text_31">
      <!-- 2500 -->
      <g transform="translate(28.620625 209.02875) scale(0.16 -0.16)">
       <use xlink:href="#DejaVuSans-32"/>
       <use xlink:href="#DejaVuSans-35" x="63.623047"/>
       <use xlink:href="#DejaVuSans-30" x="127.246094"/>
       <use xlink:href="#DejaVuSans-30" x="190.869141"/>
      </g>
     </g>
    </g>
    <g id="ytick_7">
     <g id="line2d_61">
      <path d="M 76.340625 155.7 
L 1381.340625 155.7 
" clip-path="url(#p9837eda5b7)" style="fill: none; stroke: #b0b0b0; stroke-width: 0.8; stroke-linecap: square"/>
     </g>
     <g id="line2d_62">
      <g>
       <use xlink:href="#mcede6ab587" x="76.340625" y="155.7" style="stroke: #000000; stroke-width: 0.8"/>
      </g>
     </g>
     <g id="text_32">
      <!-- 3000 -->
      <g transform="translate(28.620625 161.77875) scale(0.16 -0.16)">
       <use xlink:href="#DejaVuSans-33"/>
       <use xlink:href="#DejaVuSans-30" x="63.623047"/>
       <use xlink:href="#DejaVuSans-30" x="127.246094"/>
       <use xlink:href="#DejaVuSans-30" x="190.869141"/>
      </g>
     </g>
    </g>
    <g id="ytick_8">
     <g id="line2d_63">
      <path d="M 76.340625 108.45 
L 1381.340625 108.45 
" clip-path="url(#p9837eda5b7)" style="fill: none; stroke: #b0b0b0; stroke-width: 0.8; stroke-linecap: square"/>
     </g>
     <g id="line2d_64">
      <g>
       <use xlink:href="#mcede6ab587" x="76.340625" y="108.45" style="stroke: #000000; stroke-width: 0.8"/>
      </g>
     </g>
     <g id="text_33">
      <!-- 3500 -->
      <g transform="translate(28.620625 114.52875) scale(0.16 -0.16)">
       <use xlink:href="#DejaVuSans-33"/>
       <use xlink:href="#DejaVuSans-35" x="63.623047"/>
       <use xlink:href="#DejaVuSans-30" x="127.246094"/>
       <use xlink:href="#DejaVuSans-30" x="190.869141"/>
      </g>
     </g>
    </g>
    <g id="ytick_9">
     <g id="line2d_65">
      <path d="M 76.340625 61.2 
L 1381.340625 61.2 
" clip-path="url(#p9837eda5b7)" style="fill: none; stroke: #b0b0b0; stroke-width: 0.8; stroke-linecap: square"/>
     </g>
     <g id="line2d_66">
      <g>
       <use xlink:href="#mcede6ab587" x="76.340625" y="61.2" style="stroke: #000000; stroke-width: 0.8"/>
      </g>
     </g>
     <g id="text_34">
      <!-- 4000 -->
      <g transform="translate(28.620625 67.27875) scale(0.16 -0.16)">
       <use xlink:href="#DejaVuSans-34"/>
       <use xlink:href="#DejaVuSans-30" x="63.623047"/>
       <use xlink:href="#DejaVuSans-30" x="127.246094"/>
       <use xlink:href="#DejaVuSans-30" x="190.869141"/>
      </g>
     </g>
    </g>
    <g id="text_35">
     <!-- Pedestrian flow (hourly sum) -->
     <g transform="translate(20.877188 379.465312) rotate(-90) scale(0.18 -0.18)">
      <defs>
       <path id="DejaVuSans-50" d="M 1259 4147 
L 1259 2394 
L 2053 2394 
Q 2494 2394 2734 2622 
Q 2975 2850 2975 3272 
Q 2975 3691 2734 3919 
Q 2494 4147 2053 4147 
L 1259 4147 
z
M 628 4666 
L 2053 4666 
Q 2838 4666 3239 4311 
Q 3641 3956 3641 3272 
Q 3641 2581 3239 2228 
Q 2838 1875 2053 1875 
L 1259 1875 
L 1259 0 
L 628 0 
L 628 4666 
z
" transform="scale(0.015625)"/>
       <path id="DejaVuSans-73" d="M 2834 3397 
L 2834 2853 
Q 2591 2978 2328 3040 
Q 2066 3103 1784 3103 
Q 1356 3103 1142 2972 
Q 928 2841 928 2578 
Q 928 2378 1081 2264 
Q 1234 2150 1697 2047 
L 1894 2003 
Q 2506 1872 2764 1633 
Q 3022 1394 3022 966 
Q 3022 478 2636 193 
Q 2250 -91 1575 -91 
Q 1294 -91 989 -36 
Q 684 19 347 128 
L 347 722 
Q 666 556 975 473 
Q 1284 391 1588 391 
Q 1994 391 2212 530 
Q 2431 669 2431 922 
Q 2431 1156 2273 1281 
Q 2116 1406 1581 1522 
L 1381 1569 
Q 847 1681 609 1914 
Q 372 2147 372 2553 
Q 372 3047 722 3315 
Q 1072 3584 1716 3584 
Q 2034 3584 2315 3537 
Q 2597 3491 2834 3397 
z
" transform="scale(0.015625)"/>
       <path id="DejaVuSans-74" d="M 1172 4494 
L 1172 3500 
L 2356 3500 
L 2356 3053 
L 1172 3053 
L 1172 1153 
Q 1172 725 1289 603 
Q 1406 481 1766 481 
L 2356 481 
L 2356 0 
L 1766 0 
Q 1100 0 847 248 
Q 594 497 594 1153 
L 594 3053 
L 172 3053 
L 172 3500 
L 594 3500 
L 594 4494 
L 1172 4494 
z
" transform="scale(0.015625)"/>
       <path id="DejaVuSans-6e" d="M 3513 2113 
L 3513 0 
L 2938 0 
L 2938 2094 
Q 2938 2591 2744 2837 
Q 2550 3084 2163 3084 
Q 1697 3084 1428 2787 
Q 1159 2491 1159 1978 
L 1159 0 
L 581 0 
L 581 3500 
L 1159 3500 
L 1159 2956 
Q 1366 3272 1645 3428 
Q 1925 3584 2291 3584 
Q 2894 3584 3203 3211 
Q 3513 2838 3513 2113 
z
" transform="scale(0.015625)"/>
       <path id="DejaVuSans-6c" d="M 603 4863 
L 1178 4863 
L 1178 0 
L 603 0 
L 603 4863 
z
" transform="scale(0.015625)"/>
       <path id="DejaVuSans-77" d="M 269 3500 
L 844 3500 
L 1563 769 
L 2278 3500 
L 2956 3500 
L 3675 769 
L 4391 3500 
L 4966 3500 
L 4050 0 
L 3372 0 
L 2619 2869 
L 1863 0 
L 1184 0 
L 269 3500 
z
" transform="scale(0.015625)"/>
      </defs>
      <use xlink:href="#DejaVuSans-50"/>
      <use xlink:href="#DejaVuSans-65" x="56.677734"/>
      <use xlink:href="#DejaVuSans-64" x="118.201172"/>
      <use xlink:href="#DejaVuSans-65" x="181.677734"/>
      <use xlink:href="#DejaVuSans-73" x="243.201172"/>
      <use xlink:href="#DejaVuSans-74" x="295.300781"/>
      <use xlink:href="#DejaVuSans-72" x="334.509766"/>
      <use xlink:href="#DejaVuSans-69" x="375.623047"/>
      <use xlink:href="#DejaVuSans-61" x="403.40625"/>
      <use xlink:href="#DejaVuSans-6e" x="464.685547"/>
      <use xlink:href="#DejaVuSans-20" x="528.064453"/>
      <use xlink:href="#DejaVuSans-66" x="559.851562"/>
      <use xlink:href="#DejaVuSans-6c" x="595.056641"/>
      <use xlink:href="#DejaVuSans-6f" x="622.839844"/>
      <use xlink:href="#DejaVuSans-77" x="684.021484"/>
      <use xlink:href="#DejaVuSans-20" x="765.808594"/>
      <use xlink:href="#DejaVuSans-28" x="797.595703"/>
      <use xlink:href="#DejaVuSans-68" x="836.609375"/>
      <use xlink:href="#DejaVuSans-6f" x="899.988281"/>
      <use xlink:href="#DejaVuSans-75" x="961.169922"/>
      <use xlink:href="#DejaVuSans-72" x="1024.548828"/>
      <use xlink:href="#DejaVuSans-6c" x="1065.662109"/>
      <use xlink:href="#DejaVuSans-79" x="1093.445312"/>
      <use xlink:href="#DejaVuSans-20" x="1152.625"/>
      <use xlink:href="#DejaVuSans-73" x="1184.412109"/>
      <use xlink:href="#DejaVuSans-75" x="1236.511719"/>
      <use xlink:href="#DejaVuSans-6d" x="1299.890625"/>
      <use xlink:href="#DejaVuSans-29" x="1397.302734"/>
     </g>
    </g>
   </g>
   <g id="line2d_67">
    <path d="M 135.658807 431.455648 
L 187.239834 432.202427 
L 238.820862 431.870828 
L 290.40189 432.662459 
L 341.982917 437.412246 
L 393.563945 437.108607 
L 445.144973 433.344048 
L 496.726 428.208566 
L 548.307028 406.120352 
L 599.888056 397.040806 
L 651.469083 365.215645 
L 703.050111 334.862705 
L 754.631139 288.714172 
L 806.212167 279.053484 
L 857.793194 287.731742 
L 909.374222 286.376734 
L 960.95525 295.189621 
L 1012.536277 328.479532 
L 1064.117305 365.599742 
L 1115.698333 397.491968 
L 1167.27936 414.692492 
L 1218.860388 420.670379 
L 1270.441416 421.101726 
L 1322.022443 428.611427 
" clip-path="url(#p9837eda5b7)" style="fill: none; stroke: #22335c; stroke-width: 1.5; stroke-linecap: square"/>
   </g>
   <g id="line2d_68">
    <path d="M 135.658807 428.83875 
L 187.239834 429.771937 
L 238.820862 427.709812 
L 290.40189 428.369625 
L 341.982917 437.053991 
L 393.563945 437.0832 
L 445.144973 433.1925 
L 496.726 426.915 
L 548.307028 401.576973 
L 599.888056 386.9982 
L 651.469083 351.198164 
L 703.050111 306.2763 
L 754.631139 269.084536 
L 806.212167 248.89725 
L 857.793194 264.395618 
L 909.374222 268.976812 
L 960.95525 282.022875 
L 1012.536277 308.214409 
L 1064.117305 355.971273 
L 1115.698333 387.881345 
L 1167.27936 410.133518 
L 1218.860388 416.399727 
L 1270.441416 417.554438 
L 1322.022443 423.3645 
" clip-path="url(#p9837eda5b7)" style="fill: none; stroke: #22335c; stroke-width: 1.5; stroke-linecap: square"/>
   </g>
   <g id="line2d_69">
    <path d="M 135.658807 429.97275 
L 187.239834 430.350158 
L 238.820862 429.2586 
L 290.40189 430.085812 
L 341.982917 436.923409 
L 393.563945 436.555658 
L 445.144973 430.646062 
L 496.726 423.9666 
L 548.307028 401.440279 
L 599.888056 386.538713 
L 651.469083 350.323525 
L 703.050111 307.770315 
L 754.631139 281.644113 
L 806.212167 281.898653 
L 857.793194 285.6375 
L 909.374222 291.897363 
L 960.95525 301.819863 
L 1012.536277 326.352825 
L 1064.117305 356.46525 
L 1115.698333 393.849776 
L 1167.27936 412.099681 
L 1218.860388 418.872191 
L 1270.441416 415.9665 
L 1322.022443 424.250763 
" clip-path="url(#p9837eda5b7)" style="fill: none; stroke: #1c4a6a; stroke-width: 1.5; stroke-linecap: square"/>
   </g>
   <g id="line2d_70">
    <path d="M 135.658807 435.652615 
L 187.239834 436.010625 
L 238.820862 436.277769 
L 290.40189 438.012 
L 341.982917 438.04332 
L 393.563945 435.827328 
L 445.144973 434.123069 
L 496.726 426.97485 
L 548.307028 417.86581 
L 599.888056 405.020328 
L 651.469083 392.517 
L 703.050111 373.29885 
L 754.631139 373.669138 
L 806.212167 382.982276 
L 857.793194 388.072241 
L 909.374222 387.977741 
L 960.95525 399.529552 
L 1012.536277 407.972638 
L 1064.117305 421.87275 
L 1115.698333 429.5225 
L 1167.27936 433.189125 
L 1218.860388 433.8639 
L 1270.441416 433.635 
L 1322.022443 434.95128 
" clip-path="url(#p9837eda5b7)" style="fill: none; stroke: #166178; stroke-width: 1.5; stroke-linecap: square"/>
   </g>
   <g id="line2d_71">
    <path d="M 135.658807 436.688289 
L 187.239834 436.5645 
L 238.820862 436.70625 
L 290.40189 438.374368 
L 341.982917 438.493737 
L 393.563945 437.6745 
L 445.144973 436.69575 
L 496.726 432.3915 
L 548.307028 429.30396 
L 599.888056 422.2355 
L 651.469083 414.201375 
L 703.050111 407.4417 
L 754.631139 405.232138 
L 806.212167 406.58175 
L 857.793194 409.520483 
L 909.374222 406.895 
L 960.95525 412.048125 
L 1012.536277 419.64525 
L 1064.117305 426.138457 
L 1115.698333 431.298978 
L 1167.27936 432.6606 
L 1218.860388 434.06865 
L 1270.441416 434.867921 
L 1322.022443 436.638553 
" clip-path="url(#p9837eda5b7)" style="fill: none; stroke: #107886; stroke-width: 1.5; stroke-linecap: square"/>
   </g>
   <g id="line2d_72">
    <path d="M 135.658807 436.17915 
L 187.239834 435.332017 
L 238.820862 435.465621 
L 290.40189 437.8905 
L 341.982917 438.219155 
L 393.563945 436.1319 
L 445.144973 435.0231 
L 496.726 427.75605 
L 548.307028 420.0039 
L 599.888056 408.73005 
L 651.469083 394.83225 
L 703.050111 378.66015 
L 754.631139 374.99985 
L 806.212167 378.21915 
L 857.793194 385.18695 
L 909.374222 388.11015 
L 960.95525 395.0748 
L 1012.536277 404.76105 
L 1064.117305 417.924466 
L 1115.698333 427.543914 
L 1167.27936 430.71705 
L 1218.860388 431.8745 
L 1270.441416 433.921034 
L 1322.022443 436.071724 
" clip-path="url(#p9837eda5b7)" style="fill: none; stroke: #099094; stroke-width: 1.5; stroke-linecap: square"/>
   </g>
   <g id="line2d_73">
    <path d="M 135.658807 436.2635 
L 187.239834 436.252327 
L 238.820862 436.93875 
L 290.40189 437.60484 
L 341.982917 437.345845 
L 393.563945 435.7035 
L 445.144973 433.438759 
L 496.726 422.77981 
L 548.307028 417.7422 
L 599.888056 397.748032 
L 651.469083 385.734339 
L 703.050111 375.621052 
L 754.631139 372.15225 
L 806.212167 362.166207 
L 857.793194 369.4086 
L 909.374222 368.4132 
L 960.95525 375.168629 
L 1012.536277 390.79771 
L 1064.117305 407.8764 
L 1115.698333 423.33975 
L 1167.27936 426.507672 
L 1218.860388 430.0605 
L 1270.441416 430.37775 
L 1322.022443 435.25381 
" clip-path="url(#p9837eda5b7)" style="fill: none; stroke: #03a7a2; stroke-width: 1.5; stroke-linecap: square"/>
   </g>
   <g id="line2d_74">
    <path d="M 135.658807 434.206742 
L 187.239834 434.176258 
L 238.820862 434.990177 
L 290.40189 437.514242 
L 341.982917 436.800919 
L 393.563945 432.060677 
L 445.144973 427.088758 
L 496.726 406.33229 
L 548.307028 401.460968 
L 599.888056 369.888823 
L 651.469083 339.801242 
L 703.050111 309.110081 
L 754.631139 296.782403 
L 806.212167 310.274565 
L 857.793194 329.769 
L 909.374222 327.568065 
L 960.95525 336.935758 
L 1012.536277 366.410613 
L 1064.117305 385.54229 
L 1115.698333 408.12779 
L 1167.27936 418.416097 
L 1218.860388 424.317774 
L 1270.441416 429.036677 
L 1322.022443 432.987387 
" clip-path="url(#p9837eda5b7)" style="fill: none; stroke: #17b49e; stroke-width: 1.5; stroke-linecap: square"/>
   </g>
   <g id="line2d_75">
    <path d="M 135.658807 426.28185 
L 187.239834 424.08315 
L 238.820862 428.10885 
L 290.40189 436.82805 
L 341.982917 437.1021 
L 393.563945 432.0243 
L 445.144973 424.44225 
L 496.726 395.54415 
L 548.307028 400.75425 
L 599.888056 371.01195 
L 651.469083 347.37435 
L 703.050111 327.627 
L 754.631139 327.61125 
L 806.212167 322.5429 
L 857.793194 324.2628 
L 909.374222 326.2158 
L 960.95525 336.07845 
L 1012.536277 370.4859 
L 1064.117305 390.2679 
L 1115.698333 410.6547 
L 1167.27936 420.07005 
L 1218.860388 421.18515 
L 1270.441416 422.40735 
L 1322.022443 428.0112 
" clip-path="url(#p9837eda5b7)" style="fill: none; stroke: #44b888; stroke-width: 1.5; stroke-linecap: square"/>
   </g>
   <g id="line2d_76">
    <path d="M 135.658807 426.055909 
L 187.239834 423.452864 
L 238.820862 427.258636 
L 290.40189 435.987 
L 341.982917 437.000727 
L 393.563945 432.396 
L 445.144973 426.279273 
L 496.726 396.632045 
L 548.307028 401.932636 
L 599.888056 366.005455 
L 651.469083 342.973227 
L 703.050111 305.955 
L 754.631139 314.767125 
L 806.212167 277.407409 
L 857.793194 281.453727 
L 909.374222 292.6305 
L 960.95525 304.975636 
L 1012.536277 360.352636 
L 1064.117305 395.96625 
L 1115.698333 415.56555 
L 1167.27936 419.06205 
L 1218.860388 419.4117 
L 1270.441416 421.99155 
L 1322.022443 426.9465 
" clip-path="url(#p9837eda5b7)" style="fill: none; stroke: #74bc71; stroke-width: 1.5; stroke-linecap: square"/>
   </g>
   <g id="line2d_77">
    <path d="M 135.658807 425.06658 
L 187.239834 426.2913 
L 238.820862 425.4975 
L 290.40189 427.86756 
L 341.982917 436.554 
L 393.563945 436.29318 
L 445.144973 430.57026 
L 496.726 424.2123 
L 548.307028 390.53628 
L 599.888056 375.589687 
L 651.469083 328.4838 
L 703.050111 270.71406 
L 754.631139 193.6323 
L 806.212167 172.58904 
L 857.793194 203.517 
L 909.374222 207.9585 
L 960.95525 236.108596 
L 1012.536277 274.464692 
L 1064.117305 315.270519 
L 1115.698333 362.902154 
L 1167.27936 400.291442 
L 1218.860388 410.911788 
L 1270.441416 407.106346 
L 1322.022443 420.071019 
" clip-path="url(#p9837eda5b7)" style="fill: none; stroke: #a2c05b; stroke-width: 1.5; stroke-linecap: square"/>
   </g>
   <g id="line2d_78">
    <path d="M 135.658807 430.438245 
L 187.239834 432.435981 
L 238.820862 432.095824 
L 290.40189 431.673353 
L 341.982917 437.3065 
L 393.563945 436.9495 
L 445.144973 432.557206 
L 496.726 427.475127 
L 548.307028 399.223 
L 599.888056 368.201291 
L 651.469083 306.623632 
L 703.050111 253.272142 
L 754.631139 200.793682 
L 806.212167 174.3165 
L 857.793194 197.180437 
L 909.374222 196.235048 
L 960.95525 241.741358 
L 1012.536277 283.542144 
L 1064.117305 325.447941 
L 1115.698333 364.874891 
L 1167.27936 401.405452 
L 1218.860388 415.925206 
L 1270.441416 417.71175 
L 1322.022443 425.46775 
" clip-path="url(#p9837eda5b7)" style="fill: none; stroke: #cfc445; stroke-width: 1.5; stroke-linecap: square"/>
   </g>
   <g id="patch_3">
    <path d="M 76.340625 439.2 
L 76.340625 61.2 
" style="fill: none; stroke: #000000; stroke-width: 0.8; stroke-linejoin: miter; stroke-linecap: square"/>
   </g>
   <g id="patch_4">
    <path d="M 1381.340625 439.2 
L 1381.340625 61.2 
" style="fill: none; stroke: #000000; stroke-width: 0.8; stroke-linejoin: miter; stroke-linecap: square"/>
   </g>
   <g id="patch_5">
    <path d="M 76.340625 439.2 
L 1381.340625 439.2 
" style="fill: none; stroke: #000000; stroke-width: 0.8; stroke-linejoin: miter; stroke-linecap: square"/>
   </g>
   <g id="patch_6">
    <path d="M 76.340625 61.2 
L 1381.340625 61.2 
" style="fill: none; stroke: #000000; stroke-width: 0.8; stroke-linejoin: miter; stroke-linecap: square"/>
   </g>
   <g id="text_36">
    <!-- East -->
    <g transform="translate(708.342891 55.2) scale(0.19 -0.19)">
     <defs>
      <path id="DejaVuSans-45" d="M 628 4666 
L 3578 4666 
L 3578 4134 
L 1259 4134 
L 1259 2753 
L 3481 2753 
L 3481 2222 
L 1259 2222 
L 1259 531 
L 3634 531 
L 3634 0 
L 628 0 
L 628 4666 
z
" transform="scale(0.015625)"/>
     </defs>
     <use xlink:href="#DejaVuSans-45"/>
     <use xlink:href="#DejaVuSans-61" x="63.183594"/>
     <use xlink:href="#DejaVuSans-73" x="124.462891"/>
     <use xlink:href="#DejaVuSans-74" x="176.5625"/>
    </g>
   </g>
  </g>
  <g id="axes_2">
   <g id="patch_7">
    <path d="M 76.340625 892.8 
L 1381.340625 892.8 
L 1381.340625 514.8 
L 76.340625 514.8 
z
" style="fill: #ffffff"/>
   </g>
   <g id="matplotlib.axis_3">
    <g id="xtick_25">
     <g id="line2d_79">
      <path d="M 135.658807 892.8 
L 135.658807 514.8 
" clip-path="url(#pd25f7bcba2)" style="fill: none; stroke: #b0b0b0; stroke-width: 0.8; stroke-linecap: square"/>
     </g>
     <g id="line2d_80">
      <g>
       <use xlink:href="#m5c97b0923d" x="135.658807" y="892.8" style="stroke: #000000; stroke-width: 0.8"/>
      </g>
     </g>
     <g id="text_37">
      <!-- 0 -->
      <g transform="translate(130.568807 911.9575) scale(0.16 -0.16)">
       <use xlink:href="#DejaVuSans-30"/>
      </g>
     </g>
    </g>
    <g id="xtick_26">
     <g id="line2d_81">
      <path d="M 187.239834 892.8 
L 187.239834 514.8 
" clip-path="url(#pd25f7bcba2)" style="fill: none; stroke: #b0b0b0; stroke-width: 0.8; stroke-linecap: square"/>
     </g>
     <g id="line2d_82">
      <g>
       <use xlink:href="#m5c97b0923d" x="187.239834" y="892.8" style="stroke: #000000; stroke-width: 0.8"/>
      </g>
     </g>
     <g id="text_38">
      <!-- 1 -->
      <g transform="translate(182.149834 911.9575) scale(0.16 -0.16)">
       <use xlink:href="#DejaVuSans-31"/>
      </g>
     </g>
    </g>
    <g id="xtick_27">
     <g id="line2d_83">
      <path d="M 238.820862 892.8 
L 238.820862 514.8 
" clip-path="url(#pd25f7bcba2)" style="fill: none; stroke: #b0b0b0; stroke-width: 0.8; stroke-linecap: square"/>
     </g>
     <g id="line2d_84">
      <g>
       <use xlink:href="#m5c97b0923d" x="238.820862" y="892.8" style="stroke: #000000; stroke-width: 0.8"/>
      </g>
     </g>
     <g id="text_39">
      <!-- 2 -->
      <g transform="translate(233.730862 911.9575) scale(0.16 -0.16)">
       <use xlink:href="#DejaVuSans-32"/>
      </g>
     </g>
    </g>
    <g id="xtick_28">
     <g id="line2d_85">
      <path d="M 290.40189 892.8 
L 290.40189 514.8 
" clip-path="url(#pd25f7bcba2)" style="fill: none; stroke: #b0b0b0; stroke-width: 0.8; stroke-linecap: square"/>
     </g>
     <g id="line2d_86">
      <g>
       <use xlink:href="#m5c97b0923d" x="290.40189" y="892.8" style="stroke: #000000; stroke-width: 0.8"/>
      </g>
     </g>
     <g id="text_40">
      <!-- 3 -->
      <g transform="translate(285.31189 911.9575) scale(0.16 -0.16)">
       <use xlink:href="#DejaVuSans-33"/>
      </g>
     </g>
    </g>
    <g id="xtick_29">
     <g id="line2d_87">
      <path d="M 341.982917 892.8 
L 341.982917 514.8 
" clip-path="url(#pd25f7bcba2)" style="fill: none; stroke: #b0b0b0; stroke-width: 0.8; stroke-linecap: square"/>
     </g>
     <g id="line2d_88">
      <g>
       <use xlink:href="#m5c97b0923d" x="341.982917" y="892.8" style="stroke: #000000; stroke-width: 0.8"/>
      </g>
     </g>
     <g id="text_41">
      <!-- 4 -->
      <g transform="translate(336.892917 911.9575) scale(0.16 -0.16)">
       <use xlink:href="#DejaVuSans-34"/>
      </g>
     </g>
    </g>
    <g id="xtick_30">
     <g id="line2d_89">
      <path d="M 393.563945 892.8 
L 393.563945 514.8 
" clip-path="url(#pd25f7bcba2)" style="fill: none; stroke: #b0b0b0; stroke-width: 0.8; stroke-linecap: square"/>
     </g>
     <g id="line2d_90">
      <g>
       <use xlink:href="#m5c97b0923d" x="393.563945" y="892.8" style="stroke: #000000; stroke-width: 0.8"/>
      </g>
     </g>
     <g id="text_42">
      <!-- 5 -->
      <g transform="translate(388.473945 911.9575) scale(0.16 -0.16)">
       <use xlink:href="#DejaVuSans-35"/>
      </g>
     </g>
    </g>
    <g id="xtick_31">
     <g id="line2d_91">
      <path d="M 445.144973 892.8 
L 445.144973 514.8 
" clip-path="url(#pd25f7bcba2)" style="fill: none; stroke: #b0b0b0; stroke-width: 0.8; stroke-linecap: square"/>
     </g>
     <g id="line2d_92">
      <g>
       <use xlink:href="#m5c97b0923d" x="445.144973" y="892.8" style="stroke: #000000; stroke-width: 0.8"/>
      </g>
     </g>
     <g id="text_43">
      <!-- 6 -->
      <g transform="translate(440.054973 911.9575) scale(0.16 -0.16)">
       <use xlink:href="#DejaVuSans-36"/>
      </g>
     </g>
    </g>
    <g id="xtick_32">
     <g id="line2d_93">
      <path d="M 496.726 892.8 
L 496.726 514.8 
" clip-path="url(#pd25f7bcba2)" style="fill: none; stroke: #b0b0b0; stroke-width: 0.8; stroke-linecap: square"/>
     </g>
     <g id="line2d_94">
      <g>
       <use xlink:href="#m5c97b0923d" x="496.726" y="892.8" style="stroke: #000000; stroke-width: 0.8"/>
      </g>
     </g>
     <g id="text_44">
      <!-- 7 -->
      <g transform="translate(491.636 911.9575) scale(0.16 -0.16)">
       <use xlink:href="#DejaVuSans-37"/>
      </g>
     </g>
    </g>
    <g id="xtick_33">
     <g id="line2d_95">
      <path d="M 548.307028 892.8 
L 548.307028 514.8 
" clip-path="url(#pd25f7bcba2)" style="fill: none; stroke: #b0b0b0; stroke-width: 0.8; stroke-linecap: square"/>
     </g>
     <g id="line2d_96">
      <g>
       <use xlink:href="#m5c97b0923d" x="548.307028" y="892.8" style="stroke: #000000; stroke-width: 0.8"/>
      </g>
     </g>
     <g id="text_45">
      <!-- 8 -->
      <g transform="translate(543.217028 911.9575) scale(0.16 -0.16)">
       <use xlink:href="#DejaVuSans-38"/>
      </g>
     </g>
    </g>
    <g id="xtick_34">
     <g id="line2d_97">
      <path d="M 599.888056 892.8 
L 599.888056 514.8 
" clip-path="url(#pd25f7bcba2)" style="fill: none; stroke: #b0b0b0; stroke-width: 0.8; stroke-linecap: square"/>
     </g>
     <g id="line2d_98">
      <g>
       <use xlink:href="#m5c97b0923d" x="599.888056" y="892.8" style="stroke: #000000; stroke-width: 0.8"/>
      </g>
     </g>
     <g id="text_46">
      <!-- 9 -->
      <g transform="translate(594.798056 911.9575) scale(0.16 -0.16)">
       <use xlink:href="#DejaVuSans-39"/>
      </g>
     </g>
    </g>
    <g id="xtick_35">
     <g id="line2d_99">
      <path d="M 651.469083 892.8 
L 651.469083 514.8 
" clip-path="url(#pd25f7bcba2)" style="fill: none; stroke: #b0b0b0; stroke-width: 0.8; stroke-linecap: square"/>
     </g>
     <g id="line2d_100">
      <g>
       <use xlink:href="#m5c97b0923d" x="651.469083" y="892.8" style="stroke: #000000; stroke-width: 0.8"/>
      </g>
     </g>
     <g id="text_47">
      <!-- 10 -->
      <g transform="translate(641.289083 911.9575) scale(0.16 -0.16)">
       <use xlink:href="#DejaVuSans-31"/>
       <use xlink:href="#DejaVuSans-30" x="63.623047"/>
      </g>
     </g>
    </g>
    <g id="xtick_36">
     <g id="line2d_101">
      <path d="M 703.050111 892.8 
L 703.050111 514.8 
" clip-path="url(#pd25f7bcba2)" style="fill: none; stroke: #b0b0b0; stroke-width: 0.8; stroke-linecap: square"/>
     </g>
     <g id="line2d_102">
      <g>
       <use xlink:href="#m5c97b0923d" x="703.050111" y="892.8" style="stroke: #000000; stroke-width: 0.8"/>
      </g>
     </g>
     <g id="text_48">
      <!-- 11 -->
      <g transform="translate(692.870111 911.9575) scale(0.16 -0.16)">
       <use xlink:href="#DejaVuSans-31"/>
       <use xlink:href="#DejaVuSans-31" x="63.623047"/>
      </g>
     </g>
    </g>
    <g id="xtick_37">
     <g id="line2d_103">
      <path d="M 754.631139 892.8 
L 754.631139 514.8 
" clip-path="url(#pd25f7bcba2)" style="fill: none; stroke: #b0b0b0; stroke-width: 0.8; stroke-linecap: square"/>
     </g>
     <g id="line2d_104">
      <g>
       <use xlink:href="#m5c97b0923d" x="754.631139" y="892.8" style="stroke: #000000; stroke-width: 0.8"/>
      </g>
     </g>
     <g id="text_49">
      <!-- 12 -->
      <g transform="translate(744.451139 911.9575) scale(0.16 -0.16)">
       <use xlink:href="#DejaVuSans-31"/>
       <use xlink:href="#DejaVuSans-32" x="63.623047"/>
      </g>
     </g>
    </g>
    <g id="xtick_38">
     <g id="line2d_105">
      <path d="M 806.212167 892.8 
L 806.212167 514.8 
" clip-path="url(#pd25f7bcba2)" style="fill: none; stroke: #b0b0b0; stroke-width: 0.8; stroke-linecap: square"/>
     </g>
     <g id="line2d_106">
      <g>
       <use xlink:href="#m5c97b0923d" x="806.212167" y="892.8" style="stroke: #000000; stroke-width: 0.8"/>
      </g>
     </g>
     <g id="text_50">
      <!-- 13 -->
      <g transform="translate(796.032167 911.9575) scale(0.16 -0.16)">
       <use xlink:href="#DejaVuSans-31"/>
       <use xlink:href="#DejaVuSans-33" x="63.623047"/>
      </g>
     </g>
    </g>
    <g id="xtick_39">
     <g id="line2d_107">
      <path d="M 857.793194 892.8 
L 857.793194 514.8 
" clip-path="url(#pd25f7bcba2)" style="fill: none; stroke: #b0b0b0; stroke-width: 0.8; stroke-linecap: square"/>
     </g>
     <g id="line2d_108">
      <g>
       <use xlink:href="#m5c97b0923d" x="857.793194" y="892.8" style="stroke: #000000; stroke-width: 0.8"/>
      </g>
     </g>
     <g id="text_51">
      <!-- 14 -->
      <g transform="translate(847.613194 911.9575) scale(0.16 -0.16)">
       <use xlink:href="#DejaVuSans-31"/>
       <use xlink:href="#DejaVuSans-34" x="63.623047"/>
      </g>
     </g>
    </g>
    <g id="xtick_40">
     <g id="line2d_109">
      <path d="M 909.374222 892.8 
L 909.374222 514.8 
" clip-path="url(#pd25f7bcba2)" style="fill: none; stroke: #b0b0b0; stroke-width: 0.8; stroke-linecap: square"/>
     </g>
     <g id="line2d_110">
      <g>
       <use xlink:href="#m5c97b0923d" x="909.374222" y="892.8" style="stroke: #000000; stroke-width: 0.8"/>
      </g>
     </g>
     <g id="text_52">
      <!-- 15 -->
      <g transform="translate(899.194222 911.9575) scale(0.16 -0.16)">
       <use xlink:href="#DejaVuSans-31"/>
       <use xlink:href="#DejaVuSans-35" x="63.623047"/>
      </g>
     </g>
    </g>
    <g id="xtick_41">
     <g id="line2d_111">
      <path d="M 960.95525 892.8 
L 960.95525 514.8 
" clip-path="url(#pd25f7bcba2)" style="fill: none; stroke: #b0b0b0; stroke-width: 0.8; stroke-linecap: square"/>
     </g>
     <g id="line2d_112">
      <g>
       <use xlink:href="#m5c97b0923d" x="960.95525" y="892.8" style="stroke: #000000; stroke-width: 0.8"/>
      </g>
     </g>
     <g id="text_53">
      <!-- 16 -->
      <g transform="translate(950.77525 911.9575) scale(0.16 -0.16)">
       <use xlink:href="#DejaVuSans-31"/>
       <use xlink:href="#DejaVuSans-36" x="63.623047"/>
      </g>
     </g>
    </g>
    <g id="xtick_42">
     <g id="line2d_113">
      <path d="M 1012.536277 892.8 
L 1012.536277 514.8 
" clip-path="url(#pd25f7bcba2)" style="fill: none; stroke: #b0b0b0; stroke-width: 0.8; stroke-linecap: square"/>
     </g>
     <g id="line2d_114">
      <g>
       <use xlink:href="#m5c97b0923d" x="1012.536277" y="892.8" style="stroke: #000000; stroke-width: 0.8"/>
      </g>
     </g>
     <g id="text_54">
      <!-- 17 -->
      <g transform="translate(1002.356277 911.9575) scale(0.16 -0.16)">
       <use xlink:href="#DejaVuSans-31"/>
       <use xlink:href="#DejaVuSans-37" x="63.623047"/>
      </g>
     </g>
    </g>
    <g id="xtick_43">
     <g id="line2d_115">
      <path d="M 1064.117305 892.8 
L 1064.117305 514.8 
" clip-path="url(#pd25f7bcba2)" style="fill: none; stroke: #b0b0b0; stroke-width: 0.8; stroke-linecap: square"/>
     </g>
     <g id="line2d_116">
      <g>
       <use xlink:href="#m5c97b0923d" x="1064.117305" y="892.8" style="stroke: #000000; stroke-width: 0.8"/>
      </g>
     </g>
     <g id="text_55">
      <!-- 18 -->
      <g transform="translate(1053.937305 911.9575) scale(0.16 -0.16)">
       <use xlink:href="#DejaVuSans-31"/>
       <use xlink:href="#DejaVuSans-38" x="63.623047"/>
      </g>
     </g>
    </g>
    <g id="xtick_44">
     <g id="line2d_117">
      <path d="M 1115.698333 892.8 
L 1115.698333 514.8 
" clip-path="url(#pd25f7bcba2)" style="fill: none; stroke: #b0b0b0; stroke-width: 0.8; stroke-linecap: square"/>
     </g>
     <g id="line2d_118">
      <g>
       <use xlink:href="#m5c97b0923d" x="1115.698333" y="892.8" style="stroke: #000000; stroke-width: 0.8"/>
      </g>
     </g>
     <g id="text_56">
      <!-- 19 -->
      <g transform="translate(1105.518333 911.9575) scale(0.16 -0.16)">
       <use xlink:href="#DejaVuSans-31"/>
       <use xlink:href="#DejaVuSans-39" x="63.623047"/>
      </g>
     </g>
    </g>
    <g id="xtick_45">
     <g id="line2d_119">
      <path d="M 1167.27936 892.8 
L 1167.27936 514.8 
" clip-path="url(#pd25f7bcba2)" style="fill: none; stroke: #b0b0b0; stroke-width: 0.8; stroke-linecap: square"/>
     </g>
     <g id="line2d_120">
      <g>
       <use xlink:href="#m5c97b0923d" x="1167.27936" y="892.8" style="stroke: #000000; stroke-width: 0.8"/>
      </g>
     </g>
     <g id="text_57">
      <!-- 20 -->
      <g transform="translate(1157.09936 911.9575) scale(0.16 -0.16)">
       <use xlink:href="#DejaVuSans-32"/>
       <use xlink:href="#DejaVuSans-30" x="63.623047"/>
      </g>
     </g>
    </g>
    <g id="xtick_46">
     <g id="line2d_121">
      <path d="M 1218.860388 892.8 
L 1218.860388 514.8 
" clip-path="url(#pd25f7bcba2)" style="fill: none; stroke: #b0b0b0; stroke-width: 0.8; stroke-linecap: square"/>
     </g>
     <g id="line2d_122">
      <g>
       <use xlink:href="#m5c97b0923d" x="1218.860388" y="892.8" style="stroke: #000000; stroke-width: 0.8"/>
      </g>
     </g>
     <g id="text_58">
      <!-- 21 -->
      <g transform="translate(1208.680388 911.9575) scale(0.16 -0.16)">
       <use xlink:href="#DejaVuSans-32"/>
       <use xlink:href="#DejaVuSans-31" x="63.623047"/>
      </g>
     </g>
    </g>
    <g id="xtick_47">
     <g id="line2d_123">
      <path d="M 1270.441416 892.8 
L 1270.441416 514.8 
" clip-path="url(#pd25f7bcba2)" style="fill: none; stroke: #b0b0b0; stroke-width: 0.8; stroke-linecap: square"/>
     </g>
     <g id="line2d_124">
      <g>
       <use xlink:href="#m5c97b0923d" x="1270.441416" y="892.8" style="stroke: #000000; stroke-width: 0.8"/>
      </g>
     </g>
     <g id="text_59">
      <!-- 22 -->
      <g transform="translate(1260.261416 911.9575) scale(0.16 -0.16)">
       <use xlink:href="#DejaVuSans-32"/>
       <use xlink:href="#DejaVuSans-32" x="63.623047"/>
      </g>
     </g>
    </g>
    <g id="xtick_48">
     <g id="line2d_125">
      <path d="M 1322.022443 892.8 
L 1322.022443 514.8 
" clip-path="url(#pd25f7bcba2)" style="fill: none; stroke: #b0b0b0; stroke-width: 0.8; stroke-linecap: square"/>
     </g>
     <g id="line2d_126">
      <g>
       <use xlink:href="#m5c97b0923d" x="1322.022443" y="892.8" style="stroke: #000000; stroke-width: 0.8"/>
      </g>
     </g>
     <g id="text_60">
      <!-- 23 -->
      <g transform="translate(1311.842443 911.9575) scale(0.16 -0.16)">
       <use xlink:href="#DejaVuSans-32"/>
       <use xlink:href="#DejaVuSans-33" x="63.623047"/>
      </g>
     </g>
    </g>
    <g id="text_61">
     <!-- Time of day (hour) -->
     <g transform="translate(645.37125 932.962188) scale(0.18 -0.18)">
      <use xlink:href="#DejaVuSans-54"/>
      <use xlink:href="#DejaVuSans-69" x="57.958984"/>
      <use xlink:href="#DejaVuSans-6d" x="85.742188"/>
      <use xlink:href="#DejaVuSans-65" x="183.154297"/>
      <use xlink:href="#DejaVuSans-20" x="244.677734"/>
      <use xlink:href="#DejaVuSans-6f" x="276.464844"/>
      <use xlink:href="#DejaVuSans-66" x="337.646484"/>
      <use xlink:href="#DejaVuSans-20" x="372.851562"/>
      <use xlink:href="#DejaVuSans-64" x="404.638672"/>
      <use xlink:href="#DejaVuSans-61" x="468.115234"/>
      <use xlink:href="#DejaVuSans-79" x="529.394531"/>
      <use xlink:href="#DejaVuSans-20" x="588.574219"/>
      <use xlink:href="#DejaVuSans-28" x="620.361328"/>
      <use xlink:href="#DejaVuSans-68" x="659.375"/>
      <use xlink:href="#DejaVuSans-6f" x="722.753906"/>
      <use xlink:href="#DejaVuSans-75" x="783.935547"/>
      <use xlink:href="#DejaVuSans-72" x="847.314453"/>
      <use xlink:href="#DejaVuSans-29" x="888.427734"/>
     </g>
    </g>
   </g>
   <g id="matplotlib.axis_4">
    <g id="ytick_10">
     <g id="line2d_127">
      <path d="M 76.340625 892.8 
L 1381.340625 892.8 
" clip-path="url(#pd25f7bcba2)" style="fill: none; stroke: #b0b0b0; stroke-width: 0.8; stroke-linecap: square"/>
     </g>
     <g id="line2d_128">
      <g>
       <use xlink:href="#mcede6ab587" x="76.340625" y="892.8" style="stroke: #000000; stroke-width: 0.8"/>
      </g>
     </g>
     <g id="text_62">
      <!-- 0 -->
      <g transform="translate(59.160625 898.87875) scale(0.16 -0.16)">
       <use xlink:href="#DejaVuSans-30"/>
      </g>
     </g>
    </g>
    <g id="ytick_11">
     <g id="line2d_129">
      <path d="M 76.340625 845.55 
L 1381.340625 845.55 
" clip-path="url(#pd25f7bcba2)" style="fill: none; stroke: #b0b0b0; stroke-width: 0.8; stroke-linecap: square"/>
     </g>
     <g id="line2d_130">
      <g>
       <use xlink:href="#mcede6ab587" x="76.340625" y="845.55" style="stroke: #000000; stroke-width: 0.8"/>
      </g>
     </g>
     <g id="text_63">
      <!-- 500 -->
      <g transform="translate(38.800625 851.62875) scale(0.16 -0.16)">
       <use xlink:href="#DejaVuSans-35"/>
       <use xlink:href="#DejaVuSans-30" x="63.623047"/>
       <use xlink:href="#DejaVuSans-30" x="127.246094"/>
      </g>
     </g>
    </g>
    <g id="ytick_12">
     <g id="line2d_131">
      <path d="M 76.340625 798.3 
L 1381.340625 798.3 
" clip-path="url(#pd25f7bcba2)" style="fill: none; stroke: #b0b0b0; stroke-width: 0.8; stroke-linecap: square"/>
     </g>
     <g id="line2d_132">
      <g>
       <use xlink:href="#mcede6ab587" x="76.340625" y="798.3" style="stroke: #000000; stroke-width: 0.8"/>
      </g>
     </g>
     <g id="text_64">
      <!-- 1000 -->
      <g transform="translate(28.620625 804.37875) scale(0.16 -0.16)">
       <use xlink:href="#DejaVuSans-31"/>
       <use xlink:href="#DejaVuSans-30" x="63.623047"/>
       <use xlink:href="#DejaVuSans-30" x="127.246094"/>
       <use xlink:href="#DejaVuSans-30" x="190.869141"/>
      </g>
     </g>
    </g>
    <g id="ytick_13">
     <g id="line2d_133">
      <path d="M 76.340625 751.05 
L 1381.340625 751.05 
" clip-path="url(#pd25f7bcba2)" style="fill: none; stroke: #b0b0b0; stroke-width: 0.8; stroke-linecap: square"/>
     </g>
     <g id="line2d_134">
      <g>
       <use xlink:href="#mcede6ab587" x="76.340625" y="751.05" style="stroke: #000000; stroke-width: 0.8"/>
      </g>
     </g>
     <g id="text_65">
      <!-- 1500 -->
      <g transform="translate(28.620625 757.12875) scale(0.16 -0.16)">
       <use xlink:href="#DejaVuSans-31"/>
       <use xlink:href="#DejaVuSans-35" x="63.623047"/>
       <use xlink:href="#DejaVuSans-30" x="127.246094"/>
       <use xlink:href="#DejaVuSans-30" x="190.869141"/>
      </g>
     </g>
    </g>
    <g id="ytick_14">
     <g id="line2d_135">
      <path d="M 76.340625 703.8 
L 1381.340625 703.8 
" clip-path="url(#pd25f7bcba2)" style="fill: none; stroke: #b0b0b0; stroke-width: 0.8; stroke-linecap: square"/>
     </g>
     <g id="line2d_136">
      <g>
       <use xlink:href="#mcede6ab587" x="76.340625" y="703.8" style="stroke: #000000; stroke-width: 0.8"/>
      </g>
     </g>
     <g id="text_66">
      <!-- 2000 -->
      <g transform="translate(28.620625 709.87875) scale(0.16 -0.16)">
       <use xlink:href="#DejaVuSans-32"/>
       <use xlink:href="#DejaVuSans-30" x="63.623047"/>
       <use xlink:href="#DejaVuSans-30" x="127.246094"/>
       <use xlink:href="#DejaVuSans-30" x="190.869141"/>
      </g>
     </g>
    </g>
    <g id="ytick_15">
     <g id="line2d_137">
      <path d="M 76.340625 656.55 
L 1381.340625 656.55 
" clip-path="url(#pd25f7bcba2)" style="fill: none; stroke: #b0b0b0; stroke-width: 0.8; stroke-linecap: square"/>
     </g>
     <g id="line2d_138">
      <g>
       <use xlink:href="#mcede6ab587" x="76.340625" y="656.55" style="stroke: #000000; stroke-width: 0.8"/>
      </g>
     </g>
     <g id="text_67">
      <!-- 2500 -->
      <g transform="translate(28.620625 662.62875) scale(0.16 -0.16)">
       <use xlink:href="#DejaVuSans-32"/>
       <use xlink:href="#DejaVuSans-35" x="63.623047"/>
       <use xlink:href="#DejaVuSans-30" x="127.246094"/>
       <use xlink:href="#DejaVuSans-30" x="190.869141"/>
      </g>
     </g>
    </g>
    <g id="ytick_16">
     <g id="line2d_139">
      <path d="M 76.340625 609.3 
L 1381.340625 609.3 
" clip-path="url(#pd25f7bcba2)" style="fill: none; stroke: #b0b0b0; stroke-width: 0.8; stroke-linecap: square"/>
     </g>
     <g id="line2d_140">
      <g>
       <use xlink:href="#mcede6ab587" x="76.340625" y="609.3" style="stroke: #000000; stroke-width: 0.8"/>
      </g>
     </g>
     <g id="text_68">
      <!-- 3000 -->
      <g transform="translate(28.620625 615.37875) scale(0.16 -0.16)">
       <use xlink:href="#DejaVuSans-33"/>
       <use xlink:href="#DejaVuSans-30" x="63.623047"/>
       <use xlink:href="#DejaVuSans-30" x="127.246094"/>
       <use xlink:href="#DejaVuSans-30" x="190.869141"/>
      </g>
     </g>
    </g>
    <g id="ytick_17">
     <g id="line2d_141">
      <path d="M 76.340625 562.05 
L 1381.340625 562.05 
" clip-path="url(#pd25f7bcba2)" style="fill: none; stroke: #b0b0b0; stroke-width: 0.8; stroke-linecap: square"/>
     </g>
     <g id="line2d_142">
      <g>
       <use xlink:href="#mcede6ab587" x="76.340625" y="562.05" style="stroke: #000000; stroke-width: 0.8"/>
      </g>
     </g>
     <g id="text_69">
      <!-- 3500 -->
      <g transform="translate(28.620625 568.12875) scale(0.16 -0.16)">
       <use xlink:href="#DejaVuSans-33"/>
       <use xlink:href="#DejaVuSans-35" x="63.623047"/>
       <use xlink:href="#DejaVuSans-30" x="127.246094"/>
       <use xlink:href="#DejaVuSans-30" x="190.869141"/>
      </g>
     </g>
    </g>
    <g id="ytick_18">
     <g id="line2d_143">
      <path d="M 76.340625 514.8 
L 1381.340625 514.8 
" clip-path="url(#pd25f7bcba2)" style="fill: none; stroke: #b0b0b0; stroke-width: 0.8; stroke-linecap: square"/>
     </g>
     <g id="line2d_144">
      <g>
       <use xlink:href="#mcede6ab587" x="76.340625" y="514.8" style="stroke: #000000; stroke-width: 0.8"/>
      </g>
     </g>
     <g id="text_70">
      <!-- 4000 -->
      <g transform="translate(28.620625 520.87875) scale(0.16 -0.16)">
       <use xlink:href="#DejaVuSans-34"/>
       <use xlink:href="#DejaVuSans-30" x="63.623047"/>
       <use xlink:href="#DejaVuSans-30" x="127.246094"/>
       <use xlink:href="#DejaVuSans-30" x="190.869141"/>
      </g>
     </g>
    </g>
    <g id="text_71">
     <!-- Pedestrian flow (hourly sum) -->
     <g transform="translate(20.877188 833.065313) rotate(-90) scale(0.18 -0.18)">
      <use xlink:href="#DejaVuSans-50"/>
      <use xlink:href="#DejaVuSans-65" x="56.677734"/>
      <use xlink:href="#DejaVuSans-64" x="118.201172"/>
      <use xlink:href="#DejaVuSans-65" x="181.677734"/>
      <use xlink:href="#DejaVuSans-73" x="243.201172"/>
      <use xlink:href="#DejaVuSans-74" x="295.300781"/>
      <use xlink:href="#DejaVuSans-72" x="334.509766"/>
      <use xlink:href="#DejaVuSans-69" x="375.623047"/>
      <use xlink:href="#DejaVuSans-61" x="403.40625"/>
      <use xlink:href="#DejaVuSans-6e" x="464.685547"/>
      <use xlink:href="#DejaVuSans-20" x="528.064453"/>
      <use xlink:href="#DejaVuSans-66" x="559.851562"/>
      <use xlink:href="#DejaVuSans-6c" x="595.056641"/>
      <use xlink:href="#DejaVuSans-6f" x="622.839844"/>
      <use xlink:href="#DejaVuSans-77" x="684.021484"/>
      <use xlink:href="#DejaVuSans-20" x="765.808594"/>
      <use xlink:href="#DejaVuSans-28" x="797.595703"/>
      <use xlink:href="#DejaVuSans-68" x="836.609375"/>
      <use xlink:href="#DejaVuSans-6f" x="899.988281"/>
      <use xlink:href="#DejaVuSans-75" x="961.169922"/>
      <use xlink:href="#DejaVuSans-72" x="1024.548828"/>
      <use xlink:href="#DejaVuSans-6c" x="1065.662109"/>
      <use xlink:href="#DejaVuSans-79" x="1093.445312"/>
      <use xlink:href="#DejaVuSans-20" x="1152.625"/>
      <use xlink:href="#DejaVuSans-73" x="1184.412109"/>
      <use xlink:href="#DejaVuSans-75" x="1236.511719"/>
      <use xlink:href="#DejaVuSans-6d" x="1299.890625"/>
      <use xlink:href="#DejaVuSans-29" x="1397.302734"/>
     </g>
    </g>
   </g>
   <g id="line2d_145">
    <path d="M 135.658807 883.912352 
L 187.239834 886.947097 
L 238.820862 887.282775 
L 290.40189 887.717139 
L 341.982917 890.964458 
L 393.563945 890.321311 
L 445.144973 884.936685 
L 496.726 872.874443 
L 548.307028 850.29359 
L 599.888056 841.995581 
L 651.469083 798.539298 
L 703.050111 732.507861 
L 754.631139 688.020049 
L 806.212167 686.346934 
L 857.793194 701.08846 
L 909.374222 710.027855 
L 960.95525 717.830202 
L 1012.536277 753.054315 
L 1064.117305 795.929879 
L 1115.698333 835.167194 
L 1167.27936 858.872976 
L 1218.860388 867.845903 
L 1270.441416 870.278516 
L 1322.022443 880.111089 
" clip-path="url(#pd25f7bcba2)" style="fill: none; stroke: #22335c; stroke-width: 1.5; stroke-linecap: square"/>
   </g>
   <g id="line2d_146">
    <path d="M 135.658807 881.623227 
L 187.239834 884.539687 
L 238.820862 883.44275 
L 290.40189 884.648945 
L 341.982917 890.712409 
L 393.563945 890.434064 
L 445.144973 885.252027 
L 496.726 872.296936 
L 548.307028 843.977864 
L 599.888056 832.950573 
L 651.469083 779.698964 
L 703.050111 716.25475 
L 754.631139 667.3545 
L 806.212167 653.916027 
L 857.793194 675.774509 
L 909.374222 685.896545 
L 960.95525 697.8885 
L 1012.536277 728.986925 
L 1064.117305 780.534 
L 1115.698333 823.497623 
L 1167.27936 850.043045 
L 1218.860388 860.051292 
L 1270.441416 861.9755 
L 1322.022443 873.590727 
" clip-path="url(#pd25f7bcba2)" style="fill: none; stroke: #22335c; stroke-width: 1.5; stroke-linecap: square"/>
   </g>
   <g id="line2d_147">
    <path d="M 135.658807 882.534937 
L 187.239834 885.021158 
L 238.820862 885.289737 
L 290.40189 886.141895 
L 341.982917 890.290862 
L 393.563945 889.401203 
L 445.144973 880.909017 
L 496.726 866.732175 
L 548.307028 841.513935 
L 599.888056 825.42465 
L 651.469083 763.802852 
L 703.050111 715.542387 
L 754.631139 685.686484 
L 806.212167 685.456331 
L 857.793194 698.24279 
L 909.374222 707.823871 
L 960.95525 723.713589 
L 1012.536277 754.074 
L 1064.117305 787.245075 
L 1115.698333 831.943575 
L 1167.27936 854.510175 
L 1218.860388 863.544103 
L 1270.441416 861.554136 
L 1322.022443 873.362842 
" clip-path="url(#pd25f7bcba2)" style="fill: none; stroke: #1c4a6a; stroke-width: 1.5; stroke-linecap: square"/>
   </g>
   <g id="line2d_148">
    <path d="M 135.658807 890.123625 
L 187.239834 890.21 
L 238.820862 890.28252 
L 290.40189 891.749596 
L 341.982917 891.7668 
L 393.563945 889.01055 
L 445.144973 884.516586 
L 496.726 876.2562 
L 548.307028 865.887052 
L 599.888056 844.18605 
L 651.469083 823.62915 
L 703.050111 804.474 
L 754.631139 806.589 
L 806.212167 816.42119 
L 857.793194 825.219466 
L 909.374222 829.911879 
L 960.95525 844.784224 
L 1012.536277 852.8805 
L 1064.117305 871.048125 
L 1115.698333 880.580172 
L 1167.27936 883.379328 
L 1218.860388 881.42625 
L 1270.441416 886.17555 
L 1322.022443 889.336086 
" clip-path="url(#pd25f7bcba2)" style="fill: none; stroke: #166178; stroke-width: 1.5; stroke-linecap: square"/>
   </g>
   <g id="line2d_149">
    <path d="M 135.658807 890.223632 
L 187.239834 890.193789 
L 238.820862 890.631474 
L 290.40189 892.049559 
L 341.982917 892.198184 
L 393.563945 890.790632 
L 445.144973 888.6195 
L 496.726 883.625283 
L 548.307028 880.8125 
L 599.888056 870.217759 
L 651.469083 861.907645 
L 703.050111 852.588726 
L 754.631139 849.343034 
L 806.212167 850.570694 
L 857.793194 853.058177 
L 909.374222 853.666875 
L 960.95525 862.76475 
L 1012.536277 869.755034 
L 1064.117305 877.2075 
L 1115.698333 883.81872 
L 1167.27936 883.479316 
L 1218.860388 884.0115 
L 1270.441416 886.8645 
L 1322.022443 888.786237 
" clip-path="url(#pd25f7bcba2)" style="fill: none; stroke: #107886; stroke-width: 1.5; stroke-linecap: square"/>
   </g>
   <g id="line2d_150">
    <path d="M 135.658807 889.37595 
L 187.239834 889.0641 
L 238.820862 888.707172 
L 290.40189 891.8415 
L 341.982917 891.802862 
L 393.563945 889.2468 
L 445.144973 885.11715 
L 496.726 875.979 
L 548.307028 868.7907 
L 599.888056 846.393983 
L 651.469083 831.35295 
L 703.050111 813.75075 
L 754.631139 813.4011 
L 806.212167 815.70375 
L 857.793194 821.74545 
L 909.374222 827.1666 
L 960.95525 839.08305 
L 1012.536277 851.33025 
L 1064.117305 868.1355 
L 1115.698333 878.579379 
L 1167.27936 881.8443 
L 1218.860388 882.09945 
L 1270.441416 885.898241 
L 1322.022443 888.41205 
" clip-path="url(#pd25f7bcba2)" style="fill: none; stroke: #099094; stroke-width: 1.5; stroke-linecap: square"/>
   </g>
   <g id="line2d_151">
    <path d="M 135.658807 890.308 
L 187.239834 890.899875 
L 238.820862 891.281 
L 290.40189 891.770625 
L 341.982917 890.49825 
L 393.563945 888.231414 
L 445.144973 881.681586 
L 496.726 870.735879 
L 548.307028 866.00295 
L 599.888056 837.712597 
L 651.469083 819.711871 
L 703.050111 813.0609 
L 754.631139 806.7798 
L 806.212167 798.3 
L 857.793194 800.25615 
L 909.374222 803.17935 
L 960.95525 812.773742 
L 1012.536277 833.045516 
L 1064.117305 854.811 
L 1115.698333 872.18325 
L 1167.27936 876.588362 
L 1218.860388 874.510875 
L 1270.441416 880.76475 
L 1322.022443 888.193125 
" clip-path="url(#pd25f7bcba2)" style="fill: none; stroke: #03a7a2; stroke-width: 1.5; stroke-linecap: square"/>
   </g>
   <g id="line2d_152">
    <path d="M 135.658807 888.5475 
L 187.239834 888.959032 
L 238.820862 889.324839 
L 290.40189 891.223984 
L 341.982917 890.032065 
L 393.563945 884.612032 
L 445.144973 872.000855 
L 496.726 850.649952 
L 548.307028 846.882145 
L 599.888056 802.872581 
L 651.469083 759.929952 
L 703.050111 725.224065 
L 754.631139 710.988097 
L 806.212167 711.067355 
L 857.793194 731.665306 
L 909.374222 755.1135 
L 960.95525 767.980742 
L 1012.536277 803.210952 
L 1064.117305 827.04629 
L 1115.698333 852.698468 
L 1167.27936 863.855565 
L 1218.860388 869.065258 
L 1270.441416 879.786435 
L 1322.022443 886.617871 
" clip-path="url(#pd25f7bcba2)" style="fill: none; stroke: #17b49e; stroke-width: 1.5; stroke-linecap: square"/>
   </g>
   <g id="line2d_153">
    <path d="M 135.658807 881.8065 
L 187.239834 880.56225 
L 238.820862 884.037569 
L 290.40189 890.6265 
L 341.982917 890.16975 
L 393.563945 884.4336 
L 445.144973 868.22685 
L 496.726 835.7409 
L 548.307028 844.65855 
L 599.888056 803.7117 
L 651.469083 767.10555 
L 703.050111 751.8627 
L 754.631139 747.1692 
L 806.212167 738.8091 
L 857.793194 755.21745 
L 909.374222 756.9594 
L 960.95525 765.27225 
L 1012.536277 807.4098 
L 1064.117305 826.1082 
L 1115.698333 846.2304 
L 1167.27936 859.2084 
L 1218.860388 858.16575 
L 1270.441416 868.0032 
L 1322.022443 880.3575 
" clip-path="url(#pd25f7bcba2)" style="fill: none; stroke: #44b888; stroke-width: 1.5; stroke-linecap: square"/>
   </g>
   <g id="line2d_154">
    <path d="M 135.658807 881.099182 
L 187.239834 879.106091 
L 238.820862 881.099182 
L 290.40189 889.604182 
L 341.982917 890.076682 
L 393.563945 884.303591 
L 445.144973 869.346818 
L 496.726 844.802591 
L 548.307028 850.5585 
L 599.888056 809.5455 
L 651.469083 767.2095 
L 703.050111 714.439125 
L 754.631139 736.552125 
L 806.212167 700.552636 
L 857.793194 706.557682 
L 909.374222 720.285955 
L 960.95525 738.215182 
L 1012.536277 797.148818 
L 1064.117305 825.69555 
L 1115.698333 855.27405 
L 1167.27936 859.9896 
L 1218.860388 863.7696 
L 1270.441416 872.2935 
L 1322.022443 879.9585 
" clip-path="url(#pd25f7bcba2)" style="fill: none; stroke: #74bc71; stroke-width: 1.5; stroke-linecap: square"/>
   </g>
   <g id="line2d_155">
    <path d="M 135.658807 878.57208 
L 187.239834 881.53182 
L 238.820862 882.73008 
L 290.40189 884.34414 
L 341.982917 890.14644 
L 393.563945 889.5492 
L 445.144973 882.86238 
L 496.726 867.5307 
L 548.307028 834.18354 
L 599.888056 815.4045 
L 651.469083 739.04472 
L 703.050111 645.12306 
L 754.631139 561.81186 
L 806.212167 536.30064 
L 857.793194 584.70354 
L 909.374222 600.631442 
L 960.95525 612.294923 
L 1012.536277 652.650058 
L 1064.117305 708.608596 
L 1115.698333 776.350558 
L 1167.27936 831.778442 
L 1218.860388 846.604038 
L 1270.441416 846.687635 
L 1322.022443 867.270462 
" clip-path="url(#pd25f7bcba2)" style="fill: none; stroke: #a2c05b; stroke-width: 1.5; stroke-linecap: square"/>
   </g>
   <g id="line2d_156">
    <path d="M 135.658807 883.715519 
L 187.239834 886.904654 
L 238.820862 887.050324 
L 290.40189 887.142481 
L 341.982917 890.83825 
L 393.563945 890.27825 
L 445.144973 884.674853 
L 496.726 872.637136 
L 548.307028 841 
L 599.888056 797.970109 
L 651.469083 706.611821 
L 703.050111 607.3155 
L 754.631139 567.960545 
L 806.212167 542.944644 
L 857.793194 583.15725 
L 909.374222 591.810231 
L 960.95525 617.947642 
L 1012.536277 668.28799 
L 1064.117305 729.581824 
L 1115.698333 788.484027 
L 1167.27936 840.47426 
L 1218.860388 856.767706 
L 1270.441416 864.10175 
L 1322.022443 876.9905 
" clip-path="url(#pd25f7bcba2)" style="fill: none; stroke: #cfc445; stroke-width: 1.5; stroke-linecap: square"/>
   </g>
   <g id="patch_8">
    <path d="M 76.340625 892.8 
L 76.340625 514.8 
" style="fill: none; stroke: #000000; stroke-width: 0.8; stroke-linejoin: miter; stroke-linecap: square"/>
   </g>
   <g id="patch_9">
    <path d="M 1381.340625 892.8 
L 1381.340625 514.8 
" style="fill: none; stroke: #000000; stroke-width: 0.8; stroke-linejoin: miter; stroke-linecap: square"/>
   </g>
   <g id="patch_10">
    <path d="M 76.340625 892.8 
L 1381.340625 892.8 
" style="fill: none; stroke: #000000; stroke-width: 0.8; stroke-linejoin: miter; stroke-linecap: square"/>
   </g>
   <g id="patch_11">
    <path d="M 76.340625 514.8 
L 1381.340625 514.8 
" style="fill: none; stroke: #000000; stroke-width: 0.8; stroke-linejoin: miter; stroke-linecap: square"/>
   </g>
   <g id="text_72">
    <!-- West -->
    <g transform="translate(705.486953 508.8) scale(0.19 -0.19)">
     <defs>
      <path id="DejaVuSans-57" d="M 213 4666 
L 850 4666 
L 1831 722 
L 2809 4666 
L 3519 4666 
L 4500 722 
L 5478 4666 
L 6119 4666 
L 4947 0 
L 4153 0 
L 3169 4050 
L 2175 0 
L 1381 0 
L 213 4666 
z
" transform="scale(0.015625)"/>
     </defs>
     <use xlink:href="#DejaVuSans-57"/>
     <use xlink:href="#DejaVuSans-65" x="93.001953"/>
     <use xlink:href="#DejaVuSans-73" x="154.525391"/>
     <use xlink:href="#DejaVuSans-74" x="206.625"/>
    </g>
   </g>
  </g>
  <g id="axes_3">
   <g id="patch_12">
    <path d="M 1435.340625 849.6 
L 1453.340625 849.6 
L 1453.340625 93.6 
L 1435.340625 93.6 
z
" style="fill: #ffffff"/>
   </g>
   <g id="QuadMesh_1">
    <path d="M 1435.340625 849.6 
L 1453.340625 849.6 
L 1453.340625 786.6 
L 1435.340625 786.6 
L 1435.340625 849.6 
" clip-path="url(#p732e7a0a88)" style="fill: #22335c"/>
    <path d="M 1435.340625 786.6 
L 1453.340625 786.6 
L 1453.340625 723.6 
L 1435.340625 723.6 
L 1435.340625 786.6 
" clip-path="url(#p732e7a0a88)" style="fill: #1c4a6a"/>
    <path d="M 1435.340625 723.6 
L 1453.340625 723.6 
L 1453.340625 660.6 
L 1435.340625 660.6 
L 1435.340625 723.6 
" clip-path="url(#p732e7a0a88)" style="fill: #166178"/>
    <path d="M 1435.340625 660.6 
L 1453.340625 660.6 
L 1453.340625 597.6 
L 1435.340625 597.6 
L 1435.340625 660.6 
" clip-path="url(#p732e7a0a88)" style="fill: #107886"/>
    <path d="M 1435.340625 597.6 
L 1453.340625 597.6 
L 1453.340625 534.6 
L 1435.340625 534.6 
L 1435.340625 597.6 
" clip-path="url(#p732e7a0a88)" style="fill: #099094"/>
    <path d="M 1435.340625 534.6 
L 1453.340625 534.6 
L 1453.340625 471.6 
L 1435.340625 471.6 
L 1435.340625 534.6 
" clip-path="url(#p732e7a0a88)" style="fill: #03a7a2"/>
    <path d="M 1435.340625 471.6 
L 1453.340625 471.6 
L 1453.340625 408.6 
L 1435.340625 408.6 
L 1435.340625 471.6 
" clip-path="url(#p732e7a0a88)" style="fill: #17b49e"/>
    <path d="M 1435.340625 408.6 
L 1453.340625 408.6 
L 1453.340625 345.6 
L 1435.340625 345.6 
L 1435.340625 408.6 
" clip-path="url(#p732e7a0a88)" style="fill: #44b888"/>
    <path d="M 1435.340625 345.6 
L 1453.340625 345.6 
L 1453.340625 282.6 
L 1435.340625 282.6 
L 1435.340625 345.6 
" clip-path="url(#p732e7a0a88)" style="fill: #74bc71"/>
    <path d="M 1435.340625 282.6 
L 1453.340625 282.6 
L 1453.340625 219.6 
L 1435.340625 219.6 
L 1435.340625 282.6 
" clip-path="url(#p732e7a0a88)" style="fill: #a2c05b"/>
    <path d="M 1435.340625 219.6 
L 1453.340625 219.6 
L 1453.340625 156.6 
L 1435.340625 156.6 
L 1435.340625 219.6 
" clip-path="url(#p732e7a0a88)" style="fill: #cfc445"/>
    <path d="M 1435.340625 156.6 
L 1453.340625 156.6 
L 1453.340625 93.6 
L 1435.340625 93.6 
L 1435.340625 156.6 
" clip-path="url(#p732e7a0a88)" style="fill: #fdc82f"/>
   </g>
   <g id="matplotlib.axis_5"/>
   <g id="matplotlib.axis_6">
    <g id="ytick_19">
     <g id="line2d_157">
      <defs>
       <path id="ma7d2fba2f8" d="M 0 0 
L 3.5 0 
" style="stroke: #000000; stroke-width: 0.8"/>
      </defs>
      <g>
       <use xlink:href="#ma7d2fba2f8" x="1453.340625" y="849.6" style="stroke: #000000; stroke-width: 0.8"/>
      </g>
     </g>
     <g id="text_73">
      <!-- Jan -->
      <g transform="translate(1460.340625 855.67875) scale(0.16 -0.16)">
       <defs>
        <path id="DejaVuSans-4a" d="M 628 4666 
L 1259 4666 
L 1259 325 
Q 1259 -519 939 -900 
Q 619 -1281 -91 -1281 
L -331 -1281 
L -331 -750 
L -134 -750 
Q 284 -750 456 -515 
Q 628 -281 628 325 
L 628 4666 
z
" transform="scale(0.015625)"/>
       </defs>
       <use xlink:href="#DejaVuSans-4a"/>
       <use xlink:href="#DejaVuSans-61" x="29.492188"/>
       <use xlink:href="#DejaVuSans-6e" x="90.771484"/>
      </g>
     </g>
    </g>
    <g id="ytick_20">
     <g id="line2d_158">
      <g>
       <use xlink:href="#ma7d2fba2f8" x="1453.340625" y="780.872727" style="stroke: #000000; stroke-width: 0.8"/>
      </g>
     </g>
     <g id="text_74">
      <!-- Feb -->
      <g transform="translate(1460.340625 786.951477) scale(0.16 -0.16)">
       <defs>
        <path id="DejaVuSans-46" d="M 628 4666 
L 3309 4666 
L 3309 4134 
L 1259 4134 
L 1259 2759 
L 3109 2759 
L 3109 2228 
L 1259 2228 
L 1259 0 
L 628 0 
L 628 4666 
z
" transform="scale(0.015625)"/>
        <path id="DejaVuSans-62" d="M 3116 1747 
Q 3116 2381 2855 2742 
Q 2594 3103 2138 3103 
Q 1681 3103 1420 2742 
Q 1159 2381 1159 1747 
Q 1159 1113 1420 752 
Q 1681 391 2138 391 
Q 2594 391 2855 752 
Q 3116 1113 3116 1747 
z
M 1159 2969 
Q 1341 3281 1617 3432 
Q 1894 3584 2278 3584 
Q 2916 3584 3314 3078 
Q 3713 2572 3713 1747 
Q 3713 922 3314 415 
Q 2916 -91 2278 -91 
Q 1894 -91 1617 61 
Q 1341 213 1159 525 
L 1159 0 
L 581 0 
L 581 4863 
L 1159 4863 
L 1159 2969 
z
" transform="scale(0.015625)"/>
       </defs>
       <use xlink:href="#DejaVuSans-46"/>
       <use xlink:href="#DejaVuSans-65" x="52.019531"/>
       <use xlink:href="#DejaVuSans-62" x="113.542969"/>
      </g>
     </g>
    </g>
    <g id="ytick_21">
     <g id="line2d_159">
      <g>
       <use xlink:href="#ma7d2fba2f8" x="1453.340625" y="712.145455" style="stroke: #000000; stroke-width: 0.8"/>
      </g>
     </g>
     <g id="text_75">
      <!-- Mar -->
      <g transform="translate(1460.340625 718.224205) scale(0.16 -0.16)">
       <defs>
        <path id="DejaVuSans-4d" d="M 628 4666 
L 1569 4666 
L 2759 1491 
L 3956 4666 
L 4897 4666 
L 4897 0 
L 4281 0 
L 4281 4097 
L 3078 897 
L 2444 897 
L 1241 4097 
L 1241 0 
L 628 0 
L 628 4666 
z
" transform="scale(0.015625)"/>
       </defs>
       <use xlink:href="#DejaVuSans-4d"/>
       <use xlink:href="#DejaVuSans-61" x="86.279297"/>
       <use xlink:href="#DejaVuSans-72" x="147.558594"/>
      </g>
     </g>
    </g>
    <g id="ytick_22">
     <g id="line2d_160">
      <g>
       <use xlink:href="#ma7d2fba2f8" x="1453.340625" y="643.418182" style="stroke: #000000; stroke-width: 0.8"/>
      </g>
     </g>
     <g id="text_76">
      <!-- Apr -->
      <g transform="translate(1460.340625 649.496932) scale(0.16 -0.16)">
       <defs>
        <path id="DejaVuSans-41" d="M 2188 4044 
L 1331 1722 
L 3047 1722 
L 2188 4044 
z
M 1831 4666 
L 2547 4666 
L 4325 0 
L 3669 0 
L 3244 1197 
L 1141 1197 
L 716 0 
L 50 0 
L 1831 4666 
z
" transform="scale(0.015625)"/>
        <path id="DejaVuSans-70" d="M 1159 525 
L 1159 -1331 
L 581 -1331 
L 581 3500 
L 1159 3500 
L 1159 2969 
Q 1341 3281 1617 3432 
Q 1894 3584 2278 3584 
Q 2916 3584 3314 3078 
Q 3713 2572 3713 1747 
Q 3713 922 3314 415 
Q 2916 -91 2278 -91 
Q 1894 -91 1617 61 
Q 1341 213 1159 525 
z
M 3116 1747 
Q 3116 2381 2855 2742 
Q 2594 3103 2138 3103 
Q 1681 3103 1420 2742 
Q 1159 2381 1159 1747 
Q 1159 1113 1420 752 
Q 1681 391 2138 391 
Q 2594 391 2855 752 
Q 3116 1113 3116 1747 
z
" transform="scale(0.015625)"/>
       </defs>
       <use xlink:href="#DejaVuSans-41"/>
       <use xlink:href="#DejaVuSans-70" x="68.408203"/>
       <use xlink:href="#DejaVuSans-72" x="131.884766"/>
      </g>
     </g>
    </g>
    <g id="ytick_23">
     <g id="line2d_161">
      <g>
       <use xlink:href="#ma7d2fba2f8" x="1453.340625" y="574.690909" style="stroke: #000000; stroke-width: 0.8"/>
      </g>
     </g>
     <g id="text_77">
      <!-- May -->
      <g transform="translate(1460.340625 580.769659) scale(0.16 -0.16)">
       <use xlink:href="#DejaVuSans-4d"/>
       <use xlink:href="#DejaVuSans-61" x="86.279297"/>
       <use xlink:href="#DejaVuSans-79" x="147.558594"/>
      </g>
     </g>
    </g>
    <g id="ytick_24">
     <g id="line2d_162">
      <g>
       <use xlink:href="#ma7d2fba2f8" x="1453.340625" y="505.963636" style="stroke: #000000; stroke-width: 0.8"/>
      </g>
     </g>
     <g id="text_78">
      <!-- Jun -->
      <g transform="translate(1460.340625 512.042386) scale(0.16 -0.16)">
       <use xlink:href="#DejaVuSans-4a"/>
       <use xlink:href="#DejaVuSans-75" x="29.492188"/>
       <use xlink:href="#DejaVuSans-6e" x="92.871094"/>
      </g>
     </g>
    </g>
    <g id="ytick_25">
     <g id="line2d_163">
      <g>
       <use xlink:href="#ma7d2fba2f8" x="1453.340625" y="437.236364" style="stroke: #000000; stroke-width: 0.8"/>
      </g>
     </g>
     <g id="text_79">
      <!-- Jul -->
      <g transform="translate(1460.340625 443.315114) scale(0.16 -0.16)">
       <use xlink:href="#DejaVuSans-4a"/>
       <use xlink:href="#DejaVuSans-75" x="29.492188"/>
       <use xlink:href="#DejaVuSans-6c" x="92.871094"/>
      </g>
     </g>
    </g>
    <g id="ytick_26">
     <g id="line2d_164">
      <g>
       <use xlink:href="#ma7d2fba2f8" x="1453.340625" y="368.509091" style="stroke: #000000; stroke-width: 0.8"/>
      </g>
     </g>
     <g id="text_80">
      <!-- Aug -->
      <g transform="translate(1460.340625 374.587841) scale(0.16 -0.16)">
       <defs>
        <path id="DejaVuSans-67" d="M 2906 1791 
Q 2906 2416 2648 2759 
Q 2391 3103 1925 3103 
Q 1463 3103 1205 2759 
Q 947 2416 947 1791 
Q 947 1169 1205 825 
Q 1463 481 1925 481 
Q 2391 481 2648 825 
Q 2906 1169 2906 1791 
z
M 3481 434 
Q 3481 -459 3084 -895 
Q 2688 -1331 1869 -1331 
Q 1566 -1331 1297 -1286 
Q 1028 -1241 775 -1147 
L 775 -588 
Q 1028 -725 1275 -790 
Q 1522 -856 1778 -856 
Q 2344 -856 2625 -561 
Q 2906 -266 2906 331 
L 2906 616 
Q 2728 306 2450 153 
Q 2172 0 1784 0 
Q 1141 0 747 490 
Q 353 981 353 1791 
Q 353 2603 747 3093 
Q 1141 3584 1784 3584 
Q 2172 3584 2450 3431 
Q 2728 3278 2906 2969 
L 2906 3500 
L 3481 3500 
L 3481 434 
z
" transform="scale(0.015625)"/>
       </defs>
       <use xlink:href="#DejaVuSans-41"/>
       <use xlink:href="#DejaVuSans-75" x="68.408203"/>
       <use xlink:href="#DejaVuSans-67" x="131.787109"/>
      </g>
     </g>
    </g>
    <g id="ytick_27">
     <g id="line2d_165">
      <g>
       <use xlink:href="#ma7d2fba2f8" x="1453.340625" y="299.781818" style="stroke: #000000; stroke-width: 0.8"/>
      </g>
     </g>
     <g id="text_81">
      <!-- Sep -->
      <g transform="translate(1460.340625 305.860568) scale(0.16 -0.16)">
       <defs>
        <path id="DejaVuSans-53" d="M 3425 4513 
L 3425 3897 
Q 3066 4069 2747 4153 
Q 2428 4238 2131 4238 
Q 1616 4238 1336 4038 
Q 1056 3838 1056 3469 
Q 1056 3159 1242 3001 
Q 1428 2844 1947 2747 
L 2328 2669 
Q 3034 2534 3370 2195 
Q 3706 1856 3706 1288 
Q 3706 609 3251 259 
Q 2797 -91 1919 -91 
Q 1588 -91 1214 -16 
Q 841 59 441 206 
L 441 856 
Q 825 641 1194 531 
Q 1563 422 1919 422 
Q 2459 422 2753 634 
Q 3047 847 3047 1241 
Q 3047 1584 2836 1778 
Q 2625 1972 2144 2069 
L 1759 2144 
Q 1053 2284 737 2584 
Q 422 2884 422 3419 
Q 422 4038 858 4394 
Q 1294 4750 2059 4750 
Q 2388 4750 2728 4690 
Q 3069 4631 3425 4513 
z
" transform="scale(0.015625)"/>
       </defs>
       <use xlink:href="#DejaVuSans-53"/>
       <use xlink:href="#DejaVuSans-65" x="63.476562"/>
       <use xlink:href="#DejaVuSans-70" x="125"/>
      </g>
     </g>
    </g>
    <g id="ytick_28">
     <g id="line2d_166">
      <g>
       <use xlink:href="#ma7d2fba2f8" x="1453.340625" y="231.054545" style="stroke: #000000; stroke-width: 0.8"/>
      </g>
     </g>
     <g id="text_82">
      <!-- Oct -->
      <g transform="translate(1460.340625 237.133295) scale(0.16 -0.16)">
       <defs>
        <path id="DejaVuSans-4f" d="M 2522 4238 
Q 1834 4238 1429 3725 
Q 1025 3213 1025 2328 
Q 1025 1447 1429 934 
Q 1834 422 2522 422 
Q 3209 422 3611 934 
Q 4013 1447 4013 2328 
Q 4013 3213 3611 3725 
Q 3209 4238 2522 4238 
z
M 2522 4750 
Q 3503 4750 4090 4092 
Q 4678 3434 4678 2328 
Q 4678 1225 4090 567 
Q 3503 -91 2522 -91 
Q 1538 -91 948 565 
Q 359 1222 359 2328 
Q 359 3434 948 4092 
Q 1538 4750 2522 4750 
z
" transform="scale(0.015625)"/>
        <path id="DejaVuSans-63" d="M 3122 3366 
L 3122 2828 
Q 2878 2963 2633 3030 
Q 2388 3097 2138 3097 
Q 1578 3097 1268 2742 
Q 959 2388 959 1747 
Q 959 1106 1268 751 
Q 1578 397 2138 397 
Q 2388 397 2633 464 
Q 2878 531 3122 666 
L 3122 134 
Q 2881 22 2623 -34 
Q 2366 -91 2075 -91 
Q 1284 -91 818 406 
Q 353 903 353 1747 
Q 353 2603 823 3093 
Q 1294 3584 2113 3584 
Q 2378 3584 2631 3529 
Q 2884 3475 3122 3366 
z
" transform="scale(0.015625)"/>
       </defs>
       <use xlink:href="#DejaVuSans-4f"/>
       <use xlink:href="#DejaVuSans-63" x="78.710938"/>
       <use xlink:href="#DejaVuSans-74" x="133.691406"/>
      </g>
     </g>
    </g>
    <g id="ytick_29">
     <g id="line2d_167">
      <g>
       <use xlink:href="#ma7d2fba2f8" x="1453.340625" y="162.327273" style="stroke: #000000; stroke-width: 0.8"/>
      </g>
     </g>
     <g id="text_83">
      <!-- Nov -->
      <g transform="translate(1460.340625 168.406023) scale(0.16 -0.16)">
       <defs>
        <path id="DejaVuSans-4e" d="M 628 4666 
L 1478 4666 
L 3547 763 
L 3547 4666 
L 4159 4666 
L 4159 0 
L 3309 0 
L 1241 3903 
L 1241 0 
L 628 0 
L 628 4666 
z
" transform="scale(0.015625)"/>
        <path id="DejaVuSans-76" d="M 191 3500 
L 800 3500 
L 1894 563 
L 2988 3500 
L 3597 3500 
L 2284 0 
L 1503 0 
L 191 3500 
z
" transform="scale(0.015625)"/>
       </defs>
       <use xlink:href="#DejaVuSans-4e"/>
       <use xlink:href="#DejaVuSans-6f" x="74.804688"/>
       <use xlink:href="#DejaVuSans-76" x="135.986328"/>
      </g>
     </g>
    </g>
    <g id="ytick_30">
     <g id="line2d_168">
      <g>
       <use xlink:href="#ma7d2fba2f8" x="1453.340625" y="93.6" style="stroke: #000000; stroke-width: 0.8"/>
      </g>
     </g>
     <g id="text_84">
      <!-- Dec -->
      <g transform="translate(1460.340625 99.67875) scale(0.16 -0.16)">
       <defs>
        <path id="DejaVuSans-44" d="M 1259 4147 
L 1259 519 
L 2022 519 
Q 2988 519 3436 956 
Q 3884 1394 3884 2338 
Q 3884 3275 3436 3711 
Q 2988 4147 2022 4147 
L 1259 4147 
z
M 628 4666 
L 1925 4666 
Q 3281 4666 3915 4102 
Q 4550 3538 4550 2338 
Q 4550 1131 3912 565 
Q 3275 0 1925 0 
L 628 0 
L 628 4666 
z
" transform="scale(0.015625)"/>
       </defs>
       <use xlink:href="#DejaVuSans-44"/>
       <use xlink:href="#DejaVuSans-65" x="77.001953"/>
       <use xlink:href="#DejaVuSans-63" x="138.525391"/>
      </g>
     </g>
    </g>
    <g id="text_85">
     <!-- Month -->
     <g transform="translate(1511.097812 499.807969) rotate(-90) scale(0.18 -0.18)">
      <use xlink:href="#DejaVuSans-4d"/>
      <use xlink:href="#DejaVuSans-6f" x="86.279297"/>
      <use xlink:href="#DejaVuSans-6e" x="147.460938"/>
      <use xlink:href="#DejaVuSans-74" x="210.839844"/>
      <use xlink:href="#DejaVuSans-68" x="250.048828"/>
     </g>
    </g>
   </g>
   <g id="LineCollection_1"/>
   <g id="patch_13">
    <path d="M 1435.340625 849.6 
L 1444.340625 849.6 
L 1453.340625 849.6 
L 1453.340625 93.6 
L 1444.340625 93.6 
L 1435.340625 93.6 
L 1435.340625 849.6 
z
" style="fill: none; stroke: #000000; stroke-width: 0.8; stroke-linejoin: miter; stroke-linecap: square"/>
   </g>
  </g>
  <g id="text_86">
   <!-- Average flow by month -->
   <g transform="translate(612.24 25.43625) scale(0.24 -0.24)">
    <use xlink:href="#DejaVuSans-41"/>
    <use xlink:href="#DejaVuSans-76" x="62.533203"/>
    <use xlink:href="#DejaVuSans-65" x="121.712891"/>
    <use xlink:href="#DejaVuSans-72" x="183.236328"/>
    <use xlink:href="#DejaVuSans-61" x="224.349609"/>
    <use xlink:href="#DejaVuSans-67" x="285.628906"/>
    <use xlink:href="#DejaVuSans-65" x="349.105469"/>
    <use xlink:href="#DejaVuSans-20" x="410.628906"/>
    <use xlink:href="#DejaVuSans-66" x="442.416016"/>
    <use xlink:href="#DejaVuSans-6c" x="477.621094"/>
    <use xlink:href="#DejaVuSans-6f" x="505.404297"/>
    <use xlink:href="#DejaVuSans-77" x="566.585938"/>
    <use xlink:href="#DejaVuSans-20" x="648.373047"/>
    <use xlink:href="#DejaVuSans-62" x="680.160156"/>
    <use xlink:href="#DejaVuSans-79" x="743.636719"/>
    <use xlink:href="#DejaVuSans-20" x="802.816406"/>
    <use xlink:href="#DejaVuSans-6d" x="834.603516"/>
    <use xlink:href="#DejaVuSans-6f" x="932.015625"/>
    <use xlink:href="#DejaVuSans-6e" x="993.197266"/>
    <use xlink:href="#DejaVuSans-74" x="1056.576172"/>
    <use xlink:href="#DejaVuSans-68" x="1095.785156"/>
   </g>
  </g>
 </g>
 <defs>
  <clipPath id="p9837eda5b7">
   <rect x="76.340625" y="61.2" width="1305" height="378"/>
  </clipPath>
  <clipPath id="pd25f7bcba2">
   <rect x="76.340625" y="514.8" width="1305" height="378"/>
  </clipPath>
  <clipPath id="p732e7a0a88">
   <rect x="1435.340625" y="93.6" width="18" height="756"/>
  </clipPath>
 </defs>
</svg>
