<?xml version="1.0" encoding="utf-8" standalone="no"?>
<!DOCTYPE svg PUBLIC "-//W3C//DTD SVG 1.1//EN"
  "http://www.w3.org/Graphics/SVG/1.1/DTD/svg11.dtd">
<svg xmlns:xlink="http://www.w3.org/1999/xlink" width="1478.88125pt" height="891.474375pt" viewBox="0 0 1478.88125 891.474375" xmlns="http://www.w3.org/2000/svg" version="1.1">
 <metadata>
  <rdf:RDF xmlns:dc="http://purl.org/dc/elements/1.1/" xmlns:cc="http://creativecommons.org/ns#" xmlns:rdf="http://www.w3.org/1999/02/22-rdf-syntax-ns#">
   <cc:Work>
    <dc:type rdf:resource="http://purl.org/dc/dcmitype/StillImage"/>
    <dc:date>2023-06-29T10:06:39.499228</dc:date>
    <dc:format>image/svg+xml</dc:format>
    <dc:creator>
     <cc:Agent>
      <dc:title>Matplotlib v3.7.1, https://matplotlib.org/</dc:title>
     </cc:Agent>
    </dc:creator>
   </cc:Work>
  </rdf:RDF>
 </metadata>
 <defs>
  <style type="text/css">*{stroke-linejoin: round; stroke-linecap: butt}</style>
 </defs>
 <g id="figure_1">
  <g id="patch_1">
   <path d="M 0 891.474375 
L 1478.88125 891.474375 
L 1478.88125 0 
L 0 0 
z
" style="fill: #ffffff"/>
  </g>
  <g id="axes_1">
   <g id="patch_2">
    <path d="M 53.328125 409.108823 
L 1358.328125 409.108823 
L 1358.328125 22.318125 
L 53.328125 22.318125 
z
" style="fill: #ffffff"/>
   </g>
   <g id="matplotlib.axis_1">
    <g id="xtick_1">
     <g id="line2d_1">
      <path d="M 112.646307 409.108823 
L 112.646307 22.318125 
" clip-path="url(#p26ff79e777)" style="fill: none; stroke: #b0b0b0; stroke-width: 0.8; stroke-linecap: square"/>
     </g>
     <g id="line2d_2">
      <defs>
       <path id="m8619cec221" d="M 0 0 
L 0 3.5 
" style="stroke: #000000; stroke-width: 0.8"/>
      </defs>
      <g>
       <use xlink:href="#m8619cec221" x="112.646307" y="409.108823" style="stroke: #000000; stroke-width: 0.8"/>
      </g>
     </g>
     <g id="text_1">
      <!-- 0 -->
      <g transform="translate(109.465057 423.70726) scale(0.1 -0.1)">
       <defs>
        <path id="DejaVuSans-30" d="M 2034 4250 
Q 1547 4250 1301 3770 
Q 1056 3291 1056 2328 
Q 1056 1369 1301 889 
Q 1547 409 2034 409 
Q 2525 409 2770 889 
Q 3016 1369 3016 2328 
Q 3016 3291 2770 3770 
Q 2525 4250 2034 4250 
z
M 2034 4750 
Q 2819 4750 3233 4129 
Q 3647 3509 3647 2328 
Q 3647 1150 3233 529 
Q 2819 -91 2034 -91 
Q 1250 -91 836 529 
Q 422 1150 422 2328 
Q 422 3509 836 4129 
Q 1250 4750 2034 4750 
z
" transform="scale(0.015625)"/>
       </defs>
       <use xlink:href="#DejaVuSans-30"/>
      </g>
     </g>
    </g>
    <g id="xtick_2">
     <g id="line2d_3">
      <path d="M 164.227334 409.108823 
L 164.227334 22.318125 
" clip-path="url(#p26ff79e777)" style="fill: none; stroke: #b0b0b0; stroke-width: 0.8; stroke-linecap: square"/>
     </g>
     <g id="line2d_4">
      <g>
       <use xlink:href="#m8619cec221" x="164.227334" y="409.108823" style="stroke: #000000; stroke-width: 0.8"/>
      </g>
     </g>
     <g id="text_2">
      <!-- 1 -->
      <g transform="translate(161.046084 423.70726) scale(0.1 -0.1)">
       <defs>
        <path id="DejaVuSans-31" d="M 794 531 
L 1825 531 
L 1825 4091 
L 703 3866 
L 703 4441 
L 1819 4666 
L 2450 4666 
L 2450 531 
L 3481 531 
L 3481 0 
L 794 0 
L 794 531 
z
" transform="scale(0.015625)"/>
       </defs>
       <use xlink:href="#DejaVuSans-31"/>
      </g>
     </g>
    </g>
    <g id="xtick_3">
     <g id="line2d_5">
      <path d="M 215.808362 409.108823 
L 215.808362 22.318125 
" clip-path="url(#p26ff79e777)" style="fill: none; stroke: #b0b0b0; stroke-width: 0.8; stroke-linecap: square"/>
     </g>
     <g id="line2d_6">
      <g>
       <use xlink:href="#m8619cec221" x="215.808362" y="409.108823" style="stroke: #000000; stroke-width: 0.8"/>
      </g>
     </g>
     <g id="text_3">
      <!-- 2 -->
      <g transform="translate(212.627112 423.70726) scale(0.1 -0.1)">
       <defs>
        <path id="DejaVuSans-32" d="M 1228 531 
L 3431 531 
L 3431 0 
L 469 0 
L 469 531 
Q 828 903 1448 1529 
Q 2069 2156 2228 2338 
Q 2531 2678 2651 2914 
Q 2772 3150 2772 3378 
Q 2772 3750 2511 3984 
Q 2250 4219 1831 4219 
Q 1534 4219 1204 4116 
Q 875 4013 500 3803 
L 500 4441 
Q 881 4594 1212 4672 
Q 1544 4750 1819 4750 
Q 2544 4750 2975 4387 
Q 3406 4025 3406 3419 
Q 3406 3131 3298 2873 
Q 3191 2616 2906 2266 
Q 2828 2175 2409 1742 
Q 1991 1309 1228 531 
z
" transform="scale(0.015625)"/>
       </defs>
       <use xlink:href="#DejaVuSans-32"/>
      </g>
     </g>
    </g>
    <g id="xtick_4">
     <g id="line2d_7">
      <path d="M 267.38939 409.108823 
L 267.38939 22.318125 
" clip-path="url(#p26ff79e777)" style="fill: none; stroke: #b0b0b0; stroke-width: 0.8; stroke-linecap: square"/>
     </g>
     <g id="line2d_8">
      <g>
       <use xlink:href="#m8619cec221" x="267.38939" y="409.108823" style="stroke: #000000; stroke-width: 0.8"/>
      </g>
     </g>
     <g id="text_4">
      <!-- 3 -->
      <g transform="translate(264.20814 423.70726) scale(0.1 -0.1)">
       <defs>
        <path id="DejaVuSans-33" d="M 2597 2516 
Q 3050 2419 3304 2112 
Q 3559 1806 3559 1356 
Q 3559 666 3084 287 
Q 2609 -91 1734 -91 
Q 1441 -91 1130 -33 
Q 819 25 488 141 
L 488 750 
Q 750 597 1062 519 
Q 1375 441 1716 441 
Q 2309 441 2620 675 
Q 2931 909 2931 1356 
Q 2931 1769 2642 2001 
Q 2353 2234 1838 2234 
L 1294 2234 
L 1294 2753 
L 1863 2753 
Q 2328 2753 2575 2939 
Q 2822 3125 2822 3475 
Q 2822 3834 2567 4026 
Q 2313 4219 1838 4219 
Q 1578 4219 1281 4162 
Q 984 4106 628 3988 
L 628 4550 
Q 988 4650 1302 4700 
Q 1616 4750 1894 4750 
Q 2613 4750 3031 4423 
Q 3450 4097 3450 3541 
Q 3450 3153 3228 2886 
Q 3006 2619 2597 2516 
z
" transform="scale(0.015625)"/>
       </defs>
       <use xlink:href="#DejaVuSans-33"/>
      </g>
     </g>
    </g>
    <g id="xtick_5">
     <g id="line2d_9">
      <path d="M 318.970417 409.108823 
L 318.970417 22.318125 
" clip-path="url(#p26ff79e777)" style="fill: none; stroke: #b0b0b0; stroke-width: 0.8; stroke-linecap: square"/>
     </g>
     <g id="line2d_10">
      <g>
       <use xlink:href="#m8619cec221" x="318.970417" y="409.108823" style="stroke: #000000; stroke-width: 0.8"/>
      </g>
     </g>
     <g id="text_5">
      <!-- 4 -->
      <g transform="translate(315.789167 423.70726) scale(0.1 -0.1)">
       <defs>
        <path id="DejaVuSans-34" d="M 2419 4116 
L 825 1625 
L 2419 1625 
L 2419 4116 
z
M 2253 4666 
L 3047 4666 
L 3047 1625 
L 3713 1625 
L 3713 1100 
L 3047 1100 
L 3047 0 
L 2419 0 
L 2419 1100 
L 313 1100 
L 313 1709 
L 2253 4666 
z
" transform="scale(0.015625)"/>
       </defs>
       <use xlink:href="#DejaVuSans-34"/>
      </g>
     </g>
    </g>
    <g id="xtick_6">
     <g id="line2d_11">
      <path d="M 370.551445 409.108823 
L 370.551445 22.318125 
" clip-path="url(#p26ff79e777)" style="fill: none; stroke: #b0b0b0; stroke-width: 0.8; stroke-linecap: square"/>
     </g>
     <g id="line2d_12">
      <g>
       <use xlink:href="#m8619cec221" x="370.551445" y="409.108823" style="stroke: #000000; stroke-width: 0.8"/>
      </g>
     </g>
     <g id="text_6">
      <!-- 5 -->
      <g transform="translate(367.370195 423.70726) scale(0.1 -0.1)">
       <defs>
        <path id="DejaVuSans-35" d="M 691 4666 
L 3169 4666 
L 3169 4134 
L 1269 4134 
L 1269 2991 
Q 1406 3038 1543 3061 
Q 1681 3084 1819 3084 
Q 2600 3084 3056 2656 
Q 3513 2228 3513 1497 
Q 3513 744 3044 326 
Q 2575 -91 1722 -91 
Q 1428 -91 1123 -41 
Q 819 9 494 109 
L 494 744 
Q 775 591 1075 516 
Q 1375 441 1709 441 
Q 2250 441 2565 725 
Q 2881 1009 2881 1497 
Q 2881 1984 2565 2268 
Q 2250 2553 1709 2553 
Q 1456 2553 1204 2497 
Q 953 2441 691 2322 
L 691 4666 
z
" transform="scale(0.015625)"/>
       </defs>
       <use xlink:href="#DejaVuSans-35"/>
      </g>
     </g>
    </g>
    <g id="xtick_7">
     <g id="line2d_13">
      <path d="M 422.132473 409.108823 
L 422.132473 22.318125 
" clip-path="url(#p26ff79e777)" style="fill: none; stroke: #b0b0b0; stroke-width: 0.8; stroke-linecap: square"/>
     </g>
     <g id="line2d_14">
      <g>
       <use xlink:href="#m8619cec221" x="422.132473" y="409.108823" style="stroke: #000000; stroke-width: 0.8"/>
      </g>
     </g>
     <g id="text_7">
      <!-- 6 -->
      <g transform="translate(418.951223 423.70726) scale(0.1 -0.1)">
       <defs>
        <path id="DejaVuSans-36" d="M 2113 2584 
Q 1688 2584 1439 2293 
Q 1191 2003 1191 1497 
Q 1191 994 1439 701 
Q 1688 409 2113 409 
Q 2538 409 2786 701 
Q 3034 994 3034 1497 
Q 3034 2003 2786 2293 
Q 2538 2584 2113 2584 
z
M 3366 4563 
L 3366 3988 
Q 3128 4100 2886 4159 
Q 2644 4219 2406 4219 
Q 1781 4219 1451 3797 
Q 1122 3375 1075 2522 
Q 1259 2794 1537 2939 
Q 1816 3084 2150 3084 
Q 2853 3084 3261 2657 
Q 3669 2231 3669 1497 
Q 3669 778 3244 343 
Q 2819 -91 2113 -91 
Q 1303 -91 875 529 
Q 447 1150 447 2328 
Q 447 3434 972 4092 
Q 1497 4750 2381 4750 
Q 2619 4750 2861 4703 
Q 3103 4656 3366 4563 
z
" transform="scale(0.015625)"/>
       </defs>
       <use xlink:href="#DejaVuSans-36"/>
      </g>
     </g>
    </g>
    <g id="xtick_8">
     <g id="line2d_15">
      <path d="M 473.7135 409.108823 
L 473.7135 22.318125 
" clip-path="url(#p26ff79e777)" style="fill: none; stroke: #b0b0b0; stroke-width: 0.8; stroke-linecap: square"/>
     </g>
     <g id="line2d_16">
      <g>
       <use xlink:href="#m8619cec221" x="473.7135" y="409.108823" style="stroke: #000000; stroke-width: 0.8"/>
      </g>
     </g>
     <g id="text_8">
      <!-- 7 -->
      <g transform="translate(470.53225 423.70726) scale(0.1 -0.1)">
       <defs>
        <path id="DejaVuSans-37" d="M 525 4666 
L 3525 4666 
L 3525 4397 
L 1831 0 
L 1172 0 
L 2766 4134 
L 525 4134 
L 525 4666 
z
" transform="scale(0.015625)"/>
       </defs>
       <use xlink:href="#DejaVuSans-37"/>
      </g>
     </g>
    </g>
    <g id="xtick_9">
     <g id="line2d_17">
      <path d="M 525.294528 409.108823 
L 525.294528 22.318125 
" clip-path="url(#p26ff79e777)" style="fill: none; stroke: #b0b0b0; stroke-width: 0.8; stroke-linecap: square"/>
     </g>
     <g id="line2d_18">
      <g>
       <use xlink:href="#m8619cec221" x="525.294528" y="409.108823" style="stroke: #000000; stroke-width: 0.8"/>
      </g>
     </g>
     <g id="text_9">
      <!-- 8 -->
      <g transform="translate(522.113278 423.70726) scale(0.1 -0.1)">
       <defs>
        <path id="DejaVuSans-38" d="M 2034 2216 
Q 1584 2216 1326 1975 
Q 1069 1734 1069 1313 
Q 1069 891 1326 650 
Q 1584 409 2034 409 
Q 2484 409 2743 651 
Q 3003 894 3003 1313 
Q 3003 1734 2745 1975 
Q 2488 2216 2034 2216 
z
M 1403 2484 
Q 997 2584 770 2862 
Q 544 3141 544 3541 
Q 544 4100 942 4425 
Q 1341 4750 2034 4750 
Q 2731 4750 3128 4425 
Q 3525 4100 3525 3541 
Q 3525 3141 3298 2862 
Q 3072 2584 2669 2484 
Q 3125 2378 3379 2068 
Q 3634 1759 3634 1313 
Q 3634 634 3220 271 
Q 2806 -91 2034 -91 
Q 1263 -91 848 271 
Q 434 634 434 1313 
Q 434 1759 690 2068 
Q 947 2378 1403 2484 
z
M 1172 3481 
Q 1172 3119 1398 2916 
Q 1625 2713 2034 2713 
Q 2441 2713 2670 2916 
Q 2900 3119 2900 3481 
Q 2900 3844 2670 4047 
Q 2441 4250 2034 4250 
Q 1625 4250 1398 4047 
Q 1172 3844 1172 3481 
z
" transform="scale(0.015625)"/>
       </defs>
       <use xlink:href="#DejaVuSans-38"/>
      </g>
     </g>
    </g>
    <g id="xtick_10">
     <g id="line2d_19">
      <path d="M 576.875556 409.108823 
L 576.875556 22.318125 
" clip-path="url(#p26ff79e777)" style="fill: none; stroke: #b0b0b0; stroke-width: 0.8; stroke-linecap: square"/>
     </g>
     <g id="line2d_20">
      <g>
       <use xlink:href="#m8619cec221" x="576.875556" y="409.108823" style="stroke: #000000; stroke-width: 0.8"/>
      </g>
     </g>
     <g id="text_10">
      <!-- 9 -->
      <g transform="translate(573.694306 423.70726) scale(0.1 -0.1)">
       <defs>
        <path id="DejaVuSans-39" d="M 703 97 
L 703 672 
Q 941 559 1184 500 
Q 1428 441 1663 441 
Q 2288 441 2617 861 
Q 2947 1281 2994 2138 
Q 2813 1869 2534 1725 
Q 2256 1581 1919 1581 
Q 1219 1581 811 2004 
Q 403 2428 403 3163 
Q 403 3881 828 4315 
Q 1253 4750 1959 4750 
Q 2769 4750 3195 4129 
Q 3622 3509 3622 2328 
Q 3622 1225 3098 567 
Q 2575 -91 1691 -91 
Q 1453 -91 1209 -44 
Q 966 3 703 97 
z
M 1959 2075 
Q 2384 2075 2632 2365 
Q 2881 2656 2881 3163 
Q 2881 3666 2632 3958 
Q 2384 4250 1959 4250 
Q 1534 4250 1286 3958 
Q 1038 3666 1038 3163 
Q 1038 2656 1286 2365 
Q 1534 2075 1959 2075 
z
" transform="scale(0.015625)"/>
       </defs>
       <use xlink:href="#DejaVuSans-39"/>
      </g>
     </g>
    </g>
    <g id="xtick_11">
     <g id="line2d_21">
      <path d="M 628.456583 409.108823 
L 628.456583 22.318125 
" clip-path="url(#p26ff79e777)" style="fill: none; stroke: #b0b0b0; stroke-width: 0.8; stroke-linecap: square"/>
     </g>
     <g id="line2d_22">
      <g>
       <use xlink:href="#m8619cec221" x="628.456583" y="409.108823" style="stroke: #000000; stroke-width: 0.8"/>
      </g>
     </g>
     <g id="text_11">
      <!-- 10 -->
      <g transform="translate(622.094083 423.70726) scale(0.1 -0.1)">
       <use xlink:href="#DejaVuSans-31"/>
       <use xlink:href="#DejaVuSans-30" x="63.623047"/>
      </g>
     </g>
    </g>
    <g id="xtick_12">
     <g id="line2d_23">
      <path d="M 680.037611 409.108823 
L 680.037611 22.318125 
" clip-path="url(#p26ff79e777)" style="fill: none; stroke: #b0b0b0; stroke-width: 0.8; stroke-linecap: square"/>
     </g>
     <g id="line2d_24">
      <g>
       <use xlink:href="#m8619cec221" x="680.037611" y="409.108823" style="stroke: #000000; stroke-width: 0.8"/>
      </g>
     </g>
     <g id="text_12">
      <!-- 11 -->
      <g transform="translate(673.675111 423.70726) scale(0.1 -0.1)">
       <use xlink:href="#DejaVuSans-31"/>
       <use xlink:href="#DejaVuSans-31" x="63.623047"/>
      </g>
     </g>
    </g>
    <g id="xtick_13">
     <g id="line2d_25">
      <path d="M 731.618639 409.108823 
L 731.618639 22.318125 
" clip-path="url(#p26ff79e777)" style="fill: none; stroke: #b0b0b0; stroke-width: 0.8; stroke-linecap: square"/>
     </g>
     <g id="line2d_26">
      <g>
       <use xlink:href="#m8619cec221" x="731.618639" y="409.108823" style="stroke: #000000; stroke-width: 0.8"/>
      </g>
     </g>
     <g id="text_13">
      <!-- 12 -->
      <g transform="translate(725.256139 423.70726) scale(0.1 -0.1)">
       <use xlink:href="#DejaVuSans-31"/>
       <use xlink:href="#DejaVuSans-32" x="63.623047"/>
      </g>
     </g>
    </g>
    <g id="xtick_14">
     <g id="line2d_27">
      <path d="M 783.199667 409.108823 
L 783.199667 22.318125 
" clip-path="url(#p26ff79e777)" style="fill: none; stroke: #b0b0b0; stroke-width: 0.8; stroke-linecap: square"/>
     </g>
     <g id="line2d_28">
      <g>
       <use xlink:href="#m8619cec221" x="783.199667" y="409.108823" style="stroke: #000000; stroke-width: 0.8"/>
      </g>
     </g>
     <g id="text_14">
      <!-- 13 -->
      <g transform="translate(776.837167 423.70726) scale(0.1 -0.1)">
       <use xlink:href="#DejaVuSans-31"/>
       <use xlink:href="#DejaVuSans-33" x="63.623047"/>
      </g>
     </g>
    </g>
    <g id="xtick_15">
     <g id="line2d_29">
      <path d="M 834.780694 409.108823 
L 834.780694 22.318125 
" clip-path="url(#p26ff79e777)" style="fill: none; stroke: #b0b0b0; stroke-width: 0.8; stroke-linecap: square"/>
     </g>
     <g id="line2d_30">
      <g>
       <use xlink:href="#m8619cec221" x="834.780694" y="409.108823" style="stroke: #000000; stroke-width: 0.8"/>
      </g>
     </g>
     <g id="text_15">
      <!-- 14 -->
      <g transform="translate(828.418194 423.70726) scale(0.1 -0.1)">
       <use xlink:href="#DejaVuSans-31"/>
       <use xlink:href="#DejaVuSans-34" x="63.623047"/>
      </g>
     </g>
    </g>
    <g id="xtick_16">
     <g id="line2d_31">
      <path d="M 886.361722 409.108823 
L 886.361722 22.318125 
" clip-path="url(#p26ff79e777)" style="fill: none; stroke: #b0b0b0; stroke-width: 0.8; stroke-linecap: square"/>
     </g>
     <g id="line2d_32">
      <g>
       <use xlink:href="#m8619cec221" x="886.361722" y="409.108823" style="stroke: #000000; stroke-width: 0.8"/>
      </g>
     </g>
     <g id="text_16">
      <!-- 15 -->
      <g transform="translate(879.999222 423.70726) scale(0.1 -0.1)">
       <use xlink:href="#DejaVuSans-31"/>
       <use xlink:href="#DejaVuSans-35" x="63.623047"/>
      </g>
     </g>
    </g>
    <g id="xtick_17">
     <g id="line2d_33">
      <path d="M 937.94275 409.108823 
L 937.94275 22.318125 
" clip-path="url(#p26ff79e777)" style="fill: none; stroke: #b0b0b0; stroke-width: 0.8; stroke-linecap: square"/>
     </g>
     <g id="line2d_34">
      <g>
       <use xlink:href="#m8619cec221" x="937.94275" y="409.108823" style="stroke: #000000; stroke-width: 0.8"/>
      </g>
     </g>
     <g id="text_17">
      <!-- 16 -->
      <g transform="translate(931.58025 423.70726) scale(0.1 -0.1)">
       <use xlink:href="#DejaVuSans-31"/>
       <use xlink:href="#DejaVuSans-36" x="63.623047"/>
      </g>
     </g>
    </g>
    <g id="xtick_18">
     <g id="line2d_35">
      <path d="M 989.523777 409.108823 
L 989.523777 22.318125 
" clip-path="url(#p26ff79e777)" style="fill: none; stroke: #b0b0b0; stroke-width: 0.8; stroke-linecap: square"/>
     </g>
     <g id="line2d_36">
      <g>
       <use xlink:href="#m8619cec221" x="989.523777" y="409.108823" style="stroke: #000000; stroke-width: 0.8"/>
      </g>
     </g>
     <g id="text_18">
      <!-- 17 -->
      <g transform="translate(983.161277 423.70726) scale(0.1 -0.1)">
       <use xlink:href="#DejaVuSans-31"/>
       <use xlink:href="#DejaVuSans-37" x="63.623047"/>
      </g>
     </g>
    </g>
    <g id="xtick_19">
     <g id="line2d_37">
      <path d="M 1041.104805 409.108823 
L 1041.104805 22.318125 
" clip-path="url(#p26ff79e777)" style="fill: none; stroke: #b0b0b0; stroke-width: 0.8; stroke-linecap: square"/>
     </g>
     <g id="line2d_38">
      <g>
       <use xlink:href="#m8619cec221" x="1041.104805" y="409.108823" style="stroke: #000000; stroke-width: 0.8"/>
      </g>
     </g>
     <g id="text_19">
      <!-- 18 -->
      <g transform="translate(1034.742305 423.70726) scale(0.1 -0.1)">
       <use xlink:href="#DejaVuSans-31"/>
       <use xlink:href="#DejaVuSans-38" x="63.623047"/>
      </g>
     </g>
    </g>
    <g id="xtick_20">
     <g id="line2d_39">
      <path d="M 1092.685833 409.108823 
L 1092.685833 22.318125 
" clip-path="url(#p26ff79e777)" style="fill: none; stroke: #b0b0b0; stroke-width: 0.8; stroke-linecap: square"/>
     </g>
     <g id="line2d_40">
      <g>
       <use xlink:href="#m8619cec221" x="1092.685833" y="409.108823" style="stroke: #000000; stroke-width: 0.8"/>
      </g>
     </g>
     <g id="text_20">
      <!-- 19 -->
      <g transform="translate(1086.323333 423.70726) scale(0.1 -0.1)">
       <use xlink:href="#DejaVuSans-31"/>
       <use xlink:href="#DejaVuSans-39" x="63.623047"/>
      </g>
     </g>
    </g>
    <g id="xtick_21">
     <g id="line2d_41">
      <path d="M 1144.26686 409.108823 
L 1144.26686 22.318125 
" clip-path="url(#p26ff79e777)" style="fill: none; stroke: #b0b0b0; stroke-width: 0.8; stroke-linecap: square"/>
     </g>
     <g id="line2d_42">
      <g>
       <use xlink:href="#m8619cec221" x="1144.26686" y="409.108823" style="stroke: #000000; stroke-width: 0.8"/>
      </g>
     </g>
     <g id="text_21">
      <!-- 20 -->
      <g transform="translate(1137.90436 423.70726) scale(0.1 -0.1)">
       <use xlink:href="#DejaVuSans-32"/>
       <use xlink:href="#DejaVuSans-30" x="63.623047"/>
      </g>
     </g>
    </g>
    <g id="xtick_22">
     <g id="line2d_43">
      <path d="M 1195.847888 409.108823 
L 1195.847888 22.318125 
" clip-path="url(#p26ff79e777)" style="fill: none; stroke: #b0b0b0; stroke-width: 0.8; stroke-linecap: square"/>
     </g>
     <g id="line2d_44">
      <g>
       <use xlink:href="#m8619cec221" x="1195.847888" y="409.108823" style="stroke: #000000; stroke-width: 0.8"/>
      </g>
     </g>
     <g id="text_22">
      <!-- 21 -->
      <g transform="translate(1189.485388 423.70726) scale(0.1 -0.1)">
       <use xlink:href="#DejaVuSans-32"/>
       <use xlink:href="#DejaVuSans-31" x="63.623047"/>
      </g>
     </g>
    </g>
    <g id="xtick_23">
     <g id="line2d_45">
      <path d="M 1247.428916 409.108823 
L 1247.428916 22.318125 
" clip-path="url(#p26ff79e777)" style="fill: none; stroke: #b0b0b0; stroke-width: 0.8; stroke-linecap: square"/>
     </g>
     <g id="line2d_46">
      <g>
       <use xlink:href="#m8619cec221" x="1247.428916" y="409.108823" style="stroke: #000000; stroke-width: 0.8"/>
      </g>
     </g>
     <g id="text_23">
      <!-- 22 -->
      <g transform="translate(1241.066416 423.70726) scale(0.1 -0.1)">
       <use xlink:href="#DejaVuSans-32"/>
       <use xlink:href="#DejaVuSans-32" x="63.623047"/>
      </g>
     </g>
    </g>
    <g id="xtick_24">
     <g id="line2d_47">
      <path d="M 1299.009943 409.108823 
L 1299.009943 22.318125 
" clip-path="url(#p26ff79e777)" style="fill: none; stroke: #b0b0b0; stroke-width: 0.8; stroke-linecap: square"/>
     </g>
     <g id="line2d_48">
      <g>
       <use xlink:href="#m8619cec221" x="1299.009943" y="409.108823" style="stroke: #000000; stroke-width: 0.8"/>
      </g>
     </g>
     <g id="text_24">
      <!-- 23 -->
      <g transform="translate(1292.647443 423.70726) scale(0.1 -0.1)">
       <use xlink:href="#DejaVuSans-32"/>
       <use xlink:href="#DejaVuSans-33" x="63.623047"/>
      </g>
     </g>
    </g>
    <g id="text_25">
     <!-- Time of day (hour) -->
     <g transform="translate(659.45625 437.385385) scale(0.1 -0.1)">
      <defs>
       <path id="DejaVuSans-54" d="M -19 4666 
L 3928 4666 
L 3928 4134 
L 2272 4134 
L 2272 0 
L 1638 0 
L 1638 4134 
L -19 4134 
L -19 4666 
z
" transform="scale(0.015625)"/>
       <path id="DejaVuSans-69" d="M 603 3500 
L 1178 3500 
L 1178 0 
L 603 0 
L 603 3500 
z
M 603 4863 
L 1178 4863 
L 1178 4134 
L 603 4134 
L 603 4863 
z
" transform="scale(0.015625)"/>
       <path id="DejaVuSans-6d" d="M 3328 2828 
Q 3544 3216 3844 3400 
Q 4144 3584 4550 3584 
Q 5097 3584 5394 3201 
Q 5691 2819 5691 2113 
L 5691 0 
L 5113 0 
L 5113 2094 
Q 5113 2597 4934 2840 
Q 4756 3084 4391 3084 
Q 3944 3084 3684 2787 
Q 3425 2491 3425 1978 
L 3425 0 
L 2847 0 
L 2847 2094 
Q 2847 2600 2669 2842 
Q 2491 3084 2119 3084 
Q 1678 3084 1418 2786 
Q 1159 2488 1159 1978 
L 1159 0 
L 581 0 
L 581 3500 
L 1159 3500 
L 1159 2956 
Q 1356 3278 1631 3431 
Q 1906 3584 2284 3584 
Q 2666 3584 2933 3390 
Q 3200 3197 3328 2828 
z
" transform="scale(0.015625)"/>
       <path id="DejaVuSans-65" d="M 3597 1894 
L 3597 1613 
L 953 1613 
Q 991 1019 1311 708 
Q 1631 397 2203 397 
Q 2534 397 2845 478 
Q 3156 559 3463 722 
L 3463 178 
Q 3153 47 2828 -22 
Q 2503 -91 2169 -91 
Q 1331 -91 842 396 
Q 353 884 353 1716 
Q 353 2575 817 3079 
Q 1281 3584 2069 3584 
Q 2775 3584 3186 3129 
Q 3597 2675 3597 1894 
z
M 3022 2063 
Q 3016 2534 2758 2815 
Q 2500 3097 2075 3097 
Q 1594 3097 1305 2825 
Q 1016 2553 972 2059 
L 3022 2063 
z
" transform="scale(0.015625)"/>
       <path id="DejaVuSans-20" transform="scale(0.015625)"/>
       <path id="DejaVuSans-6f" d="M 1959 3097 
Q 1497 3097 1228 2736 
Q 959 2375 959 1747 
Q 959 1119 1226 758 
Q 1494 397 1959 397 
Q 2419 397 2687 759 
Q 2956 1122 2956 1747 
Q 2956 2369 2687 2733 
Q 2419 3097 1959 3097 
z
M 1959 3584 
Q 2709 3584 3137 3096 
Q 3566 2609 3566 1747 
Q 3566 888 3137 398 
Q 2709 -91 1959 -91 
Q 1206 -91 779 398 
Q 353 888 353 1747 
Q 353 2609 779 3096 
Q 1206 3584 1959 3584 
z
" transform="scale(0.015625)"/>
       <path id="DejaVuSans-66" d="M 2375 4863 
L 2375 4384 
L 1825 4384 
Q 1516 4384 1395 4259 
Q 1275 4134 1275 3809 
L 1275 3500 
L 2222 3500 
L 2222 3053 
L 1275 3053 
L 1275 0 
L 697 0 
L 697 3053 
L 147 3053 
L 147 3500 
L 697 3500 
L 697 3744 
Q 697 4328 969 4595 
Q 1241 4863 1831 4863 
L 2375 4863 
z
" transform="scale(0.015625)"/>
       <path id="DejaVuSans-64" d="M 2906 2969 
L 2906 4863 
L 3481 4863 
L 3481 0 
L 2906 0 
L 2906 525 
Q 2725 213 2448 61 
Q 2172 -91 1784 -91 
Q 1150 -91 751 415 
Q 353 922 353 1747 
Q 353 2572 751 3078 
Q 1150 3584 1784 3584 
Q 2172 3584 2448 3432 
Q 2725 3281 2906 2969 
z
M 947 1747 
Q 947 1113 1208 752 
Q 1469 391 1925 391 
Q 2381 391 2643 752 
Q 2906 1113 2906 1747 
Q 2906 2381 2643 2742 
Q 2381 3103 1925 3103 
Q 1469 3103 1208 2742 
Q 947 2381 947 1747 
z
" transform="scale(0.015625)"/>
       <path id="DejaVuSans-61" d="M 2194 1759 
Q 1497 1759 1228 1600 
Q 959 1441 959 1056 
Q 959 750 1161 570 
Q 1363 391 1709 391 
Q 2188 391 2477 730 
Q 2766 1069 2766 1631 
L 2766 1759 
L 2194 1759 
z
M 3341 1997 
L 3341 0 
L 2766 0 
L 2766 531 
Q 2569 213 2275 61 
Q 1981 -91 1556 -91 
Q 1019 -91 701 211 
Q 384 513 384 1019 
Q 384 1609 779 1909 
Q 1175 2209 1959 2209 
L 2766 2209 
L 2766 2266 
Q 2766 2663 2505 2880 
Q 2244 3097 1772 3097 
Q 1472 3097 1187 3025 
Q 903 2953 641 2809 
L 641 3341 
Q 956 3463 1253 3523 
Q 1550 3584 1831 3584 
Q 2591 3584 2966 3190 
Q 3341 2797 3341 1997 
z
" transform="scale(0.015625)"/>
       <path id="DejaVuSans-79" d="M 2059 -325 
Q 1816 -950 1584 -1140 
Q 1353 -1331 966 -1331 
L 506 -1331 
L 506 -850 
L 844 -850 
Q 1081 -850 1212 -737 
Q 1344 -625 1503 -206 
L 1606 56 
L 191 3500 
L 800 3500 
L 1894 763 
L 2988 3500 
L 3597 3500 
L 2059 -325 
z
" transform="scale(0.015625)"/>
       <path id="DejaVuSans-28" d="M 1984 4856 
Q 1566 4138 1362 3434 
Q 1159 2731 1159 2009 
Q 1159 1288 1364 580 
Q 1569 -128 1984 -844 
L 1484 -844 
Q 1016 -109 783 600 
Q 550 1309 550 2009 
Q 550 2706 781 3412 
Q 1013 4119 1484 4856 
L 1984 4856 
z
" transform="scale(0.015625)"/>
       <path id="DejaVuSans-68" d="M 3513 2113 
L 3513 0 
L 2938 0 
L 2938 2094 
Q 2938 2591 2744 2837 
Q 2550 3084 2163 3084 
Q 1697 3084 1428 2787 
Q 1159 2491 1159 1978 
L 1159 0 
L 581 0 
L 581 4863 
L 1159 4863 
L 1159 2956 
Q 1366 3272 1645 3428 
Q 1925 3584 2291 3584 
Q 2894 3584 3203 3211 
Q 3513 2838 3513 2113 
z
" transform="scale(0.015625)"/>
       <path id="DejaVuSans-75" d="M 544 1381 
L 544 3500 
L 1119 3500 
L 1119 1403 
Q 1119 906 1312 657 
Q 1506 409 1894 409 
Q 2359 409 2629 706 
Q 2900 1003 2900 1516 
L 2900 3500 
L 3475 3500 
L 3475 0 
L 2900 0 
L 2900 538 
Q 2691 219 2414 64 
Q 2138 -91 1772 -91 
Q 1169 -91 856 284 
Q 544 659 544 1381 
z
M 1991 3584 
L 1991 3584 
z
" transform="scale(0.015625)"/>
       <path id="DejaVuSans-72" d="M 2631 2963 
Q 2534 3019 2420 3045 
Q 2306 3072 2169 3072 
Q 1681 3072 1420 2755 
Q 1159 2438 1159 1844 
L 1159 0 
L 581 0 
L 581 3500 
L 1159 3500 
L 1159 2956 
Q 1341 3275 1631 3429 
Q 1922 3584 2338 3584 
Q 2397 3584 2469 3576 
Q 2541 3569 2628 3553 
L 2631 2963 
z
" transform="scale(0.015625)"/>
       <path id="DejaVuSans-29" d="M 513 4856 
L 1013 4856 
Q 1481 4119 1714 3412 
Q 1947 2706 1947 2009 
Q 1947 1309 1714 600 
Q 1481 -109 1013 -844 
L 513 -844 
Q 928 -128 1133 580 
Q 1338 1288 1338 2009 
Q 1338 2731 1133 3434 
Q 928 4138 513 4856 
z
" transform="scale(0.015625)"/>
      </defs>
      <use xlink:href="#DejaVuSans-54"/>
      <use xlink:href="#DejaVuSans-69" x="57.958984"/>
      <use xlink:href="#DejaVuSans-6d" x="85.742188"/>
      <use xlink:href="#DejaVuSans-65" x="183.154297"/>
      <use xlink:href="#DejaVuSans-20" x="244.677734"/>
      <use xlink:href="#DejaVuSans-6f" x="276.464844"/>
      <use xlink:href="#DejaVuSans-66" x="337.646484"/>
      <use xlink:href="#DejaVuSans-20" x="372.851562"/>
      <use xlink:href="#DejaVuSans-64" x="404.638672"/>
      <use xlink:href="#DejaVuSans-61" x="468.115234"/>
      <use xlink:href="#DejaVuSans-79" x="529.394531"/>
      <use xlink:href="#DejaVuSans-20" x="588.574219"/>
      <use xlink:href="#DejaVuSans-28" x="620.361328"/>
      <use xlink:href="#DejaVuSans-68" x="659.375"/>
      <use xlink:href="#DejaVuSans-6f" x="722.753906"/>
      <use xlink:href="#DejaVuSans-75" x="783.935547"/>
      <use xlink:href="#DejaVuSans-72" x="847.314453"/>
      <use xlink:href="#DejaVuSans-29" x="888.427734"/>
     </g>
    </g>
   </g>
   <g id="matplotlib.axis_2">
    <g id="ytick_1">
     <g id="line2d_49">
      <path d="M 53.328125 409.108823 
L 1358.328125 409.108823 
" clip-path="url(#p26ff79e777)" style="fill: none; stroke: #b0b0b0; stroke-width: 0.8; stroke-linecap: square"/>
     </g>
     <g id="line2d_50">
      <defs>
       <path id="mcfea21e7ff" d="M 0 0 
L -3.5 0 
" style="stroke: #000000; stroke-width: 0.8"/>
      </defs>
      <g>
       <use xlink:href="#mcfea21e7ff" x="53.328125" y="409.108823" style="stroke: #000000; stroke-width: 0.8"/>
      </g>
     </g>
     <g id="text_26">
      <!-- 0 -->
      <g transform="translate(39.965625 412.908041) scale(0.1 -0.1)">
       <use xlink:href="#DejaVuSans-30"/>
      </g>
     </g>
    </g>
    <g id="ytick_2">
     <g id="line2d_51">
      <path d="M 53.328125 360.759985 
L 1358.328125 360.759985 
" clip-path="url(#p26ff79e777)" style="fill: none; stroke: #b0b0b0; stroke-width: 0.8; stroke-linecap: square"/>
     </g>
     <g id="line2d_52">
      <g>
       <use xlink:href="#mcfea21e7ff" x="53.328125" y="360.759985" style="stroke: #000000; stroke-width: 0.8"/>
      </g>
     </g>
     <g id="text_27">
      <!-- 500 -->
      <g transform="translate(27.240625 364.559204) scale(0.1 -0.1)">
       <use xlink:href="#DejaVuSans-35"/>
       <use xlink:href="#DejaVuSans-30" x="63.623047"/>
       <use xlink:href="#DejaVuSans-30" x="127.246094"/>
      </g>
     </g>
    </g>
    <g id="ytick_3">
     <g id="line2d_53">
      <path d="M 53.328125 312.411148 
L 1358.328125 312.411148 
" clip-path="url(#p26ff79e777)" style="fill: none; stroke: #b0b0b0; stroke-width: 0.8; stroke-linecap: square"/>
     </g>
     <g id="line2d_54">
      <g>
       <use xlink:href="#mcfea21e7ff" x="53.328125" y="312.411148" style="stroke: #000000; stroke-width: 0.8"/>
      </g>
     </g>
     <g id="text_28">
      <!-- 1000 -->
      <g transform="translate(20.878125 316.210367) scale(0.1 -0.1)">
       <use xlink:href="#DejaVuSans-31"/>
       <use xlink:href="#DejaVuSans-30" x="63.623047"/>
       <use xlink:href="#DejaVuSans-30" x="127.246094"/>
       <use xlink:href="#DejaVuSans-30" x="190.869141"/>
      </g>
     </g>
    </g>
    <g id="ytick_4">
     <g id="line2d_55">
      <path d="M 53.328125 264.062311 
L 1358.328125 264.062311 
" clip-path="url(#p26ff79e777)" style="fill: none; stroke: #b0b0b0; stroke-width: 0.8; stroke-linecap: square"/>
     </g>
     <g id="line2d_56">
      <g>
       <use xlink:href="#mcfea21e7ff" x="53.328125" y="264.062311" style="stroke: #000000; stroke-width: 0.8"/>
      </g>
     </g>
     <g id="text_29">
      <!-- 1500 -->
      <g transform="translate(20.878125 267.86153) scale(0.1 -0.1)">
       <use xlink:href="#DejaVuSans-31"/>
       <use xlink:href="#DejaVuSans-35" x="63.623047"/>
       <use xlink:href="#DejaVuSans-30" x="127.246094"/>
       <use xlink:href="#DejaVuSans-30" x="190.869141"/>
      </g>
     </g>
    </g>
    <g id="ytick_5">
     <g id="line2d_57">
      <path d="M 53.328125 215.713474 
L 1358.328125 215.713474 
" clip-path="url(#p26ff79e777)" style="fill: none; stroke: #b0b0b0; stroke-width: 0.8; stroke-linecap: square"/>
     </g>
     <g id="line2d_58">
      <g>
       <use xlink:href="#mcfea21e7ff" x="53.328125" y="215.713474" style="stroke: #000000; stroke-width: 0.8"/>
      </g>
     </g>
     <g id="text_30">
      <!-- 2000 -->
      <g transform="translate(20.878125 219.512693) scale(0.1 -0.1)">
       <use xlink:href="#DejaVuSans-32"/>
       <use xlink:href="#DejaVuSans-30" x="63.623047"/>
       <use xlink:href="#DejaVuSans-30" x="127.246094"/>
       <use xlink:href="#DejaVuSans-30" x="190.869141"/>
      </g>
     </g>
    </g>
    <g id="ytick_6">
     <g id="line2d_59">
      <path d="M 53.328125 167.364637 
L 1358.328125 167.364637 
" clip-path="url(#p26ff79e777)" style="fill: none; stroke: #b0b0b0; stroke-width: 0.8; stroke-linecap: square"/>
     </g>
     <g id="line2d_60">
      <g>
       <use xlink:href="#mcfea21e7ff" x="53.328125" y="167.364637" style="stroke: #000000; stroke-width: 0.8"/>
      </g>
     </g>
     <g id="text_31">
      <!-- 2500 -->
      <g transform="translate(20.878125 171.163855) scale(0.1 -0.1)">
       <use xlink:href="#DejaVuSans-32"/>
       <use xlink:href="#DejaVuSans-35" x="63.623047"/>
       <use xlink:href="#DejaVuSans-30" x="127.246094"/>
       <use xlink:href="#DejaVuSans-30" x="190.869141"/>
      </g>
     </g>
    </g>
    <g id="ytick_7">
     <g id="line2d_61">
      <path d="M 53.328125 119.015799 
L 1358.328125 119.015799 
" clip-path="url(#p26ff79e777)" style="fill: none; stroke: #b0b0b0; stroke-width: 0.8; stroke-linecap: square"/>
     </g>
     <g id="line2d_62">
      <g>
       <use xlink:href="#mcfea21e7ff" x="53.328125" y="119.015799" style="stroke: #000000; stroke-width: 0.8"/>
      </g>
     </g>
     <g id="text_32">
      <!-- 3000 -->
      <g transform="translate(20.878125 122.815018) scale(0.1 -0.1)">
       <use xlink:href="#DejaVuSans-33"/>
       <use xlink:href="#DejaVuSans-30" x="63.623047"/>
       <use xlink:href="#DejaVuSans-30" x="127.246094"/>
       <use xlink:href="#DejaVuSans-30" x="190.869141"/>
      </g>
     </g>
    </g>
    <g id="ytick_8">
     <g id="line2d_63">
      <path d="M 53.328125 70.666962 
L 1358.328125 70.666962 
" clip-path="url(#p26ff79e777)" style="fill: none; stroke: #b0b0b0; stroke-width: 0.8; stroke-linecap: square"/>
     </g>
     <g id="line2d_64">
      <g>
       <use xlink:href="#mcfea21e7ff" x="53.328125" y="70.666962" style="stroke: #000000; stroke-width: 0.8"/>
      </g>
     </g>
     <g id="text_33">
      <!-- 3500 -->
      <g transform="translate(20.878125 74.466181) scale(0.1 -0.1)">
       <use xlink:href="#DejaVuSans-33"/>
       <use xlink:href="#DejaVuSans-35" x="63.623047"/>
       <use xlink:href="#DejaVuSans-30" x="127.246094"/>
       <use xlink:href="#DejaVuSans-30" x="190.869141"/>
      </g>
     </g>
    </g>
    <g id="ytick_9">
     <g id="line2d_65">
      <path d="M 53.328125 22.318125 
L 1358.328125 22.318125 
" clip-path="url(#p26ff79e777)" style="fill: none; stroke: #b0b0b0; stroke-width: 0.8; stroke-linecap: square"/>
     </g>
     <g id="line2d_66">
      <g>
       <use xlink:href="#mcfea21e7ff" x="53.328125" y="22.318125" style="stroke: #000000; stroke-width: 0.8"/>
      </g>
     </g>
     <g id="text_34">
      <!-- 4000 -->
      <g transform="translate(20.878125 26.117344) scale(0.1 -0.1)">
       <use xlink:href="#DejaVuSans-34"/>
       <use xlink:href="#DejaVuSans-30" x="63.623047"/>
       <use xlink:href="#DejaVuSans-30" x="127.246094"/>
       <use xlink:href="#DejaVuSans-30" x="190.869141"/>
      </g>
     </g>
    </g>
    <g id="text_35">
     <!-- Pedestrian flow (hourly sum) -->
     <g transform="translate(14.798437 287.527536) rotate(-90) scale(0.1 -0.1)">
      <defs>
       <path id="DejaVuSans-50" d="M 1259 4147 
L 1259 2394 
L 2053 2394 
Q 2494 2394 2734 2622 
Q 2975 2850 2975 3272 
Q 2975 3691 2734 3919 
Q 2494 4147 2053 4147 
L 1259 4147 
z
M 628 4666 
L 2053 4666 
Q 2838 4666 3239 4311 
Q 3641 3956 3641 3272 
Q 3641 2581 3239 2228 
Q 2838 1875 2053 1875 
L 1259 1875 
L 1259 0 
L 628 0 
L 628 4666 
z
" transform="scale(0.015625)"/>
       <path id="DejaVuSans-73" d="M 2834 3397 
L 2834 2853 
Q 2591 2978 2328 3040 
Q 2066 3103 1784 3103 
Q 1356 3103 1142 2972 
Q 928 2841 928 2578 
Q 928 2378 1081 2264 
Q 1234 2150 1697 2047 
L 1894 2003 
Q 2506 1872 2764 1633 
Q 3022 1394 3022 966 
Q 3022 478 2636 193 
Q 2250 -91 1575 -91 
Q 1294 -91 989 -36 
Q 684 19 347 128 
L 347 722 
Q 666 556 975 473 
Q 1284 391 1588 391 
Q 1994 391 2212 530 
Q 2431 669 2431 922 
Q 2431 1156 2273 1281 
Q 2116 1406 1581 1522 
L 1381 1569 
Q 847 1681 609 1914 
Q 372 2147 372 2553 
Q 372 3047 722 3315 
Q 1072 3584 1716 3584 
Q 2034 3584 2315 3537 
Q 2597 3491 2834 3397 
z
" transform="scale(0.015625)"/>
       <path id="DejaVuSans-74" d="M 1172 4494 
L 1172 3500 
L 2356 3500 
L 2356 3053 
L 1172 3053 
L 1172 1153 
Q 1172 725 1289 603 
Q 1406 481 1766 481 
L 2356 481 
L 2356 0 
L 1766 0 
Q 1100 0 847 248 
Q 594 497 594 1153 
L 594 3053 
L 172 3053 
L 172 3500 
L 594 3500 
L 594 4494 
L 1172 4494 
z
" transform="scale(0.015625)"/>
       <path id="DejaVuSans-6e" d="M 3513 2113 
L 3513 0 
L 2938 0 
L 2938 2094 
Q 2938 2591 2744 2837 
Q 2550 3084 2163 3084 
Q 1697 3084 1428 2787 
Q 1159 2491 1159 1978 
L 1159 0 
L 581 0 
L 581 3500 
L 1159 3500 
L 1159 2956 
Q 1366 3272 1645 3428 
Q 1925 3584 2291 3584 
Q 2894 3584 3203 3211 
Q 3513 2838 3513 2113 
z
" transform="scale(0.015625)"/>
       <path id="DejaVuSans-6c" d="M 603 4863 
L 1178 4863 
L 1178 0 
L 603 0 
L 603 4863 
z
" transform="scale(0.015625)"/>
       <path id="DejaVuSans-77" d="M 269 3500 
L 844 3500 
L 1563 769 
L 2278 3500 
L 2956 3500 
L 3675 769 
L 4391 3500 
L 4966 3500 
L 4050 0 
L 3372 0 
L 2619 2869 
L 1863 0 
L 1184 0 
L 269 3500 
z
" transform="scale(0.015625)"/>
      </defs>
      <use xlink:href="#DejaVuSans-50"/>
      <use xlink:href="#DejaVuSans-65" x="56.677734"/>
      <use xlink:href="#DejaVuSans-64" x="118.201172"/>
      <use xlink:href="#DejaVuSans-65" x="181.677734"/>
      <use xlink:href="#DejaVuSans-73" x="243.201172"/>
      <use xlink:href="#DejaVuSans-74" x="295.300781"/>
      <use xlink:href="#DejaVuSans-72" x="334.509766"/>
      <use xlink:href="#DejaVuSans-69" x="375.623047"/>
      <use xlink:href="#DejaVuSans-61" x="403.40625"/>
      <use xlink:href="#DejaVuSans-6e" x="464.685547"/>
      <use xlink:href="#DejaVuSans-20" x="528.064453"/>
      <use xlink:href="#DejaVuSans-66" x="559.851562"/>
      <use xlink:href="#DejaVuSans-6c" x="595.056641"/>
      <use xlink:href="#DejaVuSans-6f" x="622.839844"/>
      <use xlink:href="#DejaVuSans-77" x="684.021484"/>
      <use xlink:href="#DejaVuSans-20" x="765.808594"/>
      <use xlink:href="#DejaVuSans-28" x="797.595703"/>
      <use xlink:href="#DejaVuSans-68" x="836.609375"/>
      <use xlink:href="#DejaVuSans-6f" x="899.988281"/>
      <use xlink:href="#DejaVuSans-75" x="961.169922"/>
      <use xlink:href="#DejaVuSans-72" x="1024.548828"/>
      <use xlink:href="#DejaVuSans-6c" x="1065.662109"/>
      <use xlink:href="#DejaVuSans-79" x="1093.445312"/>
      <use xlink:href="#DejaVuSans-20" x="1152.625"/>
      <use xlink:href="#DejaVuSans-73" x="1184.412109"/>
      <use xlink:href="#DejaVuSans-75" x="1236.511719"/>
      <use xlink:href="#DejaVuSans-6d" x="1299.890625"/>
      <use xlink:href="#DejaVuSans-29" x="1397.302734"/>
     </g>
    </g>
   </g>
   <g id="line2d_67">
    <path d="M 112.646307 401.184369 
L 164.227334 401.948516 
L 215.808362 401.609205 
L 267.38939 402.419246 
L 318.970417 407.279493 
L 370.551445 406.968792 
L 422.132473 403.116686 
L 473.7135 397.861773 
L 525.294528 375.259881 
L 576.875556 365.969183 
L 628.456583 333.403901 
L 680.037611 302.345079 
L 731.618639 255.123324 
L 783.199667 245.237969 
L 834.780694 254.118047 
L 886.361722 252.731527 
L 937.94275 261.749365 
L 989.523777 295.81346 
L 1041.104805 333.796931 
L 1092.685833 366.430836 
L 1144.26686 384.031373 
L 1195.847888 390.14828 
L 1247.428916 390.589658 
L 1299.009943 398.274004 
" clip-path="url(#p26ff79e777)" style="fill: none; stroke: #22335c; stroke-width: 1.5; stroke-linecap: square"/>
   </g>
   <g id="line2d_68">
    <path d="M 112.646307 398.506613 
L 164.227334 399.461503 
L 215.808362 397.351422 
L 267.38939 398.026578 
L 318.970417 406.912906 
L 370.551445 406.942795 
L 422.132473 402.961613 
L 473.7135 396.538125 
L 525.294528 370.610841 
L 576.875556 355.693027 
L 628.456583 319.060432 
L 680.037611 273.093874 
L 731.618639 235.037185 
L 783.199667 214.380427 
L 834.780694 230.239223 
L 886.361722 234.926956 
L 937.94275 248.276416 
L 989.523777 275.077055 
L 1041.104805 323.944544 
L 1092.685833 356.596711 
L 1144.26686 379.366376 
L 1195.847888 385.778311 
L 1247.428916 386.959875 
L 1299.009943 392.905055 
" clip-path="url(#p26ff79e777)" style="fill: none; stroke: #22335c; stroke-width: 1.5; stroke-linecap: square"/>
   </g>
   <g id="line2d_69">
    <path d="M 112.646307 399.666985 
L 164.227334 400.05317 
L 215.808362 398.936227 
L 267.38939 399.782677 
L 318.970417 406.779288 
L 370.551445 406.402984 
L 422.132473 400.355956 
L 473.7135 393.521158 
L 525.294528 370.470968 
L 576.875556 355.222855 
L 628.456583 318.165452 
L 680.037611 274.622633 
L 731.618639 247.888845 
L 783.199667 248.149305 
L 834.780694 251.975102 
L 886.361722 258.380543 
L 937.94275 268.533799 
L 989.523777 293.637295 
L 1041.104805 324.450009 
L 1092.685833 362.703942 
L 1144.26686 381.378264 
L 1195.847888 388.308274 
L 1247.428916 385.335009 
L 1299.009943 393.811929 
" clip-path="url(#p26ff79e777)" style="fill: none; stroke: #1c4a6a; stroke-width: 1.5; stroke-linecap: square"/>
   </g>
   <g id="line2d_70">
    <path d="M 112.646307 405.478941 
L 164.227334 405.845276 
L 215.808362 406.118633 
L 267.38939 407.893195 
L 318.970417 407.925243 
L 370.551445 405.657716 
L 422.132473 403.913823 
L 473.7135 396.599367 
L 525.294528 387.278489 
L 576.875556 374.134274 
L 628.456583 361.340172 
L 680.037611 341.675088 
L 731.618639 342.053987 
L 783.199667 351.58371 
L 834.780694 356.792046 
L 886.361722 356.695349 
L 937.94275 368.515806 
L 989.523777 377.155243 
L 1041.104805 391.378613 
L 1092.685833 399.206265 
L 1144.26686 402.95816 
L 1195.847888 403.648627 
L 1247.428916 403.414404 
L 1299.009943 404.761295 
" clip-path="url(#p26ff79e777)" style="fill: none; stroke: #166178; stroke-width: 1.5; stroke-linecap: square"/>
   </g>
   <g id="line2d_71">
    <path d="M 112.646307 406.5387 
L 164.227334 406.412032 
L 215.808362 406.557078 
L 267.38939 408.26399 
L 318.970417 408.386135 
L 370.551445 407.547846 
L 422.132473 406.546334 
L 473.7135 402.141985 
L 525.294528 398.982642 
L 576.875556 391.749799 
L 628.456583 383.528834 
L 680.037611 376.611958 
L 731.618639 374.35101 
L 783.199667 375.732009 
L 834.780694 378.739084 
L 886.361722 376.052544 
L 937.94275 381.325509 
L 989.523777 389.099311 
L 1041.104805 395.743522 
L 1092.685833 401.024056 
L 1144.26686 402.417344 
L 1195.847888 403.858139 
L 1247.428916 404.675998 
L 1299.009943 406.487807 
" clip-path="url(#p26ff79e777)" style="fill: none; stroke: #107886; stroke-width: 1.5; stroke-linecap: square"/>
   </g>
   <g id="line2d_72">
    <path d="M 112.646307 406.01772 
L 164.227334 405.150887 
L 215.808362 405.287597 
L 267.38939 407.768869 
L 318.970417 408.105168 
L 370.551445 405.969372 
L 422.132473 404.834785 
L 473.7135 397.398734 
L 525.294528 389.466302 
L 576.875556 377.930269 
L 628.456583 363.709265 
L 680.037611 347.161069 
L 731.618639 343.415646 
L 783.199667 346.709813 
L 834.780694 353.839655 
L 886.361722 356.830837 
L 937.94275 363.957455 
L 989.523777 373.868967 
L 1041.104805 387.338508 
L 1092.685833 397.181665 
L 1144.26686 400.428595 
L 1195.847888 401.612962 
L 1247.428916 403.707091 
L 1299.009943 405.907796 
" clip-path="url(#p26ff79e777)" style="fill: none; stroke: #099094; stroke-width: 1.5; stroke-linecap: square"/>
   </g>
   <g id="line2d_73">
    <path d="M 112.646307 406.104032 
L 164.227334 406.092599 
L 215.808362 406.794985 
L 267.38939 407.476566 
L 318.970417 407.211548 
L 370.551445 405.531009 
L 422.132473 403.213599 
L 473.7135 392.306768 
L 525.294528 387.152004 
L 576.875556 366.692856 
L 628.456583 354.399774 
L 680.037611 344.051294 
L 731.618639 340.501823 
L 783.199667 330.283546 
L 834.780694 337.694367 
L 886.361722 336.675818 
L 937.94275 343.58835 
L 989.523777 359.580898 
L 1041.104805 377.056767 
L 1092.685833 392.87973 
L 1144.26686 396.121325 
L 1195.847888 399.756776 
L 1247.428916 400.081404 
L 1299.009943 405.070861 
" clip-path="url(#p26ff79e777)" style="fill: none; stroke: #03a7a2; stroke-width: 1.5; stroke-linecap: square"/>
   </g>
   <g id="line2d_74">
    <path d="M 112.646307 403.999442 
L 164.227334 403.96825 
L 215.808362 404.801097 
L 267.38939 407.383861 
L 318.970417 406.653949 
L 370.551445 401.803469 
L 422.132473 396.715924 
L 473.7135 375.476748 
L 525.294528 370.492139 
L 576.875556 338.185757 
L 628.456583 307.398466 
L 680.037611 275.993556 
L 731.618639 263.379189 
L 783.199667 277.185121 
L 834.780694 297.132916 
L 886.361722 294.880796 
L 937.94275 304.466343 
L 989.523777 334.626659 
L 1041.104805 354.203259 
L 1092.685833 377.314003 
L 1144.26686 387.841573 
L 1195.847888 393.880499 
L 1247.428916 398.709144 
L 1299.009943 402.75173 
" clip-path="url(#p26ff79e777)" style="fill: none; stroke: #17b49e; stroke-width: 1.5; stroke-linecap: square"/>
   </g>
   <g id="line2d_75">
    <path d="M 112.646307 395.890251 
L 164.227334 393.640418 
L 215.808362 397.759739 
L 267.38939 406.681711 
L 318.970417 406.962134 
L 370.551445 401.766246 
L 422.132473 394.007869 
L 473.7135 364.43772 
L 525.294528 369.768985 
L 576.875556 339.335004 
L 628.456583 315.147692 
L 680.037611 294.941102 
L 731.618639 294.924985 
L 783.199667 289.738767 
L 834.780694 291.498665 
L 886.361722 293.497083 
L 937.94275 303.589097 
L 989.523777 338.79672 
L 1041.104805 359.038767 
L 1092.685833 379.899678 
L 1144.26686 389.53399 
L 1195.847888 390.675023 
L 1247.428916 391.925646 
L 1299.009943 397.659818 
" clip-path="url(#p26ff79e777)" style="fill: none; stroke: #44b888; stroke-width: 1.5; stroke-linecap: square"/>
   </g>
   <g id="line2d_76">
    <path d="M 112.646307 395.659055 
L 164.227334 392.995474 
L 215.808362 396.889753 
L 267.38939 405.821102 
L 318.970417 406.858404 
L 370.551445 402.14659 
L 422.132473 395.887613 
L 473.7135 365.550916 
L 525.294528 370.974776 
L 576.875556 334.212078 
L 628.456583 310.644218 
L 680.037611 272.765102 
L 731.618639 281.78216 
L 783.199667 243.553613 
L 834.780694 247.694032 
L 886.361722 259.13073 
L 937.94275 271.762962 
L 989.523777 328.427799 
L 1041.104805 364.869637 
L 1092.685833 384.924734 
L 1144.26686 388.502548 
L 1195.847888 388.86033 
L 1247.428916 391.500176 
L 1299.009943 396.570358 
" clip-path="url(#p26ff79e777)" style="fill: none; stroke: #74bc71; stroke-width: 1.5; stroke-linecap: square"/>
   </g>
   <g id="line2d_77">
    <path d="M 112.646307 394.646718 
L 164.227334 395.89992 
L 215.808362 395.08766 
L 267.38939 397.512838 
L 318.970417 406.401288 
L 370.551445 406.134402 
L 422.132473 400.278391 
L 473.7135 393.772572 
L 525.294528 359.313388 
L 576.875556 344.019201 
L 628.456583 295.817827 
L 680.037611 236.704605 
L 731.618639 157.830246 
L 783.199667 136.297608 
L 834.780694 167.944823 
L 886.361722 172.489613 
L 937.94275 201.294363 
L 989.523777 240.542461 
L 1041.104805 282.297261 
L 1092.685833 331.036608 
L 1144.26686 369.295415 
L 1195.847888 380.162746 
L 1247.428916 376.268805 
L 1299.009943 389.534982 
" clip-path="url(#p26ff79e777)" style="fill: none; stroke: #a2c05b; stroke-width: 1.5; stroke-linecap: square"/>
   </g>
   <g id="line2d_78">
    <path d="M 112.646307 400.143306 
L 164.227334 402.187501 
L 215.808362 401.839433 
L 267.38939 401.407137 
L 318.970417 407.171288 
L 370.551445 406.805985 
L 422.132473 402.311545 
L 473.7135 397.111278 
L 525.294528 368.202125 
L 576.875556 336.458981 
L 628.456583 273.449283 
L 680.037611 218.85706 
L 731.618639 165.158172 
L 783.199667 138.065241 
L 834.780694 161.460898 
L 886.361722 160.493523 
L 937.94275 207.05812 
L 989.523777 249.831017 
L 1041.104805 292.711367 
L 1092.685833 333.055223 
L 1144.26686 370.435332 
L 1195.847888 385.292754 
L 1247.428916 387.120846 
L 1299.009943 395.057218 
" clip-path="url(#p26ff79e777)" style="fill: none; stroke: #cfc445; stroke-width: 1.5; stroke-linecap: square"/>
   </g>
   <g id="patch_3">
    <path d="M 53.328125 409.108823 
L 53.328125 22.318125 
" style="fill: none; stroke: #000000; stroke-width: 0.8; stroke-linejoin: miter; stroke-linecap: square"/>
   </g>
   <g id="patch_4">
    <path d="M 1358.328125 409.108823 
L 1358.328125 22.318125 
" style="fill: none; stroke: #000000; stroke-width: 0.8; stroke-linejoin: miter; stroke-linecap: square"/>
   </g>
   <g id="patch_5">
    <path d="M 53.328125 409.108823 
L 1358.328125 409.108823 
" style="fill: none; stroke: #000000; stroke-width: 0.8; stroke-linejoin: miter; stroke-linecap: square"/>
   </g>
   <g id="patch_6">
    <path d="M 53.328125 22.318125 
L 1358.328125 22.318125 
" style="fill: none; stroke: #000000; stroke-width: 0.8; stroke-linejoin: miter; stroke-linecap: square"/>
   </g>
   <g id="text_36">
    <!-- East -->
    <g transform="translate(692.882187 16.318125) scale(0.12 -0.12)">
     <defs>
      <path id="DejaVuSans-45" d="M 628 4666 
L 3578 4666 
L 3578 4134 
L 1259 4134 
L 1259 2753 
L 3481 2753 
L 3481 2222 
L 1259 2222 
L 1259 531 
L 3634 531 
L 3634 0 
L 628 0 
L 628 4666 
z
" transform="scale(0.015625)"/>
     </defs>
     <use xlink:href="#DejaVuSans-45"/>
     <use xlink:href="#DejaVuSans-61" x="63.183594"/>
     <use xlink:href="#DejaVuSans-73" x="124.462891"/>
     <use xlink:href="#DejaVuSans-74" x="176.5625"/>
    </g>
   </g>
  </g>
  <g id="axes_2">
   <g id="patch_7">
    <path d="M 53.328125 853.918125 
L 1358.328125 853.918125 
L 1358.328125 467.127427 
L 53.328125 467.127427 
z
" style="fill: #ffffff"/>
   </g>
   <g id="matplotlib.axis_3">
    <g id="xtick_25">
     <g id="line2d_79">
      <path d="M 112.646307 853.918125 
L 112.646307 467.127427 
" clip-path="url(#pf01f69915c)" style="fill: none; stroke: #b0b0b0; stroke-width: 0.8; stroke-linecap: square"/>
     </g>
     <g id="line2d_80">
      <g>
       <use xlink:href="#m8619cec221" x="112.646307" y="853.918125" style="stroke: #000000; stroke-width: 0.8"/>
      </g>
     </g>
     <g id="text_37">
      <!-- 0 -->
      <g transform="translate(109.465057 868.516562) scale(0.1 -0.1)">
       <use xlink:href="#DejaVuSans-30"/>
      </g>
     </g>
    </g>
    <g id="xtick_26">
     <g id="line2d_81">
      <path d="M 164.227334 853.918125 
L 164.227334 467.127427 
" clip-path="url(#pf01f69915c)" style="fill: none; stroke: #b0b0b0; stroke-width: 0.8; stroke-linecap: square"/>
     </g>
     <g id="line2d_82">
      <g>
       <use xlink:href="#m8619cec221" x="164.227334" y="853.918125" style="stroke: #000000; stroke-width: 0.8"/>
      </g>
     </g>
     <g id="text_38">
      <!-- 1 -->
      <g transform="translate(161.046084 868.516562) scale(0.1 -0.1)">
       <use xlink:href="#DejaVuSans-31"/>
      </g>
     </g>
    </g>
    <g id="xtick_27">
     <g id="line2d_83">
      <path d="M 215.808362 853.918125 
L 215.808362 467.127427 
" clip-path="url(#pf01f69915c)" style="fill: none; stroke: #b0b0b0; stroke-width: 0.8; stroke-linecap: square"/>
     </g>
     <g id="line2d_84">
      <g>
       <use xlink:href="#m8619cec221" x="215.808362" y="853.918125" style="stroke: #000000; stroke-width: 0.8"/>
      </g>
     </g>
     <g id="text_39">
      <!-- 2 -->
      <g transform="translate(212.627112 868.516562) scale(0.1 -0.1)">
       <use xlink:href="#DejaVuSans-32"/>
      </g>
     </g>
    </g>
    <g id="xtick_28">
     <g id="line2d_85">
      <path d="M 267.38939 853.918125 
L 267.38939 467.127427 
" clip-path="url(#pf01f69915c)" style="fill: none; stroke: #b0b0b0; stroke-width: 0.8; stroke-linecap: square"/>
     </g>
     <g id="line2d_86">
      <g>
       <use xlink:href="#m8619cec221" x="267.38939" y="853.918125" style="stroke: #000000; stroke-width: 0.8"/>
      </g>
     </g>
     <g id="text_40">
      <!-- 3 -->
      <g transform="translate(264.20814 868.516562) scale(0.1 -0.1)">
       <use xlink:href="#DejaVuSans-33"/>
      </g>
     </g>
    </g>
    <g id="xtick_29">
     <g id="line2d_87">
      <path d="M 318.970417 853.918125 
L 318.970417 467.127427 
" clip-path="url(#pf01f69915c)" style="fill: none; stroke: #b0b0b0; stroke-width: 0.8; stroke-linecap: square"/>
     </g>
     <g id="line2d_88">
      <g>
       <use xlink:href="#m8619cec221" x="318.970417" y="853.918125" style="stroke: #000000; stroke-width: 0.8"/>
      </g>
     </g>
     <g id="text_41">
      <!-- 4 -->
      <g transform="translate(315.789167 868.516562) scale(0.1 -0.1)">
       <use xlink:href="#DejaVuSans-34"/>
      </g>
     </g>
    </g>
    <g id="xtick_30">
     <g id="line2d_89">
      <path d="M 370.551445 853.918125 
L 370.551445 467.127427 
" clip-path="url(#pf01f69915c)" style="fill: none; stroke: #b0b0b0; stroke-width: 0.8; stroke-linecap: square"/>
     </g>
     <g id="line2d_90">
      <g>
       <use xlink:href="#m8619cec221" x="370.551445" y="853.918125" style="stroke: #000000; stroke-width: 0.8"/>
      </g>
     </g>
     <g id="text_42">
      <!-- 5 -->
      <g transform="translate(367.370195 868.516562) scale(0.1 -0.1)">
       <use xlink:href="#DejaVuSans-35"/>
      </g>
     </g>
    </g>
    <g id="xtick_31">
     <g id="line2d_91">
      <path d="M 422.132473 853.918125 
L 422.132473 467.127427 
" clip-path="url(#pf01f69915c)" style="fill: none; stroke: #b0b0b0; stroke-width: 0.8; stroke-linecap: square"/>
     </g>
     <g id="line2d_92">
      <g>
       <use xlink:href="#m8619cec221" x="422.132473" y="853.918125" style="stroke: #000000; stroke-width: 0.8"/>
      </g>
     </g>
     <g id="text_43">
      <!-- 6 -->
      <g transform="translate(418.951223 868.516562) scale(0.1 -0.1)">
       <use xlink:href="#DejaVuSans-36"/>
      </g>
     </g>
    </g>
    <g id="xtick_32">
     <g id="line2d_93">
      <path d="M 473.7135 853.918125 
L 473.7135 467.127427 
" clip-path="url(#pf01f69915c)" style="fill: none; stroke: #b0b0b0; stroke-width: 0.8; stroke-linecap: square"/>
     </g>
     <g id="line2d_94">
      <g>
       <use xlink:href="#m8619cec221" x="473.7135" y="853.918125" style="stroke: #000000; stroke-width: 0.8"/>
      </g>
     </g>
     <g id="text_44">
      <!-- 7 -->
      <g transform="translate(470.53225 868.516562) scale(0.1 -0.1)">
       <use xlink:href="#DejaVuSans-37"/>
      </g>
     </g>
    </g>
    <g id="xtick_33">
     <g id="line2d_95">
      <path d="M 525.294528 853.918125 
L 525.294528 467.127427 
" clip-path="url(#pf01f69915c)" style="fill: none; stroke: #b0b0b0; stroke-width: 0.8; stroke-linecap: square"/>
     </g>
     <g id="line2d_96">
      <g>
       <use xlink:href="#m8619cec221" x="525.294528" y="853.918125" style="stroke: #000000; stroke-width: 0.8"/>
      </g>
     </g>
     <g id="text_45">
      <!-- 8 -->
      <g transform="translate(522.113278 868.516562) scale(0.1 -0.1)">
       <use xlink:href="#DejaVuSans-38"/>
      </g>
     </g>
    </g>
    <g id="xtick_34">
     <g id="line2d_97">
      <path d="M 576.875556 853.918125 
L 576.875556 467.127427 
" clip-path="url(#pf01f69915c)" style="fill: none; stroke: #b0b0b0; stroke-width: 0.8; stroke-linecap: square"/>
     </g>
     <g id="line2d_98">
      <g>
       <use xlink:href="#m8619cec221" x="576.875556" y="853.918125" style="stroke: #000000; stroke-width: 0.8"/>
      </g>
     </g>
     <g id="text_46">
      <!-- 9 -->
      <g transform="translate(573.694306 868.516562) scale(0.1 -0.1)">
       <use xlink:href="#DejaVuSans-39"/>
      </g>
     </g>
    </g>
    <g id="xtick_35">
     <g id="line2d_99">
      <path d="M 628.456583 853.918125 
L 628.456583 467.127427 
" clip-path="url(#pf01f69915c)" style="fill: none; stroke: #b0b0b0; stroke-width: 0.8; stroke-linecap: square"/>
     </g>
     <g id="line2d_100">
      <g>
       <use xlink:href="#m8619cec221" x="628.456583" y="853.918125" style="stroke: #000000; stroke-width: 0.8"/>
      </g>
     </g>
     <g id="text_47">
      <!-- 10 -->
      <g transform="translate(622.094083 868.516562) scale(0.1 -0.1)">
       <use xlink:href="#DejaVuSans-31"/>
       <use xlink:href="#DejaVuSans-30" x="63.623047"/>
      </g>
     </g>
    </g>
    <g id="xtick_36">
     <g id="line2d_101">
      <path d="M 680.037611 853.918125 
L 680.037611 467.127427 
" clip-path="url(#pf01f69915c)" style="fill: none; stroke: #b0b0b0; stroke-width: 0.8; stroke-linecap: square"/>
     </g>
     <g id="line2d_102">
      <g>
       <use xlink:href="#m8619cec221" x="680.037611" y="853.918125" style="stroke: #000000; stroke-width: 0.8"/>
      </g>
     </g>
     <g id="text_48">
      <!-- 11 -->
      <g transform="translate(673.675111 868.516562) scale(0.1 -0.1)">
       <use xlink:href="#DejaVuSans-31"/>
       <use xlink:href="#DejaVuSans-31" x="63.623047"/>
      </g>
     </g>
    </g>
    <g id="xtick_37">
     <g id="line2d_103">
      <path d="M 731.618639 853.918125 
L 731.618639 467.127427 
" clip-path="url(#pf01f69915c)" style="fill: none; stroke: #b0b0b0; stroke-width: 0.8; stroke-linecap: square"/>
     </g>
     <g id="line2d_104">
      <g>
       <use xlink:href="#m8619cec221" x="731.618639" y="853.918125" style="stroke: #000000; stroke-width: 0.8"/>
      </g>
     </g>
     <g id="text_49">
      <!-- 12 -->
      <g transform="translate(725.256139 868.516562) scale(0.1 -0.1)">
       <use xlink:href="#DejaVuSans-31"/>
       <use xlink:href="#DejaVuSans-32" x="63.623047"/>
      </g>
     </g>
    </g>
    <g id="xtick_38">
     <g id="line2d_105">
      <path d="M 783.199667 853.918125 
L 783.199667 467.127427 
" clip-path="url(#pf01f69915c)" style="fill: none; stroke: #b0b0b0; stroke-width: 0.8; stroke-linecap: square"/>
     </g>
     <g id="line2d_106">
      <g>
       <use xlink:href="#m8619cec221" x="783.199667" y="853.918125" style="stroke: #000000; stroke-width: 0.8"/>
      </g>
     </g>
     <g id="text_50">
      <!-- 13 -->
      <g transform="translate(776.837167 868.516562) scale(0.1 -0.1)">
       <use xlink:href="#DejaVuSans-31"/>
       <use xlink:href="#DejaVuSans-33" x="63.623047"/>
      </g>
     </g>
    </g>
    <g id="xtick_39">
     <g id="line2d_107">
      <path d="M 834.780694 853.918125 
L 834.780694 467.127427 
" clip-path="url(#pf01f69915c)" style="fill: none; stroke: #b0b0b0; stroke-width: 0.8; stroke-linecap: square"/>
     </g>
     <g id="line2d_108">
      <g>
       <use xlink:href="#m8619cec221" x="834.780694" y="853.918125" style="stroke: #000000; stroke-width: 0.8"/>
      </g>
     </g>
     <g id="text_51">
      <!-- 14 -->
      <g transform="translate(828.418194 868.516562) scale(0.1 -0.1)">
       <use xlink:href="#DejaVuSans-31"/>
       <use xlink:href="#DejaVuSans-34" x="63.623047"/>
      </g>
     </g>
    </g>
    <g id="xtick_40">
     <g id="line2d_109">
      <path d="M 886.361722 853.918125 
L 886.361722 467.127427 
" clip-path="url(#pf01f69915c)" style="fill: none; stroke: #b0b0b0; stroke-width: 0.8; stroke-linecap: square"/>
     </g>
     <g id="line2d_110">
      <g>
       <use xlink:href="#m8619cec221" x="886.361722" y="853.918125" style="stroke: #000000; stroke-width: 0.8"/>
      </g>
     </g>
     <g id="text_52">
      <!-- 15 -->
      <g transform="translate(879.999222 868.516562) scale(0.1 -0.1)">
       <use xlink:href="#DejaVuSans-31"/>
       <use xlink:href="#DejaVuSans-35" x="63.623047"/>
      </g>
     </g>
    </g>
    <g id="xtick_41">
     <g id="line2d_111">
      <path d="M 937.94275 853.918125 
L 937.94275 467.127427 
" clip-path="url(#pf01f69915c)" style="fill: none; stroke: #b0b0b0; stroke-width: 0.8; stroke-linecap: square"/>
     </g>
     <g id="line2d_112">
      <g>
       <use xlink:href="#m8619cec221" x="937.94275" y="853.918125" style="stroke: #000000; stroke-width: 0.8"/>
      </g>
     </g>
     <g id="text_53">
      <!-- 16 -->
      <g transform="translate(931.58025 868.516562) scale(0.1 -0.1)">
       <use xlink:href="#DejaVuSans-31"/>
       <use xlink:href="#DejaVuSans-36" x="63.623047"/>
      </g>
     </g>
    </g>
    <g id="xtick_42">
     <g id="line2d_113">
      <path d="M 989.523777 853.918125 
L 989.523777 467.127427 
" clip-path="url(#pf01f69915c)" style="fill: none; stroke: #b0b0b0; stroke-width: 0.8; stroke-linecap: square"/>
     </g>
     <g id="line2d_114">
      <g>
       <use xlink:href="#m8619cec221" x="989.523777" y="853.918125" style="stroke: #000000; stroke-width: 0.8"/>
      </g>
     </g>
     <g id="text_54">
      <!-- 17 -->
      <g transform="translate(983.161277 868.516562) scale(0.1 -0.1)">
       <use xlink:href="#DejaVuSans-31"/>
       <use xlink:href="#DejaVuSans-37" x="63.623047"/>
      </g>
     </g>
    </g>
    <g id="xtick_43">
     <g id="line2d_115">
      <path d="M 1041.104805 853.918125 
L 1041.104805 467.127427 
" clip-path="url(#pf01f69915c)" style="fill: none; stroke: #b0b0b0; stroke-width: 0.8; stroke-linecap: square"/>
     </g>
     <g id="line2d_116">
      <g>
       <use xlink:href="#m8619cec221" x="1041.104805" y="853.918125" style="stroke: #000000; stroke-width: 0.8"/>
      </g>
     </g>
     <g id="text_55">
      <!-- 18 -->
      <g transform="translate(1034.742305 868.516562) scale(0.1 -0.1)">
       <use xlink:href="#DejaVuSans-31"/>
       <use xlink:href="#DejaVuSans-38" x="63.623047"/>
      </g>
     </g>
    </g>
    <g id="xtick_44">
     <g id="line2d_117">
      <path d="M 1092.685833 853.918125 
L 1092.685833 467.127427 
" clip-path="url(#pf01f69915c)" style="fill: none; stroke: #b0b0b0; stroke-width: 0.8; stroke-linecap: square"/>
     </g>
     <g id="line2d_118">
      <g>
       <use xlink:href="#m8619cec221" x="1092.685833" y="853.918125" style="stroke: #000000; stroke-width: 0.8"/>
      </g>
     </g>
     <g id="text_56">
      <!-- 19 -->
      <g transform="translate(1086.323333 868.516562) scale(0.1 -0.1)">
       <use xlink:href="#DejaVuSans-31"/>
       <use xlink:href="#DejaVuSans-39" x="63.623047"/>
      </g>
     </g>
    </g>
    <g id="xtick_45">
     <g id="line2d_119">
      <path d="M 1144.26686 853.918125 
L 1144.26686 467.127427 
" clip-path="url(#pf01f69915c)" style="fill: none; stroke: #b0b0b0; stroke-width: 0.8; stroke-linecap: square"/>
     </g>
     <g id="line2d_120">
      <g>
       <use xlink:href="#m8619cec221" x="1144.26686" y="853.918125" style="stroke: #000000; stroke-width: 0.8"/>
      </g>
     </g>
     <g id="text_57">
      <!-- 20 -->
      <g transform="translate(1137.90436 868.516562) scale(0.1 -0.1)">
       <use xlink:href="#DejaVuSans-32"/>
       <use xlink:href="#DejaVuSans-30" x="63.623047"/>
      </g>
     </g>
    </g>
    <g id="xtick_46">
     <g id="line2d_121">
      <path d="M 1195.847888 853.918125 
L 1195.847888 467.127427 
" clip-path="url(#pf01f69915c)" style="fill: none; stroke: #b0b0b0; stroke-width: 0.8; stroke-linecap: square"/>
     </g>
     <g id="line2d_122">
      <g>
       <use xlink:href="#m8619cec221" x="1195.847888" y="853.918125" style="stroke: #000000; stroke-width: 0.8"/>
      </g>
     </g>
     <g id="text_58">
      <!-- 21 -->
      <g transform="translate(1189.485388 868.516562) scale(0.1 -0.1)">
       <use xlink:href="#DejaVuSans-32"/>
       <use xlink:href="#DejaVuSans-31" x="63.623047"/>
      </g>
     </g>
    </g>
    <g id="xtick_47">
     <g id="line2d_123">
      <path d="M 1247.428916 853.918125 
L 1247.428916 467.127427 
" clip-path="url(#pf01f69915c)" style="fill: none; stroke: #b0b0b0; stroke-width: 0.8; stroke-linecap: square"/>
     </g>
     <g id="line2d_124">
      <g>
       <use xlink:href="#m8619cec221" x="1247.428916" y="853.918125" style="stroke: #000000; stroke-width: 0.8"/>
      </g>
     </g>
     <g id="text_59">
      <!-- 22 -->
      <g transform="translate(1241.066416 868.516562) scale(0.1 -0.1)">
       <use xlink:href="#DejaVuSans-32"/>
       <use xlink:href="#DejaVuSans-32" x="63.623047"/>
      </g>
     </g>
    </g>
    <g id="xtick_48">
     <g id="line2d_125">
      <path d="M 1299.009943 853.918125 
L 1299.009943 467.127427 
" clip-path="url(#pf01f69915c)" style="fill: none; stroke: #b0b0b0; stroke-width: 0.8; stroke-linecap: square"/>
     </g>
     <g id="line2d_126">
      <g>
       <use xlink:href="#m8619cec221" x="1299.009943" y="853.918125" style="stroke: #000000; stroke-width: 0.8"/>
      </g>
     </g>
     <g id="text_60">
      <!-- 23 -->
      <g transform="translate(1292.647443 868.516562) scale(0.1 -0.1)">
       <use xlink:href="#DejaVuSans-32"/>
       <use xlink:href="#DejaVuSans-33" x="63.623047"/>
      </g>
     </g>
    </g>
    <g id="text_61">
     <!-- Time of day (hour) -->
     <g transform="translate(659.45625 882.194687) scale(0.1 -0.1)">
      <use xlink:href="#DejaVuSans-54"/>
      <use xlink:href="#DejaVuSans-69" x="57.958984"/>
      <use xlink:href="#DejaVuSans-6d" x="85.742188"/>
      <use xlink:href="#DejaVuSans-65" x="183.154297"/>
      <use xlink:href="#DejaVuSans-20" x="244.677734"/>
      <use xlink:href="#DejaVuSans-6f" x="276.464844"/>
      <use xlink:href="#DejaVuSans-66" x="337.646484"/>
      <use xlink:href="#DejaVuSans-20" x="372.851562"/>
      <use xlink:href="#DejaVuSans-64" x="404.638672"/>
      <use xlink:href="#DejaVuSans-61" x="468.115234"/>
      <use xlink:href="#DejaVuSans-79" x="529.394531"/>
      <use xlink:href="#DejaVuSans-20" x="588.574219"/>
      <use xlink:href="#DejaVuSans-28" x="620.361328"/>
      <use xlink:href="#DejaVuSans-68" x="659.375"/>
      <use xlink:href="#DejaVuSans-6f" x="722.753906"/>
      <use xlink:href="#DejaVuSans-75" x="783.935547"/>
      <use xlink:href="#DejaVuSans-72" x="847.314453"/>
      <use xlink:href="#DejaVuSans-29" x="888.427734"/>
     </g>
    </g>
   </g>
   <g id="matplotlib.axis_4">
    <g id="ytick_10">
     <g id="line2d_127">
      <path d="M 53.328125 853.918125 
L 1358.328125 853.918125 
" clip-path="url(#pf01f69915c)" style="fill: none; stroke: #b0b0b0; stroke-width: 0.8; stroke-linecap: square"/>
     </g>
     <g id="line2d_128">
      <g>
       <use xlink:href="#mcfea21e7ff" x="53.328125" y="853.918125" style="stroke: #000000; stroke-width: 0.8"/>
      </g>
     </g>
     <g id="text_62">
      <!-- 0 -->
      <g transform="translate(39.965625 857.717344) scale(0.1 -0.1)">
       <use xlink:href="#DejaVuSans-30"/>
      </g>
     </g>
    </g>
    <g id="ytick_11">
     <g id="line2d_129">
      <path d="M 53.328125 805.569288 
L 1358.328125 805.569288 
" clip-path="url(#pf01f69915c)" style="fill: none; stroke: #b0b0b0; stroke-width: 0.8; stroke-linecap: square"/>
     </g>
     <g id="line2d_130">
      <g>
       <use xlink:href="#mcfea21e7ff" x="53.328125" y="805.569288" style="stroke: #000000; stroke-width: 0.8"/>
      </g>
     </g>
     <g id="text_63">
      <!-- 500 -->
      <g transform="translate(27.240625 809.368507) scale(0.1 -0.1)">
       <use xlink:href="#DejaVuSans-35"/>
       <use xlink:href="#DejaVuSans-30" x="63.623047"/>
       <use xlink:href="#DejaVuSans-30" x="127.246094"/>
      </g>
     </g>
    </g>
    <g id="ytick_12">
     <g id="line2d_131">
      <path d="M 53.328125 757.220451 
L 1358.328125 757.220451 
" clip-path="url(#pf01f69915c)" style="fill: none; stroke: #b0b0b0; stroke-width: 0.8; stroke-linecap: square"/>
     </g>
     <g id="line2d_132">
      <g>
       <use xlink:href="#mcfea21e7ff" x="53.328125" y="757.220451" style="stroke: #000000; stroke-width: 0.8"/>
      </g>
     </g>
     <g id="text_64">
      <!-- 1000 -->
      <g transform="translate(20.878125 761.019669) scale(0.1 -0.1)">
       <use xlink:href="#DejaVuSans-31"/>
       <use xlink:href="#DejaVuSans-30" x="63.623047"/>
       <use xlink:href="#DejaVuSans-30" x="127.246094"/>
       <use xlink:href="#DejaVuSans-30" x="190.869141"/>
      </g>
     </g>
    </g>
    <g id="ytick_13">
     <g id="line2d_133">
      <path d="M 53.328125 708.871613 
L 1358.328125 708.871613 
" clip-path="url(#pf01f69915c)" style="fill: none; stroke: #b0b0b0; stroke-width: 0.8; stroke-linecap: square"/>
     </g>
     <g id="line2d_134">
      <g>
       <use xlink:href="#mcfea21e7ff" x="53.328125" y="708.871613" style="stroke: #000000; stroke-width: 0.8"/>
      </g>
     </g>
     <g id="text_65">
      <!-- 1500 -->
      <g transform="translate(20.878125 712.670832) scale(0.1 -0.1)">
       <use xlink:href="#DejaVuSans-31"/>
       <use xlink:href="#DejaVuSans-35" x="63.623047"/>
       <use xlink:href="#DejaVuSans-30" x="127.246094"/>
       <use xlink:href="#DejaVuSans-30" x="190.869141"/>
      </g>
     </g>
    </g>
    <g id="ytick_14">
     <g id="line2d_135">
      <path d="M 53.328125 660.522776 
L 1358.328125 660.522776 
" clip-path="url(#pf01f69915c)" style="fill: none; stroke: #b0b0b0; stroke-width: 0.8; stroke-linecap: square"/>
     </g>
     <g id="line2d_136">
      <g>
       <use xlink:href="#mcfea21e7ff" x="53.328125" y="660.522776" style="stroke: #000000; stroke-width: 0.8"/>
      </g>
     </g>
     <g id="text_66">
      <!-- 2000 -->
      <g transform="translate(20.878125 664.321995) scale(0.1 -0.1)">
       <use xlink:href="#DejaVuSans-32"/>
       <use xlink:href="#DejaVuSans-30" x="63.623047"/>
       <use xlink:href="#DejaVuSans-30" x="127.246094"/>
       <use xlink:href="#DejaVuSans-30" x="190.869141"/>
      </g>
     </g>
    </g>
    <g id="ytick_15">
     <g id="line2d_137">
      <path d="M 53.328125 612.173939 
L 1358.328125 612.173939 
" clip-path="url(#pf01f69915c)" style="fill: none; stroke: #b0b0b0; stroke-width: 0.8; stroke-linecap: square"/>
     </g>
     <g id="line2d_138">
      <g>
       <use xlink:href="#mcfea21e7ff" x="53.328125" y="612.173939" style="stroke: #000000; stroke-width: 0.8"/>
      </g>
     </g>
     <g id="text_67">
      <!-- 2500 -->
      <g transform="translate(20.878125 615.973158) scale(0.1 -0.1)">
       <use xlink:href="#DejaVuSans-32"/>
       <use xlink:href="#DejaVuSans-35" x="63.623047"/>
       <use xlink:href="#DejaVuSans-30" x="127.246094"/>
       <use xlink:href="#DejaVuSans-30" x="190.869141"/>
      </g>
     </g>
    </g>
    <g id="ytick_16">
     <g id="line2d_139">
      <path d="M 53.328125 563.825102 
L 1358.328125 563.825102 
" clip-path="url(#pf01f69915c)" style="fill: none; stroke: #b0b0b0; stroke-width: 0.8; stroke-linecap: square"/>
     </g>
     <g id="line2d_140">
      <g>
       <use xlink:href="#mcfea21e7ff" x="53.328125" y="563.825102" style="stroke: #000000; stroke-width: 0.8"/>
      </g>
     </g>
     <g id="text_68">
      <!-- 3000 -->
      <g transform="translate(20.878125 567.62432) scale(0.1 -0.1)">
       <use xlink:href="#DejaVuSans-33"/>
       <use xlink:href="#DejaVuSans-30" x="63.623047"/>
       <use xlink:href="#DejaVuSans-30" x="127.246094"/>
       <use xlink:href="#DejaVuSans-30" x="190.869141"/>
      </g>
     </g>
    </g>
    <g id="ytick_17">
     <g id="line2d_141">
      <path d="M 53.328125 515.476265 
L 1358.328125 515.476265 
" clip-path="url(#pf01f69915c)" style="fill: none; stroke: #b0b0b0; stroke-width: 0.8; stroke-linecap: square"/>
     </g>
     <g id="line2d_142">
      <g>
       <use xlink:href="#mcfea21e7ff" x="53.328125" y="515.476265" style="stroke: #000000; stroke-width: 0.8"/>
      </g>
     </g>
     <g id="text_69">
      <!-- 3500 -->
      <g transform="translate(20.878125 519.275483) scale(0.1 -0.1)">
       <use xlink:href="#DejaVuSans-33"/>
       <use xlink:href="#DejaVuSans-35" x="63.623047"/>
       <use xlink:href="#DejaVuSans-30" x="127.246094"/>
       <use xlink:href="#DejaVuSans-30" x="190.869141"/>
      </g>
     </g>
    </g>
    <g id="ytick_18">
     <g id="line2d_143">
      <path d="M 53.328125 467.127427 
L 1358.328125 467.127427 
" clip-path="url(#pf01f69915c)" style="fill: none; stroke: #b0b0b0; stroke-width: 0.8; stroke-linecap: square"/>
     </g>
     <g id="line2d_144">
      <g>
       <use xlink:href="#mcfea21e7ff" x="53.328125" y="467.127427" style="stroke: #000000; stroke-width: 0.8"/>
      </g>
     </g>
     <g id="text_70">
      <!-- 4000 -->
      <g transform="translate(20.878125 470.926646) scale(0.1 -0.1)">
       <use xlink:href="#DejaVuSans-34"/>
       <use xlink:href="#DejaVuSans-30" x="63.623047"/>
       <use xlink:href="#DejaVuSans-30" x="127.246094"/>
       <use xlink:href="#DejaVuSans-30" x="190.869141"/>
      </g>
     </g>
    </g>
    <g id="text_71">
     <!-- Pedestrian flow (hourly sum) -->
     <g transform="translate(14.798437 732.336839) rotate(-90) scale(0.1 -0.1)">
      <use xlink:href="#DejaVuSans-50"/>
      <use xlink:href="#DejaVuSans-65" x="56.677734"/>
      <use xlink:href="#DejaVuSans-64" x="118.201172"/>
      <use xlink:href="#DejaVuSans-65" x="181.677734"/>
      <use xlink:href="#DejaVuSans-73" x="243.201172"/>
      <use xlink:href="#DejaVuSans-74" x="295.300781"/>
      <use xlink:href="#DejaVuSans-72" x="334.509766"/>
      <use xlink:href="#DejaVuSans-69" x="375.623047"/>
      <use xlink:href="#DejaVuSans-61" x="403.40625"/>
      <use xlink:href="#DejaVuSans-6e" x="464.685547"/>
      <use xlink:href="#DejaVuSans-20" x="528.064453"/>
      <use xlink:href="#DejaVuSans-66" x="559.851562"/>
      <use xlink:href="#DejaVuSans-6c" x="595.056641"/>
      <use xlink:href="#DejaVuSans-6f" x="622.839844"/>
      <use xlink:href="#DejaVuSans-77" x="684.021484"/>
      <use xlink:href="#DejaVuSans-20" x="765.808594"/>
      <use xlink:href="#DejaVuSans-28" x="797.595703"/>
      <use xlink:href="#DejaVuSans-68" x="836.609375"/>
      <use xlink:href="#DejaVuSans-6f" x="899.988281"/>
      <use xlink:href="#DejaVuSans-75" x="961.169922"/>
      <use xlink:href="#DejaVuSans-72" x="1024.548828"/>
      <use xlink:href="#DejaVuSans-6c" x="1065.662109"/>
      <use xlink:href="#DejaVuSans-79" x="1093.445312"/>
      <use xlink:href="#DejaVuSans-20" x="1152.625"/>
      <use xlink:href="#DejaVuSans-73" x="1184.412109"/>
      <use xlink:href="#DejaVuSans-75" x="1236.511719"/>
      <use xlink:href="#DejaVuSans-6d" x="1299.890625"/>
      <use xlink:href="#DejaVuSans-29" x="1397.302734"/>
     </g>
    </g>
   </g>
   <g id="line2d_145">
    <path d="M 112.646307 844.823788 
L 164.227334 847.929108 
L 215.808362 848.272592 
L 267.38939 848.717058 
L 318.970417 852.039896 
L 370.551445 851.381793 
L 422.132473 845.871943 
L 473.7135 833.529183 
L 525.294528 810.423194 
L 576.875556 801.932208 
L 628.456583 757.465314 
L 680.037611 689.898261 
L 731.618639 644.37585 
L 783.199667 642.663825 
L 834.780694 657.748177 
L 886.361722 666.895465 
L 937.94275 674.879262 
L 989.523777 710.92254 
L 1041.104805 754.795211 
L 1092.685833 794.945021 
L 1144.26686 819.2021 
L 1195.847888 828.3837 
L 1247.428916 830.872886 
L 1299.009943 840.934123 
" clip-path="url(#pf01f69915c)" style="fill: none; stroke: #22335c; stroke-width: 1.5; stroke-linecap: square"/>
   </g>
   <g id="line2d_146">
    <path d="M 112.646307 842.481427 
L 164.227334 845.465712 
L 215.808362 844.343265 
L 267.38939 845.577511 
L 318.970417 851.781985 
L 370.551445 851.497167 
L 422.132473 846.194618 
L 473.7135 832.938246 
L 525.294528 803.96059 
L 576.875556 792.676851 
L 628.456583 738.186832 
L 680.037611 673.267172 
L 731.618639 623.229706 
L 783.199667 609.478711 
L 834.780694 631.84553 
L 886.361722 642.202962 
L 937.94275 654.473799 
L 989.523777 686.295443 
L 1041.104805 739.041288 
L 1092.685833 783.004064 
L 1144.26686 810.166823 
L 1195.847888 820.40782 
L 1247.428916 822.376776 
L 1299.009943 834.262125 
" clip-path="url(#pf01f69915c)" style="fill: none; stroke: #22335c; stroke-width: 1.5; stroke-linecap: square"/>
   </g>
   <g id="line2d_147">
    <path d="M 112.646307 843.41434 
L 164.227334 845.95838 
L 215.808362 846.233205 
L 267.38939 847.10518 
L 318.970417 851.350635 
L 370.551445 850.440287 
L 422.132473 841.750607 
L 473.7135 827.244072 
L 525.294528 801.439361 
L 576.875556 784.975906 
L 628.456583 721.921044 
L 680.037611 672.538242 
L 731.618639 641.988015 
L 783.199667 641.75251 
L 834.780694 654.836329 
L 886.361722 664.640226 
L 937.94275 680.899472 
L 989.523777 711.965939 
L 1041.104805 745.908434 
L 1092.685833 791.646434 
L 1144.26686 814.737839 
L 1195.847888 823.981859 
L 1247.428916 821.945613 
L 1299.009943 834.02894 
" clip-path="url(#pf01f69915c)" style="fill: none; stroke: #1c4a6a; stroke-width: 1.5; stroke-linecap: square"/>
   </g>
   <g id="line2d_148">
    <path d="M 112.646307 851.179509 
L 164.227334 851.267892 
L 215.808362 851.342099 
L 267.38939 852.843293 
L 318.970417 852.860897 
L 370.551445 850.040548 
L 422.132473 845.442074 
L 473.7135 836.989585 
L 525.294528 826.379294 
L 576.875556 804.173618 
L 628.456583 783.138651 
L 680.037611 763.538032 
L 731.618639 765.702218 
L 783.199667 775.763063 
L 834.780694 784.76595 
L 886.361722 789.56749 
L 937.94275 804.785703 
L 989.523777 813.070265 
L 1041.104805 831.660392 
L 1092.685833 841.414115 
L 1144.26686 844.278367 
L 1195.847888 842.279869 
L 1247.428916 847.139618 
L 1299.009943 850.373655 
" clip-path="url(#pf01f69915c)" style="fill: none; stroke: #166178; stroke-width: 1.5; stroke-linecap: square"/>
   </g>
   <g id="line2d_149">
    <path d="M 112.646307 851.281841 
L 164.227334 851.251305 
L 215.808362 851.699168 
L 267.38939 853.150232 
L 318.970417 853.302313 
L 370.551445 851.862027 
L 422.132473 849.640404 
L 473.7135 844.530042 
L 525.294528 841.651846 
L 576.875556 830.810715 
L 628.456583 822.307343 
L 680.037611 812.771705 
L 731.618639 809.450532 
L 783.199667 810.706742 
L 834.780694 813.252074 
L 886.361722 813.874927 
L 937.94275 823.184381 
L 989.523777 830.33723 
L 1041.104805 837.963009 
L 1092.685833 844.727978 
L 1144.26686 844.380681 
L 1195.847888 844.925241 
L 1247.428916 847.84459 
L 1299.009943 849.811019 
" clip-path="url(#pf01f69915c)" style="fill: none; stroke: #107886; stroke-width: 1.5; stroke-linecap: square"/>
   </g>
   <g id="line2d_150">
    <path d="M 112.646307 850.414446 
L 164.227334 850.095344 
L 215.808362 849.730115 
L 267.38939 852.937334 
L 318.970417 852.897798 
L 370.551445 850.282292 
L 422.132473 846.056604 
L 473.7135 836.705939 
L 525.294528 829.350469 
L 576.875556 806.432898 
L 628.456583 791.042074 
L 680.037611 773.03052 
L 731.618639 772.672739 
L 783.199667 775.028939 
L 834.780694 781.211144 
L 886.361722 786.758367 
L 937.94275 798.951944 
L 989.523777 811.483962 
L 1041.104805 828.680032 
L 1092.685833 839.366792 
L 1144.26686 842.707641 
L 1195.847888 842.968725 
L 1247.428916 846.85586 
L 1299.009943 849.42813 
" clip-path="url(#pf01f69915c)" style="fill: none; stroke: #099094; stroke-width: 1.5; stroke-linecap: square"/>
   </g>
   <g id="line2d_151">
    <path d="M 112.646307 851.368172 
L 164.227334 851.973811 
L 215.808362 852.363799 
L 267.38939 852.864811 
L 318.970417 851.562846 
L 370.551445 849.243293 
L 422.132473 842.541143 
L 473.7135 831.340885 
L 525.294528 826.497888 
L 576.875556 797.549619 
L 628.456583 779.130272 
L 680.037611 772.324627 
L 731.618639 765.897455 
L 783.199667 757.220451 
L 834.780694 759.222092 
L 886.361722 762.213274 
L 937.94275 772.030791 
L 989.523777 792.774002 
L 1041.104805 815.04566 
L 1092.685833 832.821916 
L 1144.26686 837.329472 
L 1195.847888 835.203672 
L 1247.428916 841.602985 
L 1299.009943 849.204113 
" clip-path="url(#pf01f69915c)" style="fill: none; stroke: #03a7a2; stroke-width: 1.5; stroke-linecap: square"/>
   </g>
   <g id="line2d_152">
    <path d="M 112.646307 849.56673 
L 164.227334 849.987832 
L 215.808362 850.362146 
L 267.38939 852.305457 
L 318.970417 851.085819 
L 370.551445 845.539739 
L 422.132473 832.635279 
L 473.7135 810.787843 
L 525.294528 806.932413 
L 576.875556 761.89937 
L 628.456583 717.958075 
L 680.037611 682.445075 
L 731.618639 667.878038 
L 783.199667 667.959139 
L 834.780694 689.036113 
L 886.361722 713.029613 
L 937.94275 726.196093 
L 989.523777 762.24561 
L 1041.104805 786.635259 
L 1092.685833 812.883999 
L 1144.26686 824.300563 
L 1195.847888 829.631412 
L 1247.428916 840.601919 
L 1299.009943 847.592226 
" clip-path="url(#pf01f69915c)" style="fill: none; stroke: #17b49e; stroke-width: 1.5; stroke-linecap: square"/>
   </g>
   <g id="line2d_153">
    <path d="M 112.646307 842.668962 
L 164.227334 841.395776 
L 215.808362 844.951916 
L 267.38939 851.694078 
L 318.970417 851.226706 
L 370.551445 845.357158 
L 422.132473 828.773506 
L 473.7135 795.532069 
L 525.294528 804.657106 
L 576.875556 762.758004 
L 628.456583 725.300548 
L 680.037611 709.703213 
L 731.618639 704.900562 
L 783.199667 696.346041 
L 834.780694 713.135981 
L 886.361722 714.918441 
L 937.94275 723.424613 
L 989.523777 766.542106 
L 1041.104805 785.675353 
L 1092.685833 806.265511 
L 1144.26686 819.545325 
L 1195.847888 818.478427 
L 1247.428916 828.544655 
L 1299.009943 841.186265 
" clip-path="url(#pf01f69915c)" style="fill: none; stroke: #44b888; stroke-width: 1.5; stroke-linecap: square"/>
   </g>
   <g id="line2d_154">
    <path d="M 112.646307 841.945195 
L 164.227334 839.905753 
L 215.808362 841.945195 
L 267.38939 850.647985 
L 318.970417 851.131474 
L 370.551445 845.224125 
L 422.132473 829.91952 
L 473.7135 804.804497 
L 525.294528 810.694265 
L 576.875556 768.727474 
L 628.456583 725.406916 
L 680.037611 671.409323 
L 731.618639 694.036578 
L 783.199667 657.199892 
L 834.780694 663.34459 
L 886.361722 677.392125 
L 937.94275 695.738311 
L 989.523777 756.042497 
L 1041.104805 785.253106 
L 1092.685833 815.519478 
L 1144.26686 820.344692 
L 1195.847888 824.212599 
L 1247.428916 832.93473 
L 1299.009943 840.777985 
" clip-path="url(#pf01f69915c)" style="fill: none; stroke: #74bc71; stroke-width: 1.5; stroke-linecap: square"/>
   </g>
   <g id="line2d_155">
    <path d="M 112.646307 839.359323 
L 164.227334 842.387894 
L 215.808362 843.614021 
L 267.38939 845.265617 
L 318.970417 851.202854 
L 370.551445 850.591725 
L 422.132473 843.749398 
L 473.7135 828.061167 
L 525.294528 793.938492 
L 576.875556 774.72273 
L 628.456583 696.587141 
L 680.037611 600.481256 
L 731.618639 515.232586 
L 783.199667 489.128082 
L 834.780694 538.656631 
L 886.361722 554.95495 
L 937.94275 566.889674 
L 989.523777 608.1833 
L 1041.104805 665.4432 
L 1092.685833 734.760556 
L 1144.26686 791.477461 
L 1195.847888 806.647839 
L 1247.428916 806.733379 
L 1299.009943 827.794876 
" clip-path="url(#pf01f69915c)" style="fill: none; stroke: #a2c05b; stroke-width: 1.5; stroke-linecap: square"/>
   </g>
   <g id="line2d_156">
    <path d="M 112.646307 844.622377 
L 164.227334 847.885678 
L 215.808362 848.034735 
L 267.38939 848.129036 
L 318.970417 851.910753 
L 370.551445 851.33773 
L 422.132473 845.604021 
L 473.7135 833.286358 
L 525.294528 800.913474 
L 576.875556 756.882888 
L 628.456583 663.399988 
L 680.037611 561.794451 
L 731.618639 521.524265 
L 783.199667 495.926598 
L 834.780694 537.074381 
L 886.361722 545.928594 
L 937.94275 572.673851 
L 989.523777 624.184906 
L 1041.104805 686.904177 
L 1092.685833 747.176199 
L 1144.26686 800.375507 
L 1195.847888 817.047871 
L 1247.428916 824.552474 
L 1299.009943 837.740962 
" clip-path="url(#pf01f69915c)" style="fill: none; stroke: #cfc445; stroke-width: 1.5; stroke-linecap: square"/>
   </g>
   <g id="patch_8">
    <path d="M 53.328125 853.918125 
L 53.328125 467.127427 
" style="fill: none; stroke: #000000; stroke-width: 0.8; stroke-linejoin: miter; stroke-linecap: square"/>
   </g>
   <g id="patch_9">
    <path d="M 1358.328125 853.918125 
L 1358.328125 467.127427 
" style="fill: none; stroke: #000000; stroke-width: 0.8; stroke-linejoin: miter; stroke-linecap: square"/>
   </g>
   <g id="patch_10">
    <path d="M 53.328125 853.918125 
L 1358.328125 853.918125 
" style="fill: none; stroke: #000000; stroke-width: 0.8; stroke-linejoin: miter; stroke-linecap: square"/>
   </g>
   <g id="patch_11">
    <path d="M 53.328125 467.127427 
L 1358.328125 467.127427 
" style="fill: none; stroke: #000000; stroke-width: 0.8; stroke-linejoin: miter; stroke-linecap: square"/>
   </g>
   <g id="text_72">
    <!-- West -->
    <g transform="translate(691.078437 461.127427) scale(0.12 -0.12)">
     <defs>
      <path id="DejaVuSans-57" d="M 213 4666 
L 850 4666 
L 1831 722 
L 2809 4666 
L 3519 4666 
L 4500 722 
L 5478 4666 
L 6119 4666 
L 4947 0 
L 4153 0 
L 3169 4050 
L 2175 0 
L 1381 0 
L 213 4666 
z
" transform="scale(0.015625)"/>
     </defs>
     <use xlink:href="#DejaVuSans-57"/>
     <use xlink:href="#DejaVuSans-65" x="93.001953"/>
     <use xlink:href="#DejaVuSans-73" x="154.525391"/>
     <use xlink:href="#DejaVuSans-74" x="206.625"/>
    </g>
   </g>
  </g>
  <g id="axes_3">
   <g id="patch_12">
    <path d="M 1412.328125 810.718125 
L 1430.328125 810.718125 
L 1430.328125 54.718125 
L 1412.328125 54.718125 
z
" style="fill: #ffffff"/>
   </g>
   <g id="QuadMesh_1">
    <path d="M 1412.328125 810.718125 
L 1430.328125 810.718125 
L 1430.328125 747.718125 
L 1412.328125 747.718125 
L 1412.328125 810.718125 
" clip-path="url(#pd73bc12dcf)" style="fill: #22335c"/>
    <path d="M 1412.328125 747.718125 
L 1430.328125 747.718125 
L 1430.328125 684.718125 
L 1412.328125 684.718125 
L 1412.328125 747.718125 
" clip-path="url(#pd73bc12dcf)" style="fill: #1c4a6a"/>
    <path d="M 1412.328125 684.718125 
L 1430.328125 684.718125 
L 1430.328125 621.718125 
L 1412.328125 621.718125 
L 1412.328125 684.718125 
" clip-path="url(#pd73bc12dcf)" style="fill: #166178"/>
    <path d="M 1412.328125 621.718125 
L 1430.328125 621.718125 
L 1430.328125 558.718125 
L 1412.328125 558.718125 
L 1412.328125 621.718125 
" clip-path="url(#pd73bc12dcf)" style="fill: #107886"/>
    <path d="M 1412.328125 558.718125 
L 1430.328125 558.718125 
L 1430.328125 495.718125 
L 1412.328125 495.718125 
L 1412.328125 558.718125 
" clip-path="url(#pd73bc12dcf)" style="fill: #099094"/>
    <path d="M 1412.328125 495.718125 
L 1430.328125 495.718125 
L 1430.328125 432.718125 
L 1412.328125 432.718125 
L 1412.328125 495.718125 
" clip-path="url(#pd73bc12dcf)" style="fill: #03a7a2"/>
    <path d="M 1412.328125 432.718125 
L 1430.328125 432.718125 
L 1430.328125 369.718125 
L 1412.328125 369.718125 
L 1412.328125 432.718125 
" clip-path="url(#pd73bc12dcf)" style="fill: #17b49e"/>
    <path d="M 1412.328125 369.718125 
L 1430.328125 369.718125 
L 1430.328125 306.718125 
L 1412.328125 306.718125 
L 1412.328125 369.718125 
" clip-path="url(#pd73bc12dcf)" style="fill: #44b888"/>
    <path d="M 1412.328125 306.718125 
L 1430.328125 306.718125 
L 1430.328125 243.718125 
L 1412.328125 243.718125 
L 1412.328125 306.718125 
" clip-path="url(#pd73bc12dcf)" style="fill: #74bc71"/>
    <path d="M 1412.328125 243.718125 
L 1430.328125 243.718125 
L 1430.328125 180.718125 
L 1412.328125 180.718125 
L 1412.328125 243.718125 
" clip-path="url(#pd73bc12dcf)" style="fill: #a2c05b"/>
    <path d="M 1412.328125 180.718125 
L 1430.328125 180.718125 
L 1430.328125 117.718125 
L 1412.328125 117.718125 
L 1412.328125 180.718125 
" clip-path="url(#pd73bc12dcf)" style="fill: #cfc445"/>
    <path d="M 1412.328125 117.718125 
L 1430.328125 117.718125 
L 1430.328125 54.718125 
L 1412.328125 54.718125 
L 1412.328125 117.718125 
" clip-path="url(#pd73bc12dcf)" style="fill: #fdc82f"/>
   </g>
   <g id="matplotlib.axis_5"/>
   <g id="matplotlib.axis_6">
    <g id="ytick_19">
     <g id="line2d_157">
      <defs>
       <path id="m376e25f558" d="M 0 0 
L 3.5 0 
" style="stroke: #000000; stroke-width: 0.8"/>
      </defs>
      <g>
       <use xlink:href="#m376e25f558" x="1430.328125" y="810.718125" style="stroke: #000000; stroke-width: 0.8"/>
      </g>
     </g>
     <g id="text_73">
      <!-- Jan -->
      <g transform="translate(1437.328125 814.517344) scale(0.1 -0.1)">
       <defs>
        <path id="DejaVuSans-4a" d="M 628 4666 
L 1259 4666 
L 1259 325 
Q 1259 -519 939 -900 
Q 619 -1281 -91 -1281 
L -331 -1281 
L -331 -750 
L -134 -750 
Q 284 -750 456 -515 
Q 628 -281 628 325 
L 628 4666 
z
" transform="scale(0.015625)"/>
       </defs>
       <use xlink:href="#DejaVuSans-4a"/>
       <use xlink:href="#DejaVuSans-61" x="29.492188"/>
       <use xlink:href="#DejaVuSans-6e" x="90.771484"/>
      </g>
     </g>
    </g>
    <g id="ytick_20">
     <g id="line2d_158">
      <g>
       <use xlink:href="#m376e25f558" x="1430.328125" y="741.990852" style="stroke: #000000; stroke-width: 0.8"/>
      </g>
     </g>
     <g id="text_74">
      <!-- Feb -->
      <g transform="translate(1437.328125 745.790071) scale(0.1 -0.1)">
       <defs>
        <path id="DejaVuSans-46" d="M 628 4666 
L 3309 4666 
L 3309 4134 
L 1259 4134 
L 1259 2759 
L 3109 2759 
L 3109 2228 
L 1259 2228 
L 1259 0 
L 628 0 
L 628 4666 
z
" transform="scale(0.015625)"/>
        <path id="DejaVuSans-62" d="M 3116 1747 
Q 3116 2381 2855 2742 
Q 2594 3103 2138 3103 
Q 1681 3103 1420 2742 
Q 1159 2381 1159 1747 
Q 1159 1113 1420 752 
Q 1681 391 2138 391 
Q 2594 391 2855 752 
Q 3116 1113 3116 1747 
z
M 1159 2969 
Q 1341 3281 1617 3432 
Q 1894 3584 2278 3584 
Q 2916 3584 3314 3078 
Q 3713 2572 3713 1747 
Q 3713 922 3314 415 
Q 2916 -91 2278 -91 
Q 1894 -91 1617 61 
Q 1341 213 1159 525 
L 1159 0 
L 581 0 
L 581 4863 
L 1159 4863 
L 1159 2969 
z
" transform="scale(0.015625)"/>
       </defs>
       <use xlink:href="#DejaVuSans-46"/>
       <use xlink:href="#DejaVuSans-65" x="52.019531"/>
       <use xlink:href="#DejaVuSans-62" x="113.542969"/>
      </g>
     </g>
    </g>
    <g id="ytick_21">
     <g id="line2d_159">
      <g>
       <use xlink:href="#m376e25f558" x="1430.328125" y="673.26358" style="stroke: #000000; stroke-width: 0.8"/>
      </g>
     </g>
     <g id="text_75">
      <!-- Mar -->
      <g transform="translate(1437.328125 677.062798) scale(0.1 -0.1)">
       <defs>
        <path id="DejaVuSans-4d" d="M 628 4666 
L 1569 4666 
L 2759 1491 
L 3956 4666 
L 4897 4666 
L 4897 0 
L 4281 0 
L 4281 4097 
L 3078 897 
L 2444 897 
L 1241 4097 
L 1241 0 
L 628 0 
L 628 4666 
z
" transform="scale(0.015625)"/>
       </defs>
       <use xlink:href="#DejaVuSans-4d"/>
       <use xlink:href="#DejaVuSans-61" x="86.279297"/>
       <use xlink:href="#DejaVuSans-72" x="147.558594"/>
      </g>
     </g>
    </g>
    <g id="ytick_22">
     <g id="line2d_160">
      <g>
       <use xlink:href="#m376e25f558" x="1430.328125" y="604.536307" style="stroke: #000000; stroke-width: 0.8"/>
      </g>
     </g>
     <g id="text_76">
      <!-- Apr -->
      <g transform="translate(1437.328125 608.335526) scale(0.1 -0.1)">
       <defs>
        <path id="DejaVuSans-41" d="M 2188 4044 
L 1331 1722 
L 3047 1722 
L 2188 4044 
z
M 1831 4666 
L 2547 4666 
L 4325 0 
L 3669 0 
L 3244 1197 
L 1141 1197 
L 716 0 
L 50 0 
L 1831 4666 
z
" transform="scale(0.015625)"/>
        <path id="DejaVuSans-70" d="M 1159 525 
L 1159 -1331 
L 581 -1331 
L 581 3500 
L 1159 3500 
L 1159 2969 
Q 1341 3281 1617 3432 
Q 1894 3584 2278 3584 
Q 2916 3584 3314 3078 
Q 3713 2572 3713 1747 
Q 3713 922 3314 415 
Q 2916 -91 2278 -91 
Q 1894 -91 1617 61 
Q 1341 213 1159 525 
z
M 3116 1747 
Q 3116 2381 2855 2742 
Q 2594 3103 2138 3103 
Q 1681 3103 1420 2742 
Q 1159 2381 1159 1747 
Q 1159 1113 1420 752 
Q 1681 391 2138 391 
Q 2594 391 2855 752 
Q 3116 1113 3116 1747 
z
" transform="scale(0.015625)"/>
       </defs>
       <use xlink:href="#DejaVuSans-41"/>
       <use xlink:href="#DejaVuSans-70" x="68.408203"/>
       <use xlink:href="#DejaVuSans-72" x="131.884766"/>
      </g>
     </g>
    </g>
    <g id="ytick_23">
     <g id="line2d_161">
      <g>
       <use xlink:href="#m376e25f558" x="1430.328125" y="535.809034" style="stroke: #000000; stroke-width: 0.8"/>
      </g>
     </g>
     <g id="text_77">
      <!-- May -->
      <g transform="translate(1437.328125 539.608253) scale(0.1 -0.1)">
       <use xlink:href="#DejaVuSans-4d"/>
       <use xlink:href="#DejaVuSans-61" x="86.279297"/>
       <use xlink:href="#DejaVuSans-79" x="147.558594"/>
      </g>
     </g>
    </g>
    <g id="ytick_24">
     <g id="line2d_162">
      <g>
       <use xlink:href="#m376e25f558" x="1430.328125" y="467.081761" style="stroke: #000000; stroke-width: 0.8"/>
      </g>
     </g>
     <g id="text_78">
      <!-- Jun -->
      <g transform="translate(1437.328125 470.88098) scale(0.1 -0.1)">
       <use xlink:href="#DejaVuSans-4a"/>
       <use xlink:href="#DejaVuSans-75" x="29.492188"/>
       <use xlink:href="#DejaVuSans-6e" x="92.871094"/>
      </g>
     </g>
    </g>
    <g id="ytick_25">
     <g id="line2d_163">
      <g>
       <use xlink:href="#m376e25f558" x="1430.328125" y="398.354489" style="stroke: #000000; stroke-width: 0.8"/>
      </g>
     </g>
     <g id="text_79">
      <!-- Jul -->
      <g transform="translate(1437.328125 402.153707) scale(0.1 -0.1)">
       <use xlink:href="#DejaVuSans-4a"/>
       <use xlink:href="#DejaVuSans-75" x="29.492188"/>
       <use xlink:href="#DejaVuSans-6c" x="92.871094"/>
      </g>
     </g>
    </g>
    <g id="ytick_26">
     <g id="line2d_164">
      <g>
       <use xlink:href="#m376e25f558" x="1430.328125" y="329.627216" style="stroke: #000000; stroke-width: 0.8"/>
      </g>
     </g>
     <g id="text_80">
      <!-- Aug -->
      <g transform="translate(1437.328125 333.426435) scale(0.1 -0.1)">
       <defs>
        <path id="DejaVuSans-67" d="M 2906 1791 
Q 2906 2416 2648 2759 
Q 2391 3103 1925 3103 
Q 1463 3103 1205 2759 
Q 947 2416 947 1791 
Q 947 1169 1205 825 
Q 1463 481 1925 481 
Q 2391 481 2648 825 
Q 2906 1169 2906 1791 
z
M 3481 434 
Q 3481 -459 3084 -895 
Q 2688 -1331 1869 -1331 
Q 1566 -1331 1297 -1286 
Q 1028 -1241 775 -1147 
L 775 -588 
Q 1028 -725 1275 -790 
Q 1522 -856 1778 -856 
Q 2344 -856 2625 -561 
Q 2906 -266 2906 331 
L 2906 616 
Q 2728 306 2450 153 
Q 2172 0 1784 0 
Q 1141 0 747 490 
Q 353 981 353 1791 
Q 353 2603 747 3093 
Q 1141 3584 1784 3584 
Q 2172 3584 2450 3431 
Q 2728 3278 2906 2969 
L 2906 3500 
L 3481 3500 
L 3481 434 
z
" transform="scale(0.015625)"/>
       </defs>
       <use xlink:href="#DejaVuSans-41"/>
       <use xlink:href="#DejaVuSans-75" x="68.408203"/>
       <use xlink:href="#DejaVuSans-67" x="131.787109"/>
      </g>
     </g>
    </g>
    <g id="ytick_27">
     <g id="line2d_165">
      <g>
       <use xlink:href="#m376e25f558" x="1430.328125" y="260.899943" style="stroke: #000000; stroke-width: 0.8"/>
      </g>
     </g>
     <g id="text_81">
      <!-- Sep -->
      <g transform="translate(1437.328125 264.699162) scale(0.1 -0.1)">
       <defs>
        <path id="DejaVuSans-53" d="M 3425 4513 
L 3425 3897 
Q 3066 4069 2747 4153 
Q 2428 4238 2131 4238 
Q 1616 4238 1336 4038 
Q 1056 3838 1056 3469 
Q 1056 3159 1242 3001 
Q 1428 2844 1947 2747 
L 2328 2669 
Q 3034 2534 3370 2195 
Q 3706 1856 3706 1288 
Q 3706 609 3251 259 
Q 2797 -91 1919 -91 
Q 1588 -91 1214 -16 
Q 841 59 441 206 
L 441 856 
Q 825 641 1194 531 
Q 1563 422 1919 422 
Q 2459 422 2753 634 
Q 3047 847 3047 1241 
Q 3047 1584 2836 1778 
Q 2625 1972 2144 2069 
L 1759 2144 
Q 1053 2284 737 2584 
Q 422 2884 422 3419 
Q 422 4038 858 4394 
Q 1294 4750 2059 4750 
Q 2388 4750 2728 4690 
Q 3069 4631 3425 4513 
z
" transform="scale(0.015625)"/>
       </defs>
       <use xlink:href="#DejaVuSans-53"/>
       <use xlink:href="#DejaVuSans-65" x="63.476562"/>
       <use xlink:href="#DejaVuSans-70" x="125"/>
      </g>
     </g>
    </g>
    <g id="ytick_28">
     <g id="line2d_166">
      <g>
       <use xlink:href="#m376e25f558" x="1430.328125" y="192.17267" style="stroke: #000000; stroke-width: 0.8"/>
      </g>
     </g>
     <g id="text_82">
      <!-- Oct -->
      <g transform="translate(1437.328125 195.971889) scale(0.1 -0.1)">
       <defs>
        <path id="DejaVuSans-4f" d="M 2522 4238 
Q 1834 4238 1429 3725 
Q 1025 3213 1025 2328 
Q 1025 1447 1429 934 
Q 1834 422 2522 422 
Q 3209 422 3611 934 
Q 4013 1447 4013 2328 
Q 4013 3213 3611 3725 
Q 3209 4238 2522 4238 
z
M 2522 4750 
Q 3503 4750 4090 4092 
Q 4678 3434 4678 2328 
Q 4678 1225 4090 567 
Q 3503 -91 2522 -91 
Q 1538 -91 948 565 
Q 359 1222 359 2328 
Q 359 3434 948 4092 
Q 1538 4750 2522 4750 
z
" transform="scale(0.015625)"/>
        <path id="DejaVuSans-63" d="M 3122 3366 
L 3122 2828 
Q 2878 2963 2633 3030 
Q 2388 3097 2138 3097 
Q 1578 3097 1268 2742 
Q 959 2388 959 1747 
Q 959 1106 1268 751 
Q 1578 397 2138 397 
Q 2388 397 2633 464 
Q 2878 531 3122 666 
L 3122 134 
Q 2881 22 2623 -34 
Q 2366 -91 2075 -91 
Q 1284 -91 818 406 
Q 353 903 353 1747 
Q 353 2603 823 3093 
Q 1294 3584 2113 3584 
Q 2378 3584 2631 3529 
Q 2884 3475 3122 3366 
z
" transform="scale(0.015625)"/>
       </defs>
       <use xlink:href="#DejaVuSans-4f"/>
       <use xlink:href="#DejaVuSans-63" x="78.710938"/>
       <use xlink:href="#DejaVuSans-74" x="133.691406"/>
      </g>
     </g>
    </g>
    <g id="ytick_29">
     <g id="line2d_167">
      <g>
       <use xlink:href="#m376e25f558" x="1430.328125" y="123.445398" style="stroke: #000000; stroke-width: 0.8"/>
      </g>
     </g>
     <g id="text_83">
      <!-- Nov -->
      <g transform="translate(1437.328125 127.244616) scale(0.1 -0.1)">
       <defs>
        <path id="DejaVuSans-4e" d="M 628 4666 
L 1478 4666 
L 3547 763 
L 3547 4666 
L 4159 4666 
L 4159 0 
L 3309 0 
L 1241 3903 
L 1241 0 
L 628 0 
L 628 4666 
z
" transform="scale(0.015625)"/>
        <path id="DejaVuSans-76" d="M 191 3500 
L 800 3500 
L 1894 563 
L 2988 3500 
L 3597 3500 
L 2284 0 
L 1503 0 
L 191 3500 
z
" transform="scale(0.015625)"/>
       </defs>
       <use xlink:href="#DejaVuSans-4e"/>
       <use xlink:href="#DejaVuSans-6f" x="74.804688"/>
       <use xlink:href="#DejaVuSans-76" x="135.986328"/>
      </g>
     </g>
    </g>
    <g id="ytick_30">
     <g id="line2d_168">
      <g>
       <use xlink:href="#m376e25f558" x="1430.328125" y="54.718125" style="stroke: #000000; stroke-width: 0.8"/>
      </g>
     </g>
     <g id="text_84">
      <!-- Dec -->
      <g transform="translate(1437.328125 58.517344) scale(0.1 -0.1)">
       <defs>
        <path id="DejaVuSans-44" d="M 1259 4147 
L 1259 519 
L 2022 519 
Q 2988 519 3436 956 
Q 3884 1394 3884 2338 
Q 3884 3275 3436 3711 
Q 2988 4147 2022 4147 
L 1259 4147 
z
M 628 4666 
L 1925 4666 
Q 3281 4666 3915 4102 
Q 4550 3538 4550 2338 
Q 4550 1131 3912 565 
Q 3275 0 1925 0 
L 628 0 
L 628 4666 
z
" transform="scale(0.015625)"/>
       </defs>
       <use xlink:href="#DejaVuSans-44"/>
       <use xlink:href="#DejaVuSans-65" x="77.001953"/>
       <use xlink:href="#DejaVuSans-63" x="138.525391"/>
      </g>
     </g>
    </g>
    <g id="text_85">
     <!-- Month -->
     <g transform="translate(1469.601562 448.389219) rotate(-90) scale(0.1 -0.1)">
      <use xlink:href="#DejaVuSans-4d"/>
      <use xlink:href="#DejaVuSans-6f" x="86.279297"/>
      <use xlink:href="#DejaVuSans-6e" x="147.460938"/>
      <use xlink:href="#DejaVuSans-74" x="210.839844"/>
      <use xlink:href="#DejaVuSans-68" x="250.048828"/>
     </g>
    </g>
   </g>
   <g id="LineCollection_1"/>
   <g id="patch_13">
    <path d="M 1412.328125 810.718125 
L 1421.328125 810.718125 
L 1430.328125 810.718125 
L 1430.328125 54.718125 
L 1421.328125 54.718125 
L 1412.328125 54.718125 
L 1412.328125 810.718125 
z
" style="fill: none; stroke: #000000; stroke-width: 0.8; stroke-linejoin: miter; stroke-linecap: square"/>
   </g>
  </g>
 </g>
 <defs>
  <clipPath id="p26ff79e777">
   <rect x="53.328125" y="22.318125" width="1305" height="386.790698"/>
  </clipPath>
  <clipPath id="pf01f69915c">
   <rect x="53.328125" y="467.127427" width="1305" height="386.790698"/>
  </clipPath>
  <clipPath id="pd73bc12dcf">
   <rect x="1412.328125" y="54.718125" width="18" height="756"/>
  </clipPath>
 </defs>
</svg>
